# Blender v2.76 (sub 0) OBJ File: 'Banner.blend'
# www.blender.org
mtllib Banner.mtl
o Banner_Cylinder.006
v 0.000000 -0.034799 -0.034799
v 0.000000 0.331490 -0.034799
v 0.030137 -0.034799 -0.017399
v 0.030137 0.331490 -0.017399
v 0.030137 -0.034799 0.017399
v 0.030137 0.331490 0.017399
v -0.000000 -0.034799 0.034799
v -0.000000 0.331490 0.034799
v -0.030137 -0.034799 0.017399
v -0.030137 0.331490 0.017399
v -0.030137 -0.034799 -0.017399
v -0.030137 0.331490 -0.017399
v 0.030137 0.624028 -0.017399
v -0.000000 0.624028 -0.034799
v 0.030137 0.624028 0.017399
v -0.000000 0.624028 0.034799
v -0.030137 0.624028 0.017399
v -0.030137 0.624028 -0.017399
v 0.673371 0.331490 0.017399
v 0.673371 0.331490 -0.017399
v 0.673371 0.624028 0.017399
v 0.673371 0.624028 -0.017399
v 0.030137 0.477759 0.017399
v -0.000000 0.477759 0.034799
v -0.030137 0.477759 -0.017399
v -0.000000 0.477759 -0.034799
v -0.030137 0.477759 0.017399
v 0.030137 0.477759 -0.017399
v 0.441417 0.477759 0.017399
v 0.441417 0.477759 -0.017399
vn 0.500000 0.000000 -0.866000
vn 1.000000 0.000000 0.000000
vn 0.500000 0.000000 0.866000
vn -0.500000 0.000000 0.866000
vn -0.500000 0.000000 -0.866000
vn -1.000000 0.000000 0.000000
vn 0.000000 -1.000000 0.000000
vn 0.000000 1.000000 0.000000
vn 0.533400 -0.845900 0.000000
vn 0.000000 0.000000 1.000000
vn 0.000000 0.000000 -1.000000
vn 0.533400 0.845900 0.000000
usemtl LightWood
s off
f 1//1 2//1 4//1 3//1
f 3//2 4//2 6//2 5//2
f 5//3 6//3 8//3 7//3
f 7//4 8//4 10//4 9//4
f 24//3 23//3 15//3 16//3
f 11//5 12//5 2//5 1//5
f 9//6 10//6 12//6 11//6
f 1//7 3//7 5//7 7//7 9//7 11//7
f 13//8 14//8 18//8 17//8 16//8 15//8
f 26//5 25//5 18//5 14//5
f 27//4 24//4 16//4 17//4
f 25//6 27//6 17//6 18//6
f 28//1 26//1 14//1 13//1
f 4//1 2//1 26//1 28//1
f 12//6 10//6 27//6 25//6
f 10//4 8//4 24//4 27//4
f 2//5 12//5 25//5 26//5
f 8//3 6//3 23//3 24//3
usemtl Banner
f 13//8 15//8 21//8 22//8
f 29//9 30//9 22//9 21//9
f 23//10 6//10 19//10 29//10
f 28//11 13//11 22//11 30//11
f 6//7 4//7 20//7 19//7
f 4//11 28//11 30//11 20//11
f 15//10 23//10 29//10 21//10
f 19//12 20//12 30//12 29//12
