# Blender v2.76 (sub 0) OBJ File: 'Bridge.blend'
# www.blender.org
mtllib Bridge.mtl
o Bridge_Cube.006
v -0.404637 0.055881 0.833885
v -0.404637 1.199465 -0.016219
v -0.395214 0.055881 0.840731
v -0.395214 1.199465 -0.009373
v -0.398813 0.055881 0.851808
v -0.398813 1.199465 0.001704
v -0.410460 0.055881 0.851808
v -0.410460 1.199465 0.001704
v -0.414059 0.055881 0.840731
v -0.414059 1.199465 -0.009373
v -0.442123 0.005830 0.084375
v -0.442123 0.057085 0.084375
v -0.442123 0.005830 0.004927
v -0.442123 0.057085 0.004927
v -0.357909 0.057085 0.004927
v -0.357909 0.057085 0.084375
v -0.441607 0.279953 0.071926
v -0.441607 0.279953 0.004927
v -0.358425 0.266808 0.071926
v -0.358425 0.266808 0.004927
v -0.417575 0.558759 0.071926
v -0.417575 0.558759 0.004927
v -0.334393 0.545614 0.071926
v -0.334393 0.545614 0.004927
v -0.349877 0.807166 0.071926
v -0.349877 0.807166 0.004927
v -0.275748 0.767205 0.071926
v -0.275748 0.767205 0.004927
v -0.174758 0.990858 0.071926
v -0.174758 0.990858 0.004927
v -0.116087 0.930445 0.071926
v -0.116087 0.930445 0.004927
v -0.442123 0.005830 0.895811
v -0.442123 0.057085 0.895811
v -0.442123 0.005830 0.794382
v -0.442123 0.005830 0.692952
v -0.442123 0.005830 0.591523
v -0.442123 0.005830 0.490093
v -0.442123 0.005830 0.388664
v -0.442123 0.005830 0.287234
v -0.442123 0.005830 0.185805
v -0.442123 0.057085 0.794382
v -0.442123 0.057085 0.692952
v -0.442123 0.057085 0.591523
v -0.442123 0.057085 0.490093
v -0.442123 0.057085 0.388664
v -0.442123 0.057085 0.287234
v -0.442123 0.057085 0.185805
v -0.442123 0.005830 0.191952
v -0.442123 0.057085 0.191952
v -0.442123 0.005830 0.293381
v -0.442123 0.057085 0.293381
v -0.442123 0.005830 0.394811
v -0.442123 0.057085 0.394811
v -0.442123 0.005830 0.497009
v -0.442123 0.057085 0.497009
v -0.442123 0.005830 0.598821
v -0.442123 0.057085 0.598821
v -0.442123 0.005830 0.699952
v -0.442123 0.057085 0.699952
v -0.442123 0.005830 0.802559
v -0.442123 0.057085 0.802559
v -0.431324 0.010338 0.191741
v -0.431324 0.010338 0.186015
v -0.431324 0.052576 0.191741
v -0.431324 0.052576 0.186015
v -0.424449 0.010112 0.293037
v -0.424449 0.010112 0.287579
v -0.424449 0.052803 0.293037
v -0.424449 0.052803 0.287579
v -0.421993 0.010648 0.394419
v -0.421993 0.010648 0.389056
v -0.421993 0.052266 0.394419
v -0.421993 0.052266 0.389056
v -0.418069 0.011715 0.496481
v -0.418069 0.011715 0.490621
v -0.418069 0.051199 0.496481
v -0.418069 0.051199 0.490621
v -0.421379 0.010546 0.598343
v -0.421379 0.010546 0.592001
v -0.421379 0.052368 0.598343
v -0.421379 0.052368 0.592001
v -0.406716 0.013968 0.699166
v -0.406716 0.013968 0.693738
v -0.406716 0.048947 0.699166
v -0.406716 0.048947 0.693738
v -0.411935 0.012003 0.801777
v -0.411935 0.012003 0.795165
v -0.411935 0.050911 0.801777
v -0.411935 0.050911 0.795165
v 0.404637 0.055881 0.833885
v 0.404637 1.199465 -0.016219
v 0.395214 0.055881 0.840731
v 0.395214 1.199465 -0.009373
v 0.398813 0.055881 0.851808
v 0.398813 1.199465 0.001704
v 0.410460 0.055881 0.851808
v 0.410460 1.199465 0.001704
v 0.414059 0.055881 0.840731
v 0.414059 1.199465 -0.009373
v 0.442123 0.005830 0.084375
v 0.442123 0.057085 0.084375
v 0.442123 0.005830 0.004927
v 0.442123 0.057085 0.004927
v 0.000000 0.005830 0.084375
v 0.000000 0.057085 0.084375
v 0.000000 0.005830 0.004927
v 0.000000 0.057085 0.004927
v 0.357909 0.057085 0.004927
v 0.357909 0.057085 0.084375
v 0.441607 0.279953 0.071926
v 0.441607 0.279953 0.004927
v 0.358425 0.266808 0.071926
v 0.358425 0.266808 0.004927
v 0.417575 0.558759 0.071926
v 0.417575 0.558759 0.004927
v 0.334393 0.545614 0.071926
v 0.334393 0.545614 0.004927
v 0.349877 0.807166 0.071926
v 0.349877 0.807166 0.004927
v 0.275748 0.767205 0.071926
v 0.275748 0.767205 0.004927
v 0.174758 0.990858 0.071926
v 0.174758 0.990858 0.004927
v 0.116087 0.930445 0.071926
v 0.116087 0.930445 0.004927
v 0.000000 1.053698 0.071926
v 0.000000 1.053698 0.004927
v 0.000000 0.972159 0.071926
v 0.000000 0.972159 0.004927
v 0.442123 0.005830 0.895811
v 0.442123 0.057085 0.895811
v 0.000000 0.057085 0.895811
v 0.000000 0.005830 0.895811
v 0.442123 0.005830 0.794382
v 0.442123 0.005830 0.692952
v 0.442123 0.005830 0.591523
v 0.442123 0.005830 0.490093
v 0.442123 0.005830 0.388664
v 0.442123 0.005830 0.287234
v 0.442123 0.005830 0.185805
v 0.442123 0.057085 0.794382
v 0.442123 0.057085 0.692952
v 0.442123 0.057085 0.591523
v 0.442123 0.057085 0.490093
v 0.442123 0.057085 0.388664
v 0.442123 0.057085 0.287234
v 0.442123 0.057085 0.185805
v 0.000000 0.005830 0.185805
v 0.000000 0.005830 0.287234
v 0.000000 0.005830 0.388664
v 0.000000 0.005830 0.490093
v 0.000000 0.005830 0.591523
v 0.000000 0.005830 0.692952
v 0.000000 0.005830 0.794382
v 0.000000 0.057085 0.794382
v 0.000000 0.057085 0.692952
v 0.000000 0.057085 0.591523
v 0.000000 0.057085 0.490093
v 0.000000 0.057085 0.388664
v 0.000000 0.057085 0.287234
v 0.000000 0.057085 0.185805
v 0.442123 0.005830 0.191952
v 0.442123 0.057085 0.191952
v 0.000000 0.005830 0.191952
v 0.000000 0.057085 0.191952
v 0.442123 0.005830 0.293381
v 0.442123 0.057085 0.293381
v 0.000000 0.005830 0.293381
v 0.000000 0.057085 0.293381
v 0.442123 0.005830 0.394811
v 0.442123 0.057085 0.394811
v 0.000000 0.005830 0.394811
v 0.000000 0.057085 0.394811
v 0.442123 0.005830 0.497009
v 0.442123 0.057085 0.497009
v 0.000000 0.005830 0.497009
v 0.000000 0.057085 0.497009
v 0.442123 0.005830 0.598821
v 0.442123 0.057085 0.598821
v 0.000000 0.005830 0.598821
v 0.000000 0.057085 0.598821
v 0.442123 0.005830 0.699952
v 0.442123 0.057085 0.699952
v 0.000000 0.005830 0.699952
v 0.000000 0.057085 0.699952
v 0.000000 0.005830 0.802559
v 0.442123 0.005830 0.802559
v 0.442123 0.057085 0.802559
v 0.000000 0.057085 0.802559
v 0.431324 0.010338 0.191741
v 0.431324 0.010338 0.186015
v 0.431324 0.052576 0.191741
v 0.431324 0.052576 0.186015
v 0.000000 0.052576 0.191741
v 0.000000 0.052576 0.186015
v 0.000000 0.010338 0.186015
v 0.000000 0.010338 0.191741
v 0.424449 0.010112 0.293037
v 0.424449 0.010112 0.287579
v 0.424449 0.052803 0.293037
v 0.424449 0.052803 0.287579
v 0.000000 0.052803 0.293037
v 0.000000 0.052803 0.287579
v 0.000000 0.010112 0.287579
v 0.000000 0.010112 0.293037
v 0.421993 0.010648 0.394419
v 0.421993 0.010648 0.389056
v 0.421993 0.052266 0.394419
v 0.421993 0.052266 0.389056
v 0.000000 0.052266 0.394419
v 0.000000 0.052266 0.389056
v 0.000000 0.010648 0.389056
v 0.000000 0.010648 0.394418
v 0.418069 0.011715 0.496481
v 0.418069 0.011715 0.490621
v 0.418069 0.051199 0.496481
v 0.418069 0.051199 0.490621
v 0.000000 0.051199 0.496481
v 0.000000 0.051199 0.490621
v 0.000000 0.011715 0.490621
v 0.000000 0.011715 0.496481
v 0.421379 0.010546 0.598343
v 0.421379 0.010546 0.592001
v 0.421379 0.052368 0.598343
v 0.421379 0.052368 0.592001
v 0.000000 0.052368 0.598343
v 0.000000 0.052368 0.592001
v 0.000000 0.010546 0.592001
v 0.000000 0.010546 0.598343
v 0.406716 0.013968 0.699166
v 0.406716 0.013968 0.693738
v 0.406716 0.048947 0.699166
v 0.406716 0.048947 0.693738
v 0.000000 0.048947 0.699166
v 0.000000 0.048947 0.693738
v 0.000000 0.013968 0.693738
v 0.000000 0.013968 0.699166
v 0.411935 0.012003 0.801777
v 0.411935 0.012003 0.795165
v 0.411935 0.050911 0.801777
v 0.411935 0.050911 0.795165
v 0.000000 0.050911 0.801777
v 0.000000 0.050911 0.795165
v 0.000000 0.012003 0.795165
v 0.000000 0.012003 0.801777
vn 0.000000 1.000000 -0.000000
vn 0.000000 -1.000000 0.000000
vn -1.000000 0.000000 0.000000
vn 0.000000 0.000000 -1.000000
vn 1.000000 0.002500 0.000000
vn 0.996300 -0.085900 0.000000
vn -1.000000 0.002300 0.000000
vn 0.004500 0.057500 0.998300
vn 0.000000 0.000000 1.000000
vn -0.996300 0.085900 0.000000
vn -0.964800 0.262900 0.000000
vn 0.966700 -0.255800 0.000000
vn 0.338200 -0.941100 0.000000
vn -0.723800 0.690000 0.000000
vn 0.714900 -0.699200 0.000000
vn -0.338400 0.941000 0.000000
vn 0.000000 0.046600 0.998900
vn 0.000000 0.046600 -0.998900
vn -0.019500 0.000000 -0.999800
vn -0.019500 0.000000 0.999800
vn 0.000000 0.080200 0.996800
vn 0.000000 0.081200 0.996700
vn -0.000000 -0.081200 -0.996700
vn -0.000000 -0.089300 -0.996000
vn -0.021900 0.000000 0.999800
vn -0.021900 0.000000 -0.999800
vn 0.000000 -0.100800 0.994900
vn 0.000000 0.100800 -0.994900
vn -0.023000 0.000000 0.999700
vn -0.000000 -0.100800 -0.994900
vn -0.023000 0.000000 -0.999700
vn -0.022200 0.000000 -0.999800
vn 0.000000 -0.096100 0.995400
vn 0.000000 0.096100 0.995400
vn 0.000000 0.125800 0.992100
vn -0.025900 0.000000 -0.999700
vn -0.000000 -0.096100 -0.995400
vn -0.025900 0.000000 0.999700
vn 0.000000 -0.046600 0.998900
vn 0.000000 -0.046600 -0.998900
vn 0.000000 -0.080200 0.996800
vn -0.000000 -0.080200 -0.996800
vn 0.000000 0.080200 -0.996800
vn 0.000000 -0.081200 0.996700
vn 0.000000 0.081200 -0.996700
vn 0.000000 -0.089300 0.996000
vn 0.000000 0.089300 -0.996000
vn 0.000000 0.089300 0.996000
vn 0.000000 0.100800 0.994900
vn -0.022200 0.000000 0.999800
vn 0.000000 0.096100 -0.995400
vn 0.000000 -0.125800 0.992100
vn 0.000000 -0.125800 -0.992100
vn 0.000000 0.125800 -0.992100
vn 1.000000 0.000000 0.000000
vn -1.000000 0.002500 0.000000
vn -0.996300 -0.085900 0.000000
vn 1.000000 0.002300 0.000000
vn -0.004500 0.057500 0.998300
vn 0.996300 0.085900 0.000000
vn 0.964800 0.262900 0.000000
vn -0.966700 -0.255800 0.000000
vn -0.338200 -0.941100 0.000000
vn 0.723800 0.690000 0.000000
vn -0.714900 -0.699200 0.000000
vn 0.338400 0.941000 0.000000
vn 0.019500 0.000000 -0.999800
vn 0.019500 0.000000 0.999800
vn 0.021900 0.000000 0.999800
vn 0.021900 0.000000 -0.999800
vn 0.023000 0.000000 0.999700
vn 0.023000 0.000000 -0.999700
vn 0.022200 0.000000 -0.999800
vn 0.025900 0.000000 -0.999700
vn 0.025900 0.000000 0.999700
vn 0.022200 0.000000 0.999800
vn 0.503700 -0.515400 -0.693300
vn 0.926900 0.223900 0.301200
vn 0.000000 0.596600 0.802500
vn -0.503700 -0.515400 -0.693300
vn -0.926900 0.223900 0.301200
usemtl LightWood
s off
f 4//1 2//1 10//1 8//1 6//1
f 1//2 3//2 5//2 7//2 9//2
f 12//3 14//3 13//3 11//3
f 62//3 61//3 33//3 34//3
f 15//4 108//4 107//4 13//4 14//4
f 16//5 15//5 20//5 19//5
f 13//2 107//2 105//2 11//2
f 19//6 20//6 24//6 23//6
f 14//7 12//7 17//7 18//7
f 15//4 14//4 18//4 20//4
f 12//8 16//8 19//8 17//8
f 24//4 22//4 26//4 28//4
f 17//9 19//9 23//9 21//9
f 20//4 18//4 22//4 24//4
f 18//10 17//10 21//10 22//10
f 28//4 26//4 30//4 32//4
f 22//11 21//11 25//11 26//11
f 23//12 24//12 28//12 27//12
f 21//9 23//9 27//9 25//9
f 31//13 32//13 130//13 129//13
f 26//14 25//14 29//14 30//14
f 27//15 28//15 32//15 31//15
f 25//9 27//9 31//9 29//9
f 29//9 31//9 129//9 127//9
f 32//4 30//4 128//4 130//4
f 30//16 29//16 127//16 128//16
f 34//9 33//9 134//9 133//9
f 62//1 34//1 133//1 190//1
f 187//2 134//2 33//2 61//2
f 106//1 108//1 15//1 16//1
f 166//1 50//1 47//1 161//1
f 170//1 52//1 46//1 160//1
f 174//1 54//1 45//1 159//1
f 178//1 56//1 44//1 158//1
f 182//1 58//1 43//1 157//1
f 186//1 60//1 42//1 156//1
f 11//2 105//2 149//2 41//2
f 49//2 165//2 150//2 40//2
f 51//2 169//2 151//2 39//2
f 53//2 173//2 152//2 38//2
f 55//2 177//2 153//2 37//2
f 57//2 181//2 154//2 36//2
f 59//2 185//2 155//2 35//2
f 12//3 11//3 41//3 48//3
f 50//3 49//3 40//3 47//3
f 52//3 51//3 39//3 46//3
f 54//3 53//3 38//3 45//3
f 56//3 55//3 37//3 44//3
f 58//3 57//3 36//3 43//3
f 60//3 59//3 35//3 42//3
f 162//17 48//17 66//17 196//17
f 166//18 195//18 65//18 50//18
f 49//19 50//19 65//19 63//19
f 48//20 41//20 64//20 66//20
f 47//21 70//21 204//21 161//21
f 47//20 40//20 68//20 70//20
f 51//19 52//19 69//19 67//19
f 46//22 74//22 212//22 160//22
f 173//23 53//23 71//23 214//23
f 46//20 39//20 72//20 74//20
f 53//19 54//19 73//19 71//19
f 177//24 55//24 75//24 222//24
f 45//25 38//25 76//25 78//25
f 55//26 56//26 77//26 75//26
f 153//27 229//27 80//27 37//27
f 182//28 227//28 81//28 58//28
f 44//29 37//29 80//29 82//29
f 181//30 57//30 79//30 230//30
f 57//31 58//31 81//31 79//31
f 59//32 60//32 85//32 83//32
f 154//33 237//33 84//33 36//33
f 157//34 43//34 86//34 236//34
f 156//35 42//35 90//35 244//35
f 61//36 62//36 89//36 87//36
f 185//37 59//37 83//37 238//37
f 42//38 35//38 88//38 90//38
f 66//3 64//3 63//3 65//3
f 149//39 197//39 64//39 41//39
f 66//1 65//1 195//1 196//1
f 64//2 197//2 198//2 63//2
f 165//40 49//40 63//40 198//40
f 16//1 12//1 48//1 162//1 106//1
f 70//3 68//3 67//3 69//3
f 150//41 205//41 68//41 40//41
f 70//1 69//1 203//1 204//1
f 68//2 205//2 206//2 67//2
f 169//42 51//42 67//42 206//42
f 170//43 203//43 69//43 52//43
f 74//3 72//3 71//3 73//3
f 151//44 213//44 72//44 39//44
f 74//1 73//1 211//1 212//1
f 72//2 213//2 214//2 71//2
f 174//45 211//45 73//45 54//45
f 78//3 76//3 75//3 77//3
f 152//46 221//46 76//46 38//46
f 78//1 77//1 219//1 220//1
f 76//2 221//2 222//2 75//2
f 178//47 219//47 77//47 56//47
f 45//48 78//48 220//48 159//48
f 82//3 80//3 79//3 81//3
f 82//1 81//1 227//1 228//1
f 80//2 229//2 230//2 79//2
f 44//49 82//49 228//49 158//49
f 86//3 84//3 83//3 85//3
f 86//1 85//1 235//1 236//1
f 84//2 237//2 238//2 83//2
f 43//50 36//50 84//50 86//50
f 186//51 235//51 85//51 60//51
f 88//2 245//2 246//2 87//2
f 244//1 90//1 89//1 243//1
f 155//52 245//52 88//52 35//52
f 90//3 88//3 87//3 89//3
f 187//53 61//53 87//53 246//53
f 62//54 190//54 243//54 89//54
f 94//1 96//1 98//1 100//1 92//1
f 91//2 99//2 97//2 95//2 93//2
f 102//55 101//55 103//55 104//55
f 189//55 132//55 131//55 188//55
f 109//4 104//4 103//4 107//4 108//4
f 110//56 113//56 114//56 109//56
f 103//2 101//2 105//2 107//2
f 113//57 117//57 118//57 114//57
f 104//58 112//58 111//58 102//58
f 109//4 114//4 112//4 104//4
f 102//59 111//59 113//59 110//59
f 118//4 122//4 120//4 116//4
f 111//9 115//9 117//9 113//9
f 114//4 118//4 116//4 112//4
f 112//60 116//60 115//60 111//60
f 122//4 126//4 124//4 120//4
f 116//61 120//61 119//61 115//61
f 117//62 121//62 122//62 118//62
f 115//9 119//9 121//9 117//9
f 125//63 129//63 130//63 126//63
f 120//64 124//64 123//64 119//64
f 121//65 125//65 126//65 122//65
f 119//9 123//9 125//9 121//9
f 129//3 127//3 128//3 130//3
f 123//9 127//9 129//9 125//9
f 126//4 130//4 128//4 124//4
f 124//66 128//66 127//66 123//66
f 132//9 133//9 134//9 131//9
f 189//1 190//1 133//1 132//1
f 187//2 188//2 131//2 134//2
f 106//1 110//1 109//1 108//1
f 166//1 161//1 147//1 164//1
f 170//1 160//1 146//1 168//1
f 174//1 159//1 145//1 172//1
f 178//1 158//1 144//1 176//1
f 182//1 157//1 143//1 180//1
f 186//1 156//1 142//1 184//1
f 101//2 141//2 149//2 105//2
f 163//2 140//2 150//2 165//2
f 167//2 139//2 151//2 169//2
f 171//2 138//2 152//2 173//2
f 175//2 137//2 153//2 177//2
f 179//2 136//2 154//2 181//2
f 183//2 135//2 155//2 185//2
f 102//55 148//55 141//55 101//55
f 164//55 147//55 140//55 163//55
f 168//55 146//55 139//55 167//55
f 172//55 145//55 138//55 171//55
f 176//55 144//55 137//55 175//55
f 180//55 143//55 136//55 179//55
f 184//55 142//55 135//55 183//55
f 162//17 196//17 194//17 148//17
f 166//18 164//18 193//18 195//18
f 163//67 191//67 193//67 164//67
f 148//68 194//68 192//68 141//68
f 147//21 161//21 204//21 202//21
f 147//68 202//68 200//68 140//68
f 167//67 199//67 201//67 168//67
f 146//22 160//22 212//22 210//22
f 173//23 214//23 207//23 171//23
f 146//68 210//68 208//68 139//68
f 171//67 207//67 209//67 172//67
f 177//24 222//24 215//24 175//24
f 145//69 218//69 216//69 138//69
f 175//70 215//70 217//70 176//70
f 153//27 137//27 224//27 229//27
f 182//28 180//28 225//28 227//28
f 144//71 226//71 224//71 137//71
f 181//30 230//30 223//30 179//30
f 179//72 223//72 225//72 180//72
f 183//73 231//73 233//73 184//73
f 154//33 136//33 232//33 237//33
f 157//34 236//34 234//34 143//34
f 156//35 244//35 242//35 142//35
f 188//74 239//74 241//74 189//74
f 185//37 238//37 231//37 183//37
f 142//75 242//75 240//75 135//75
f 194//55 193//55 191//55 192//55
f 149//39 141//39 192//39 197//39
f 194//1 196//1 195//1 193//1
f 192//2 191//2 198//2 197//2
f 165//40 198//40 191//40 163//40
f 110//1 106//1 162//1 148//1 102//1
f 202//55 201//55 199//55 200//55
f 150//41 140//41 200//41 205//41
f 202//1 204//1 203//1 201//1
f 200//2 199//2 206//2 205//2
f 169//42 206//42 199//42 167//42
f 170//43 168//43 201//43 203//43
f 210//55 209//55 207//55 208//55
f 151//44 139//44 208//44 213//44
f 210//1 212//1 211//1 209//1
f 208//2 207//2 214//2 213//2
f 174//45 172//45 209//45 211//45
f 218//55 217//55 215//55 216//55
f 152//46 138//46 216//46 221//46
f 218//1 220//1 219//1 217//1
f 216//2 215//2 222//2 221//2
f 178//47 176//47 217//47 219//47
f 145//48 159//48 220//48 218//48
f 226//55 225//55 223//55 224//55
f 226//1 228//1 227//1 225//1
f 224//2 223//2 230//2 229//2
f 144//49 158//49 228//49 226//49
f 234//55 233//55 231//55 232//55
f 234//1 236//1 235//1 233//1
f 232//2 231//2 238//2 237//2
f 143//76 234//76 232//76 136//76
f 186//51 184//51 233//51 235//51
f 240//2 239//2 246//2 245//2
f 244//1 243//1 241//1 242//1
f 155//52 135//52 240//52 245//52
f 242//55 241//55 239//55 240//55
f 187//53 246//53 239//53 188//53
f 189//54 241//54 243//54 190//54
usemtl Material.006
f 1//77 2//77 4//77 3//77
f 3//78 4//78 6//78 5//78
f 5//79 6//79 8//79 7//79
f 9//80 10//80 2//80 1//80
f 7//81 8//81 10//81 9//81
f 91//80 93//80 94//80 92//80
f 93//81 95//81 96//81 94//81
f 95//79 97//79 98//79 96//79
f 99//77 91//77 92//77 100//77
f 97//78 99//78 100//78 98//78
