# Blender v2.76 (sub 0) OBJ File: 'Door.blend'
# www.blender.org
mtllib Door.mtl
o Door_Cube.008
v -0.445394 0.001336 0.065573
v -0.361180 0.001336 0.065573
v -0.444878 0.224204 0.053124
v -0.361696 0.211059 0.053124
v -0.420846 0.503010 0.053124
v -0.337665 0.489865 0.053124
v -0.350274 0.780591 0.053124
v -0.281892 0.731439 0.053124
v -0.178029 0.935110 0.053124
v -0.119358 0.874696 0.053124
v -0.445394 0.001336 -0.055387
v -0.361180 0.001336 -0.055387
v -0.444878 0.224204 -0.055387
v -0.361696 0.211059 -0.055387
v -0.420846 0.503010 -0.055387
v -0.337665 0.489865 -0.055387
v -0.350274 0.780591 -0.055387
v -0.281892 0.731439 -0.055387
v -0.178029 0.935110 -0.055387
v -0.119358 0.874696 -0.055387
v 0.445394 0.001336 0.065573
v 0.361180 0.001336 0.065573
v 0.444878 0.224204 0.053124
v 0.361696 0.211059 0.053124
v 0.420846 0.503010 0.053124
v 0.337665 0.489865 0.053124
v 0.350274 0.780591 0.053124
v 0.281892 0.731439 0.053124
v 0.178029 0.935110 0.053124
v 0.119358 0.874696 0.053124
v 0.445394 0.001336 -0.055387
v 0.361180 0.001336 -0.055387
v 0.444878 0.224204 -0.055387
v 0.361696 0.211059 -0.055387
v 0.420846 0.503010 -0.055387
v 0.337665 0.489865 -0.055387
v 0.350274 0.780591 -0.055387
v 0.281892 0.731439 -0.055387
v 0.178029 0.935110 -0.055387
v 0.119358 0.874696 -0.055387
v -0.000000 0.997949 0.053124
v -0.000000 0.916411 0.053124
v -0.000000 0.997949 -0.055387
v -0.000000 0.916411 -0.055387
vn -0.329900 -0.944000 0.000000
vn -0.974400 -0.225000 0.000000
vn -0.996300 -0.085900 0.000000
vn 0.329900 -0.944000 0.000000
vn -1.000000 0.002500 0.000000
vn -0.661200 -0.750200 0.000000
vn 0.661200 -0.750200 0.000000
vn 0.974400 -0.225000 0.000000
vn 0.996300 -0.085900 0.000000
vn 1.000000 0.002500 0.000000
vn -0.996300 0.085900 0.000000
vn -0.667800 0.744400 0.000000
vn -0.332800 0.943000 0.000000
vn -0.969200 0.246400 0.000000
vn -1.000000 0.002300 0.000000
vn -0.000000 0.000000 -1.000000
vn 0.000000 0.000000 1.000000
vn 0.000000 -1.000000 0.000000
vn 0.996300 0.085900 0.000000
vn 0.667800 0.744400 0.000000
vn 0.332800 0.943000 0.000000
vn 0.969200 0.246400 0.000000
vn 1.000000 0.002300 0.000000
vn -0.004500 0.057500 0.998300
vn 0.004500 0.057500 0.998300
usemtl LightWood
s off
f 40//1 30//1 42//1 44//1
f 28//2 38//2 36//2 26//2
f 26//3 36//3 34//3 24//3
f 44//4 42//4 10//4 20//4
f 34//5 32//5 22//5 24//5
f 30//6 40//6 38//6 28//6
f 8//7 18//7 20//7 10//7
f 6//8 16//8 18//8 8//8
f 6//9 4//9 14//9 16//9
f 4//10 2//10 12//10 14//10
usemtl DarkWood
f 5//11 15//11 13//11 3//11
f 9//12 19//12 17//12 7//12
f 9//13 41//13 43//13 19//13
f 7//14 17//14 15//14 5//14
f 3//15 13//15 11//15 1//15
f 19//16 43//16 44//16 20//16
f 12//16 11//16 13//16 14//16
f 5//17 6//17 8//17 7//17
f 22//18 32//18 31//18 21//18
f 18//16 17//16 19//16 20//16
f 14//16 13//16 15//16 16//16
f 16//16 15//16 17//16 18//16
f 23//19 33//19 35//19 25//19
f 27//20 37//20 39//20 29//20
f 29//21 39//21 43//21 41//21
f 25//22 35//22 37//22 27//22
f 21//23 31//23 33//23 23//23
f 39//16 40//16 44//16 43//16
f 21//24 23//24 24//24 22//24
f 32//16 34//16 33//16 31//16
f 23//17 25//17 26//17 24//17
f 38//16 40//16 39//16 37//16
f 34//16 36//16 35//16 33//16
f 36//16 38//16 37//16 35//16
f 1//18 11//18 12//18 2//18
f 25//17 27//17 28//17 26//17
f 7//17 8//17 10//17 9//17
f 3//17 4//17 6//17 5//17
f 10//17 42//17 41//17 9//17
f 27//17 29//17 30//17 28//17
f 1//25 2//25 4//25 3//25
f 30//17 29//17 41//17 42//17
o LeftDoor_Cube.017
v -0.363155 0.007380 0.005023
v -0.363671 0.217103 0.005023
v -0.339639 0.495909 0.005023
v -0.283867 0.737483 0.005023
v -0.121333 0.880740 0.005023
v -0.363155 0.007380 -0.036488
v -0.363671 0.217103 -0.036488
v -0.339639 0.495909 -0.036488
v -0.283867 0.737483 -0.036488
v -0.121333 0.880740 -0.036488
v -0.030197 0.007380 0.005023
v -0.030197 0.217103 0.005023
v -0.030197 0.495909 0.005023
v -0.030197 0.737483 0.005023
v -0.030197 0.880740 0.005023
v -0.030197 0.007380 -0.036488
v -0.030197 0.217103 -0.036488
v -0.030197 0.495909 -0.036488
v -0.030197 0.737483 -0.036488
v -0.030197 0.880740 -0.036488
v -0.360292 0.256305 0.005023
v -0.030197 0.256305 0.005023
v -0.329445 0.540065 0.005023
v -0.030197 0.540065 0.005023
v -0.238441 0.777522 0.005023
v -0.030197 0.777522 0.005023
v -0.080647 0.777522 0.005023
v -0.151864 0.853831 0.005023
v -0.005246 0.007380 0.005023
v -0.005246 0.217103 0.005023
v -0.005246 0.495909 0.005023
v -0.005246 0.737483 0.005023
v -0.005246 0.880740 0.005023
v -0.005246 0.007380 -0.036488
v -0.005246 0.217103 -0.036488
v -0.005246 0.495909 -0.036488
v -0.005246 0.737483 -0.036488
v -0.005246 0.880740 -0.036488
v -0.329445 0.540065 0.026695
v -0.339639 0.495909 0.026695
v -0.238441 0.777522 0.026695
v -0.283867 0.737483 0.026695
v -0.030197 0.007380 0.026695
v -0.030197 0.217103 0.026695
v -0.030197 0.256305 0.026695
v -0.030197 0.495909 0.026695
v -0.030197 0.540065 0.026695
v -0.030197 0.777522 0.026695
v -0.030197 0.737483 0.026695
v -0.030197 0.880740 0.026695
v -0.363671 0.217103 0.026695
v -0.360292 0.256305 0.026695
v -0.005246 0.217103 0.026695
v -0.005246 0.495909 0.026695
v -0.080647 0.777522 0.026695
v -0.121333 0.880740 0.026695
v -0.151864 0.853831 0.026695
v -0.005246 0.007380 0.026695
v -0.005246 0.737483 0.026695
v -0.005246 0.880740 0.026695
v -0.360217 0.257180 -0.036488
v -0.329235 0.540974 -0.036488
v -0.237842 0.778050 -0.036488
v -0.152606 0.853176 -0.036488
v -0.030197 0.915106 0.005023
v -0.030197 0.915106 -0.036488
v -0.005246 0.923592 0.005023
v -0.005246 0.923592 -0.036488
v -0.030197 0.915106 0.026695
v -0.005246 0.923592 0.026695
vn 0.000000 0.000000 1.000000
vn 0.000000 0.000000 -1.000000
vn 1.000000 0.000000 0.000000
vn 0.000000 -1.000000 0.000000
vn -0.661200 0.750200 0.000000
vn -0.974400 0.225000 0.000000
vn -0.996300 0.085900 0.000000
vn -1.000000 -0.002500 0.000000
vn -0.322000 0.946700 0.000000
vn 0.000000 1.000000 0.000000
vn -1.000000 0.000000 0.000000
vn 0.749600 0.661900 0.000000
vn -0.731100 -0.682300 0.000000
vn -0.352800 0.935700 0.000000
usemtl LightWood
s off
f 46//26 45//26 55//26 56//26
f 50//27 51//27 61//27 60//27
f 76//28 75//28 80//28 81//28
f 77//28 76//28 81//28 82//28
f 45//29 50//29 60//29 55//29
f 55//29 60//29 78//29 73//29
f 51//27 105//27 52//27 62//27 61//27
f 75//28 74//28 79//28 80//28
f 47//26 65//26 66//26 57//26
f 48//26 67//26 68//26 58//26
f 62//27 80//27 79//27 61//27
f 72//26 69//26 71//26
f 59//26 49//26 70//26
f 62//27 63//27 81//27 80//27
f 74//28 73//28 78//28 79//28
f 63//27 64//27 82//27 81//27
f 60//27 61//27 79//27 78//27
f 48//30 86//30 85//30 69//30
f 84//31 83//31 67//31 47//31
f 96//32 65//32 46//32 95//32
f 46//33 51//33 50//33 45//33
f 65//32 105//32 51//32 46//32
f 47//32 52//32 105//32 65//32
f 52//27 106//27 53//27 63//27 62//27
f 53//27 107//27 108//27 54//27 64//27 63//27
f 64//27 110//27 112//27 82//27
f 54//27 110//27 64//27
f 82//28 112//28 111//28 77//28
f 59//26 109//26 49//26
f 114//34 111//34 109//34 113//34
f 110//34 109//34 111//34 112//34
usemtl DarkWood
f 75//28 98//28 97//28 74//28
f 68//35 67//35 83//35 91//35
f 57//36 66//36 89//36 90//36
f 72//30 101//30 100//30 49//30
f 69//30 72//30 108//30 107//30
f 58//36 68//36 91//36 93//36
f 90//26 89//26 88//26 97//26 98//26
f 73//28 74//28 97//28 102//28
f 56//36 55//36 87//36 88//36
f 94//26 92//26 93//26 103//26 104//26
f 48//29 58//29 93//29 86//29
f 93//26 91//26 90//26 98//26 103//26
f 52//31 47//31 67//31 106//31
f 75//28 76//28 103//28 98//28
f 83//26 84//26 90//26 91//26
f 96//26 95//26 88//26 89//26
f 85//26 86//26 93//26 92//26 99//26
f 100//26 101//26 99//26 92//26
f 88//26 87//26 102//26 97//26
f 70//37 49//37 100//37 92//37
f 71//35 69//35 85//35 99//35
f 46//29 56//29 88//29 95//29
f 66//35 65//35 96//35 89//35
f 47//29 57//29 90//29 84//29
f 59//36 70//36 92//36 94//36
f 55//29 73//29 102//29 87//29
f 72//38 71//38 99//38 101//38
f 76//28 77//28 104//28 103//28
f 67//31 48//31 53//31 106//31
f 54//30 108//30 72//30 49//30
f 107//30 53//30 48//30 69//30
f 104//26 114//26 113//26 94//26
f 49//39 109//39 110//39 54//39
f 77//28 111//28 114//28 104//28
f 94//36 113//36 109//36 59//36
o RightDoor_Cube.015
v 0.366760 0.006163 0.005023
v 0.367276 0.215886 0.005023
v 0.343244 0.494692 0.005023
v 0.287472 0.736266 0.005023
v 0.124938 0.879523 0.005023
v 0.366760 0.006163 -0.036488
v 0.367276 0.215886 -0.036488
v 0.343244 0.494692 -0.036488
v 0.287472 0.736266 -0.036488
v 0.124938 0.879523 -0.036488
v 0.033802 0.006163 0.005023
v 0.033802 0.215886 0.005023
v 0.033802 0.494692 0.005023
v 0.033802 0.736266 0.005023
v 0.033802 0.879523 0.005023
v 0.033802 0.006163 -0.036488
v 0.033802 0.215886 -0.036488
v 0.033802 0.494692 -0.036488
v 0.033802 0.736266 -0.036488
v 0.033802 0.879523 -0.036488
v 0.363897 0.255087 0.005023
v 0.033802 0.255087 0.005023
v 0.333050 0.538848 0.005023
v 0.033802 0.538848 0.005023
v 0.242045 0.776305 0.005023
v 0.033802 0.776305 0.005023
v 0.084252 0.776305 0.005023
v 0.155469 0.852613 0.005023
v 0.008851 0.006163 0.005023
v 0.008851 0.215886 0.005023
v 0.008851 0.494692 0.005023
v 0.008851 0.736266 0.005023
v 0.008851 0.879523 0.005023
v 0.008851 0.006163 -0.036488
v 0.008851 0.215886 -0.036488
v 0.008851 0.494692 -0.036488
v 0.008851 0.736266 -0.036488
v 0.008851 0.879523 -0.036488
v 0.333050 0.538848 0.026695
v 0.343244 0.494692 0.026695
v 0.242045 0.776305 0.026695
v 0.287472 0.736266 0.026695
v 0.033802 0.006163 0.026695
v 0.033802 0.215886 0.026695
v 0.033802 0.255087 0.026695
v 0.033802 0.494692 0.026695
v 0.033802 0.538848 0.026695
v 0.033802 0.776305 0.026695
v 0.033802 0.736266 0.026695
v 0.033802 0.879523 0.026695
v 0.367276 0.215886 0.026695
v 0.363897 0.255087 0.026695
v 0.008851 0.215886 0.026695
v 0.008851 0.494692 0.026695
v 0.084252 0.776305 0.026695
v 0.124938 0.879523 0.026695
v 0.155469 0.852613 0.026695
v 0.008851 0.006163 0.026695
v 0.008851 0.736266 0.026695
v 0.008851 0.879523 0.026695
v 0.363821 0.255963 -0.036488
v 0.332840 0.539756 -0.036488
v 0.241447 0.776833 -0.036488
v 0.156211 0.851959 -0.036488
v 0.033802 0.913888 0.005023
v 0.033802 0.913888 -0.036488
v 0.008851 0.922375 0.005023
v 0.008851 0.922375 -0.036488
v 0.033802 0.913888 0.026695
v 0.008851 0.922375 0.026695
vn 0.000000 0.000000 1.000000
vn 0.000000 0.000000 -1.000000
vn -1.000000 0.000000 0.000000
vn 0.000000 -1.000000 0.000000
vn 0.661200 0.750200 0.000000
vn 0.974400 0.225000 0.000000
vn 0.996300 0.085900 0.000000
vn 1.000000 -0.002500 0.000000
vn 0.322000 0.946700 0.000000
vn 0.000000 1.000000 0.000000
vn 1.000000 0.000000 0.000000
vn -0.749600 0.661900 0.000000
vn 0.731100 -0.682300 0.000000
vn 0.352800 0.935700 0.000000
usemtl LightWood
s off
f 116//40 126//40 125//40 115//40
f 120//41 130//41 131//41 121//41
f 146//42 151//42 150//42 145//42
f 147//42 152//42 151//42 146//42
f 115//43 125//43 130//43 120//43
f 125//43 143//43 148//43 130//43
f 121//41 131//41 132//41 122//41 175//41
f 145//42 150//42 149//42 144//42
f 117//40 127//40 136//40 135//40
f 118//40 128//40 138//40 137//40
f 132//41 131//41 149//41 150//41
f 142//40 141//40 139//40
f 129//40 140//40 119//40
f 132//41 150//41 151//41 133//41
f 144//42 149//42 148//42 143//42
f 133//41 151//41 152//41 134//41
f 130//41 148//41 149//41 131//41
f 118//44 139//44 155//44 156//44
f 154//45 117//45 137//45 153//45
f 166//46 165//46 116//46 135//46
f 116//47 115//47 120//47 121//47
f 135//46 116//46 121//46 175//46
f 117//46 135//46 175//46 122//46
f 122//41 132//41 133//41 123//41 176//41
f 123//41 133//41 134//41 124//41 178//41 177//41
f 134//41 152//41 182//41 180//41
f 124//41 134//41 180//41
f 152//42 147//42 181//42 182//42
f 129//40 119//40 179//40
f 184//48 183//48 179//48 181//48
f 180//48 182//48 181//48 179//48
usemtl DarkWood
f 145//42 144//42 167//42 168//42
f 138//49 161//49 153//49 137//49
f 127//50 160//50 159//50 136//50
f 142//44 119//44 170//44 171//44
f 139//44 177//44 178//44 142//44
f 128//50 163//50 161//50 138//50
f 160//40 168//40 167//40 158//40 159//40
f 143//42 172//42 167//42 144//42
f 126//50 158//50 157//50 125//50
f 164//40 174//40 173//40 163//40 162//40
f 118//43 156//43 163//43 128//43
f 163//40 173//40 168//40 160//40 161//40
f 122//45 176//45 137//45 117//45
f 145//42 168//42 173//42 146//42
f 153//40 161//40 160//40 154//40
f 166//40 159//40 158//40 165//40
f 155//40 169//40 162//40 163//40 156//40
f 170//40 162//40 169//40 171//40
f 158//40 167//40 172//40 157//40
f 140//51 162//51 170//51 119//51
f 141//49 169//49 155//49 139//49
f 116//43 165//43 158//43 126//43
f 136//49 159//49 166//49 135//49
f 117//43 154//43 160//43 127//43
f 129//50 164//50 162//50 140//50
f 125//43 157//43 172//43 143//43
f 142//52 171//52 169//52 141//52
f 146//42 173//42 174//42 147//42
f 137//45 176//45 123//45 118//45
f 124//44 119//44 142//44 178//44
f 177//44 139//44 118//44 123//44
f 174//40 164//40 183//40 184//40
f 119//53 124//53 180//53 179//53
f 147//42 174//42 184//42 181//42
f 164//50 129//50 179//50 183//50
