# Blender v2.76 (sub 0) OBJ File: 'Dummy.blend'
# www.blender.org
mtllib Dummy.mtl
o Dummy_Cylinder.079
v 0.000000 -0.000344 -0.040441
v 0.000000 0.293272 -0.040441
v 0.042701 -0.000344 -0.020220
v 0.042701 0.293272 -0.020220
v 0.042701 -0.000344 0.020220
v 0.042701 0.293272 0.020220
v -0.000000 -0.000344 0.040441
v -0.000000 0.293272 0.040441
v -0.042701 -0.000344 0.020220
v -0.042701 0.293272 0.020220
v -0.042701 -0.000344 -0.020220
v -0.042701 0.293272 -0.020220
v 0.154457 0.314314 -0.073141
v 0.000000 0.314314 -0.146281
v 0.154457 0.314314 0.073141
v -0.000000 0.314314 0.146281
v -0.154457 0.314314 0.073141
v -0.154457 0.314314 -0.073141
v 0.146917 0.542423 -0.069570
v 0.000000 0.542423 -0.139140
v 0.146917 0.542423 0.069570
v -0.000000 0.542423 0.139140
v -0.146917 0.542423 0.069570
v -0.146917 0.542423 -0.069570
v 0.215086 0.804748 -0.101850
v 0.000000 0.804748 -0.158587
v 0.215086 0.804748 0.101850
v -0.000000 0.804748 0.158587
v -0.215086 0.804748 0.101850
v -0.215086 0.804748 -0.101850
v 0.173667 0.923365 -0.082237
v 0.000000 0.923365 -0.139686
v 0.173667 0.923365 0.082237
v -0.000000 0.923365 0.139686
v -0.173667 0.923365 0.082237
v -0.173667 0.923365 -0.082237
v 0.100679 0.923365 -0.047675
v 0.000000 0.923365 -0.095350
v 0.100679 0.923365 0.047675
v -0.000000 0.923365 0.095350
v -0.100679 0.923365 0.047675
v -0.100679 0.923365 -0.047675
v 0.113342 1.100677 -0.053671
v 0.000000 1.100677 -0.107343
v 0.113342 1.100677 0.053671
v -0.000000 1.100677 0.107343
v -0.113342 1.100677 0.053671
v -0.113342 1.100677 -0.053671
v 0.058252 1.153214 -0.027584
v -0.000000 1.153214 -0.055168
v 0.058252 1.153214 0.027584
v -0.000000 1.153214 0.055168
v -0.058252 1.153214 0.027584
v -0.058252 1.153214 -0.027584
vn 0.428000 0.000000 -0.903800
vn 1.000000 0.000000 0.000000
vn 0.428000 0.000000 0.903800
vn -0.428000 0.000000 0.903800
vn -0.428000 0.000000 -0.903800
vn -1.000000 0.000000 0.000000
vn 0.000000 -1.000000 -0.000000
vn 0.185000 -0.982700 0.000000
vn 0.427800 0.028300 -0.903400
vn -0.185000 -0.982700 0.000000
vn 0.091900 -0.976600 -0.194200
vn 0.091900 -0.976600 0.194200
vn -0.091900 -0.976600 -0.194200
vn -0.091900 -0.976600 0.194200
vn -0.967900 -0.251500 0.000000
vn -0.427800 0.028300 -0.903400
vn -0.427800 0.028300 0.903400
vn 0.999500 0.033000 0.000000
vn -0.999500 0.033000 0.000000
vn 0.427800 0.028300 0.903400
vn -0.276100 0.200800 -0.939900
vn 0.326400 -0.134700 0.935600
vn 0.326400 -0.134700 -0.935600
vn -0.326400 -0.134700 -0.935600
vn -0.326400 -0.134700 0.935600
vn 0.967900 -0.251500 0.000000
vn 0.000000 1.000000 0.000000
vn -0.276100 0.200800 0.939900
vn 0.944100 0.329700 0.000000
vn -0.944100 0.329700 0.000000
vn 0.276100 0.200800 0.939900
vn 0.276100 0.200800 -0.939900
vn -0.427200 -0.061000 -0.902100
vn -0.997500 -0.071200 0.000000
vn 0.427200 -0.061000 0.902100
vn -0.427200 -0.061000 0.902100
vn 0.997500 -0.071200 0.000000
vn -0.318500 0.668000 -0.672600
vn -0.318500 0.668000 0.672600
vn 0.690100 0.723700 0.000000
vn -0.690100 0.723700 0.000000
vn 0.318500 0.668000 0.672600
vn 0.318500 0.668000 -0.672600
vn 0.427200 -0.061000 -0.902100
usemtl DarkWood
s off
f 1//1 2//1 4//1 3//1
f 3//2 4//2 6//2 5//2
f 5//3 6//3 8//3 7//3
f 7//4 8//4 10//4 9//4
f 11//5 12//5 2//5 1//5
f 9//6 10//6 12//6 11//6
f 1//7 3//7 5//7 7//7 9//7 11//7
usemtl Leather
f 6//8 4//8 13//8 15//8
f 13//9 14//9 20//9 19//9
f 12//10 10//10 17//10 18//10
f 4//11 2//11 14//11 13//11
f 8//12 6//12 15//12 16//12
f 2//13 12//13 18//13 14//13
f 10//14 8//14 16//14 17//14
f 24//15 23//15 29//15 30//15
f 14//16 18//16 24//16 20//16
f 17//17 16//17 22//17 23//17
f 15//18 13//18 19//18 21//18
f 18//19 17//19 23//19 24//19
f 16//20 15//20 21//20 22//20
f 26//21 30//21 36//21 32//21
f 22//22 21//22 27//22 28//22
f 19//23 20//23 26//23 25//23
f 20//24 24//24 30//24 26//24
f 23//25 22//25 28//25 29//25
f 21//26 19//26 25//26 27//26
f 36//27 35//27 41//27 42//27
f 29//28 28//28 34//28 35//28
f 27//29 25//29 31//29 33//29
f 30//30 29//30 35//30 36//30
f 28//31 27//31 33//31 34//31
f 25//32 26//32 32//32 31//32
f 34//27 33//27 39//27 40//27
f 31//27 32//27 38//27 37//27
f 32//27 36//27 42//27 38//27
f 35//27 34//27 40//27 41//27
f 33//27 31//27 37//27 39//27
f 42//33 48//33 44//33 38//33
f 42//34 41//34 47//34 48//34
f 39//35 45//35 46//35 40//35
f 40//36 46//36 47//36 41//36
f 37//37 43//37 45//37 39//37
f 44//38 48//38 54//38 50//38
f 49//27 50//27 54//27 53//27 52//27 51//27
f 47//39 46//39 52//39 53//39
f 45//40 43//40 49//40 51//40
f 48//41 47//41 53//41 54//41
f 46//42 45//42 51//42 52//42
f 43//43 44//43 50//43 49//43
f 38//44 44//44 43//44 37//44
