# Blender v2.76 (sub 0) OBJ File: 'LargeSimpleTower.blend'
# www.blender.org
mtllib LargeSimpleTower.mtl
o LargeSimpleTower_Cube.034
v 0.268513 0.535342 -0.290075
v 0.298155 0.471301 -0.322211
v -0.294040 0.471301 -0.322211
v -0.264506 0.535341 -0.290075
v -0.051299 0.847940 -0.290075
v 0.055305 0.847940 -0.290075
v 0.268513 0.535342 0.288456
v 0.298155 0.471301 0.320548
v -0.204944 0.256670 -0.322211
v -0.108388 0.256670 -0.322211
v -0.044876 0.182273 -0.322211
v 0.051679 0.182273 -0.322211
v 0.150574 0.143055 -0.322211
v 0.247130 0.143055 -0.322211
v 0.298155 0.009504 -0.322211
v -0.294040 0.009504 -0.322211
v 0.247130 0.197326 -0.322211
v 0.150574 0.197326 -0.322211
v 0.051679 0.236544 -0.322211
v -0.044876 0.236544 -0.322211
v -0.108388 0.310941 -0.322211
v -0.204944 0.310941 -0.322211
v -0.294040 0.471301 0.320548
v -0.264506 0.535341 0.288456
v 0.268513 1.287794 -0.290075
v 0.055305 0.999470 -0.290075
v -0.264506 1.287794 -0.290075
v -0.051299 0.999470 -0.290075
v -0.042181 0.860900 -0.240596
v 0.046188 0.860900 -0.240596
v 0.268513 0.847940 -0.058663
v 0.268513 0.847940 0.057043
v 0.298155 0.009504 0.320548
v 0.298155 0.143055 0.207031
v 0.298155 0.197326 0.207031
v 0.298155 0.197326 0.110475
v 0.298155 0.227034 0.011581
v 0.298155 0.281305 0.011581
v 0.298155 0.281305 -0.084974
v 0.298155 0.227034 -0.084974
v 0.298155 0.100006 -0.148486
v 0.298155 0.154277 -0.148486
v 0.298155 0.154277 -0.245041
v 0.298155 0.100006 -0.245041
v 0.298155 0.143055 0.110475
v -0.294040 0.009504 0.320548
v -0.294040 0.250855 0.207056
v -0.294040 0.250855 0.110500
v -0.294040 0.103501 0.011605
v -0.294040 0.103501 -0.084950
v -0.294040 0.157773 -0.084950
v -0.294040 0.191715 -0.148462
v -0.294040 0.191715 -0.245017
v -0.294040 0.245986 -0.245017
v -0.294040 0.245986 -0.148462
v -0.294040 0.157773 0.011605
v -0.294040 0.305127 0.110500
v -0.294040 0.305127 0.207056
v -0.264506 0.847940 0.057043
v -0.264506 0.847940 -0.058663
v 0.268513 0.999470 -0.058663
v 0.046188 0.986510 -0.240596
v -0.264506 0.999470 -0.058663
v -0.042181 0.986510 -0.240596
v 0.268513 1.287794 0.288456
v 0.268513 0.999470 0.057043
v 0.222926 0.860900 -0.048767
v 0.222926 0.860900 0.047148
v 0.055305 0.847940 0.288456
v -0.051299 0.847940 0.288456
v -0.204842 0.123108 0.320548
v -0.204842 0.177379 0.320548
v -0.108286 0.177379 0.320548
v -0.044775 0.263662 0.320548
v -0.044775 0.317933 0.320548
v 0.051781 0.317933 0.320548
v 0.051781 0.263662 0.320548
v 0.150676 0.143055 0.320548
v 0.150676 0.197326 0.320548
v 0.247231 0.197326 0.320548
v 0.247231 0.143055 0.320548
v -0.108286 0.123108 0.320548
v -0.264506 1.287794 0.288456
v -0.264506 0.999470 0.057043
v -0.218920 0.860900 0.047148
v -0.218920 0.860900 -0.048767
v -0.051299 1.595200 -0.290075
v 0.055305 1.595200 -0.290075
v 0.222926 0.986510 -0.048767
v -0.218920 0.986510 -0.048767
v 0.055305 0.999470 0.288456
v 0.222926 0.986510 0.047148
v -0.051299 0.999470 0.288456
v 0.046188 0.860900 0.238977
v -0.042181 0.860900 0.238977
v -0.218920 0.986510 0.047148
v 0.268513 2.041046 -0.290075
v 0.055305 1.746729 -0.290075
v -0.264506 2.041046 -0.290075
v -0.051299 1.746729 -0.290075
v -0.042181 1.608159 -0.240596
v 0.046188 1.608159 -0.240596
v 0.268513 1.595200 -0.058663
v 0.268513 1.595200 0.057043
v -0.264506 1.595200 0.057043
v -0.264506 1.595200 -0.058663
v 0.046188 0.986510 0.238977
v -0.042181 0.986510 0.238977
v 0.268513 1.746729 -0.058663
v 0.046188 1.733770 -0.240596
v -0.264506 1.746729 -0.058663
v -0.042181 1.733770 -0.240596
v 0.268513 2.041046 0.288456
v 0.268513 1.746729 0.057043
v 0.222926 1.608159 -0.048767
v 0.222926 1.608159 0.047148
v -0.264506 2.041046 0.288456
v -0.264506 1.746729 0.057043
v -0.218920 1.608159 0.047148
v -0.218920 1.608159 -0.048767
v 0.055305 1.595200 0.288456
v -0.051299 1.595200 0.288456
v -0.051299 2.354444 -0.290075
v 0.055305 2.354444 -0.290075
v 0.222926 1.733770 -0.048767
v -0.218920 1.733770 -0.048767
v 0.055305 1.746729 0.288456
v 0.222926 1.733770 0.047148
v -0.051299 1.746729 0.288456
v -0.218920 1.733770 0.047148
v 0.046188 1.608159 0.238977
v -0.042181 1.608159 0.238977
v 0.268513 2.799491 -0.290075
v 0.055305 2.505973 -0.290075
v -0.264506 2.799491 -0.290075
v -0.051299 2.505973 -0.290075
v -0.042181 2.367403 -0.240596
v 0.046188 2.367403 -0.240596
v 0.268513 2.354444 -0.058663
v 0.268513 2.354444 0.057043
v -0.264506 2.354444 0.057043
v -0.264506 2.354444 -0.058663
v 0.046188 1.733770 0.238977
v -0.042181 1.733770 0.238977
v 0.268513 2.505973 -0.058663
v 0.046188 2.493013 -0.240596
v -0.264506 2.505973 -0.058663
v -0.042181 2.493013 -0.240596
v 0.268513 2.799491 0.288456
v 0.268513 2.505973 0.057043
v 0.222926 2.367403 -0.048767
v 0.222926 2.367403 0.047148
v -0.264506 2.799491 0.288456
v -0.264506 2.505973 0.057043
v -0.218920 2.367403 0.047148
v -0.218920 2.367403 -0.048767
v 0.055305 2.354444 0.288456
v -0.051299 2.354444 0.288456
v -0.346122 2.804966 -0.378660
v 0.350129 2.804966 -0.378660
v 0.222926 2.493013 -0.048767
v -0.218920 2.493013 -0.048767
v 0.055305 2.505973 0.288456
v 0.222926 2.493013 0.047148
v -0.051299 2.505973 0.288456
v -0.218920 2.493013 0.047148
v 0.046188 2.367403 0.238977
v -0.042181 2.367403 0.238977
v -0.346122 2.804966 0.377040
v -0.346122 2.958242 -0.378660
v 0.350129 2.958242 -0.378660
v 0.350129 2.804966 0.377040
v 0.046188 2.493013 0.238977
v -0.042181 2.493013 0.238977
v -0.346122 2.958242 0.377040
v 0.350129 2.958242 0.377040
v -0.380849 2.958242 -0.416352
v 0.384856 2.958242 -0.416352
v -0.380849 2.958242 0.414733
v 0.384856 2.958242 0.414733
v -0.380849 3.115661 -0.416352
v 0.384856 3.115661 -0.416352
v -0.380849 3.115661 0.414733
v 0.384856 3.115661 0.414733
v 0.002003 3.700247 -0.000810
v -0.304091 0.245986 -0.148611
v -0.304091 0.191715 -0.148611
v -0.302658 0.245986 -0.245145
v -0.302658 0.191715 -0.245145
v -0.304090 0.157773 0.011456
v -0.304090 0.103501 0.011456
v -0.302658 0.157773 -0.085078
v -0.302658 0.103501 -0.085078
v -0.304090 0.305127 0.206907
v -0.304090 0.250855 0.206907
v -0.302658 0.305127 0.110372
v -0.302658 0.250855 0.110372
v 0.309299 0.143055 0.207196
v 0.309299 0.197326 0.207196
v 0.308203 0.143055 0.110625
v 0.308203 0.197326 0.110625
v 0.309298 0.227034 0.011746
v 0.309298 0.281305 0.011746
v 0.308203 0.227034 -0.084825
v 0.308203 0.281305 -0.084825
v 0.309298 0.100006 -0.148321
v 0.309298 0.154277 -0.148321
v 0.308203 0.100006 -0.244892
v 0.308203 0.154277 -0.244892
v -0.108156 0.256670 -0.337857
v -0.108156 0.310941 -0.337857
v -0.204727 0.256670 -0.336762
v -0.204727 0.310941 -0.336762
v 0.051912 0.182273 -0.337857
v 0.051912 0.236544 -0.337857
v -0.044660 0.182273 -0.336762
v -0.044660 0.236544 -0.336762
v 0.247362 0.143055 -0.337857
v 0.247362 0.197326 -0.337857
v 0.150790 0.143055 -0.336762
v 0.150790 0.197326 -0.336762
v 0.247072 0.197326 0.331277
v 0.247072 0.143055 0.331277
v 0.150538 0.197326 0.329844
v 0.150538 0.143055 0.329844
v 0.051622 0.317933 0.331277
v 0.051622 0.263662 0.331277
v -0.044913 0.317933 0.329844
v -0.044913 0.263662 0.329844
v -0.108445 0.177379 0.331277
v -0.108445 0.123108 0.331277
v -0.204980 0.177379 0.329844
v -0.204980 0.123108 0.329844
vn -0.000000 0.448500 -0.893800
vn 0.000000 0.000000 -1.000000
vn 0.907500 0.420000 0.000000
vn -0.908100 0.418800 0.000000
vn 0.000000 0.967400 -0.253400
vn 1.000000 0.000000 0.000000
vn -0.000000 0.448000 0.894000
vn -1.000000 -0.000000 0.000000
vn 0.000000 -1.000000 0.000000
vn -0.983400 0.000000 -0.181200
vn 0.983400 0.000000 -0.181200
vn 0.273500 0.961900 0.000000
vn 0.000000 0.000000 1.000000
vn -0.273500 0.961900 0.000000
vn 0.000000 -0.967400 -0.253400
vn 0.212100 0.000000 0.977200
vn -0.212100 0.000000 0.977200
vn 0.212100 0.000000 -0.977200
vn 0.000000 0.967400 0.253400
vn -0.212100 0.000000 -0.977200
vn 0.273500 -0.961900 0.000000
vn -0.273500 -0.961900 0.000000
vn -0.983400 0.000000 0.181200
vn 0.983400 0.000000 0.181200
vn 0.273400 0.961900 0.000000
vn -0.273400 0.961900 0.000000
vn 0.000000 -0.967400 0.253400
vn 0.273400 -0.961900 0.000000
vn -0.273400 -0.961900 0.000000
vn -0.000000 -0.998100 -0.061700
vn -0.066900 -0.997800 -0.000000
vn 0.066900 -0.997800 0.000000
vn -0.000000 -0.998100 0.061700
vn 0.000000 0.579400 -0.815100
vn -0.836600 0.547900 0.000000
vn 0.836600 0.547900 0.000000
vn 0.000000 0.579400 0.815100
vn -0.014800 0.000000 0.999900
vn 0.000000 1.000000 0.000000
vn -0.999900 0.000000 -0.014800
vn 0.014900 0.000000 -0.999900
vn -0.014900 0.000000 0.999900
vn 0.999900 0.000000 -0.011300
vn 0.014800 0.000000 -0.999900
vn 0.999900 0.000000 0.014800
vn -0.011300 0.000000 -0.999900
vn -0.999900 0.000000 -0.014900
usemtl LightRock
s off
f 1//1 2//1 3//1 4//1
f 1//2 4//2 5//2 6//2
f 7//3 8//3 2//3 1//3
f 3//2 9//2 10//2 11//2 12//2 13//2 14//2 2//2 15//2 16//2
f 3//2 2//2 14//2 17//2 18//2 13//2 12//2 19//2 20//2 11//2 10//2 21//2 22//2 9//2
f 4//4 3//4 23//4 24//4
f 25//2 1//2 6//2 26//2
f 4//2 27//2 28//2 5//2
f 6//5 5//5 29//5 30//5
f 7//6 1//6 31//6 32//6
f 24//7 23//7 8//7 7//7
f 2//6 8//6 33//6 34//6 35//6 36//6 37//6 38//6 39//6 40//6 41//6 42//6 43//6
f 2//6 43//6 44//6 41//6 40//6 37//6 36//6 45//6 34//6 33//6 15//6
f 3//8 16//8 46//8 23//8 47//8 48//8 49//8 50//8 51//8 52//8 53//8
f 3//8 53//8 54//8 55//8 52//8 51//8 56//8 49//8 48//8 57//8 58//8 47//8 23//8
f 46//9 16//9 15//9 33//9
f 4//8 24//8 59//8 60//8
f 27//2 25//2 26//2 28//2
f 1//6 25//6 61//6 31//6
f 26//10 6//10 30//10 62//10
f 27//8 4//8 60//8 63//8
f 5//11 28//11 64//11 29//11
f 65//6 7//6 32//6 66//6
f 32//12 31//12 67//12 68//12
f 24//13 7//13 69//13 70//13
f 23//13 46//13 71//13 72//13 73//13 74//13 75//13 76//13 77//13 78//13 79//13 80//13 8//13
f 8//13 80//13 81//13 78//13 77//13 74//13 73//13 82//13 71//13 46//13 33//13
f 24//8 83//8 84//8 59//8
f 60//14 59//14 85//14 86//14
f 25//2 27//2 87//2 88//2
f 28//15 26//15 62//15 64//15
f 25//6 65//6 66//6 61//6
f 31//16 61//16 89//16 67//16
f 83//8 27//8 63//8 84//8
f 63//17 60//17 86//17 90//17
f 7//13 65//13 91//13 69//13
f 66//18 32//18 68//18 92//18
f 83//13 24//13 70//13 93//13
f 70//19 69//19 94//19 95//19
f 59//20 84//20 96//20 85//20
f 97//2 25//2 88//2 98//2
f 27//2 99//2 100//2 87//2
f 88//5 87//5 101//5 102//5
f 65//6 25//6 103//6 104//6
f 61//21 66//21 92//21 89//21
f 27//8 83//8 105//8 106//8
f 84//22 63//22 90//22 96//22
f 65//13 83//13 93//13 91//13
f 69//23 91//23 107//23 94//23
f 93//24 70//24 95//24 108//24
f 99//2 97//2 98//2 100//2
f 25//6 97//6 109//6 103//6
f 98//10 88//10 102//10 110//10
f 99//8 27//8 106//8 111//8
f 87//11 100//11 112//11 101//11
f 113//6 65//6 104//6 114//6
f 104//25 103//25 115//25 116//25
f 83//8 117//8 118//8 105//8
f 106//26 105//26 119//26 120//26
f 83//13 65//13 121//13 122//13
f 91//27 93//27 108//27 107//27
f 97//2 99//2 123//2 124//2
f 100//15 98//15 110//15 112//15
f 97//6 113//6 114//6 109//6
f 103//16 109//16 125//16 115//16
f 117//8 99//8 111//8 118//8
f 111//17 106//17 120//17 126//17
f 65//13 113//13 127//13 121//13
f 114//18 104//18 116//18 128//18
f 117//13 83//13 122//13 129//13
f 105//20 118//20 130//20 119//20
f 122//19 121//19 131//19 132//19
f 133//2 97//2 124//2 134//2
f 99//2 135//2 136//2 123//2
f 124//5 123//5 137//5 138//5
f 113//6 97//6 139//6 140//6
f 109//28 114//28 128//28 125//28
f 99//8 117//8 141//8 142//8
f 118//29 111//29 126//29 130//29
f 113//13 117//13 129//13 127//13
f 121//23 127//23 143//23 131//23
f 129//24 122//24 132//24 144//24
f 135//2 133//2 134//2 136//2
f 97//6 133//6 145//6 139//6
f 134//10 124//10 138//10 146//10
f 135//8 99//8 142//8 147//8
f 123//11 136//11 148//11 137//11
f 149//6 113//6 140//6 150//6
f 140//25 139//25 151//25 152//25
f 117//8 153//8 154//8 141//8
f 142//26 141//26 155//26 156//26
f 117//13 113//13 157//13 158//13
f 127//27 129//27 144//27 143//27
f 136//15 134//15 146//15 148//15
f 133//6 149//6 150//6 145//6
f 139//16 145//16 161//16 151//16
f 153//8 135//8 147//8 154//8
f 147//17 142//17 156//17 162//17
f 113//13 149//13 163//13 157//13
f 150//18 140//18 152//18 164//18
f 153//13 117//13 158//13 165//13
f 141//20 154//20 166//20 155//20
f 158//19 157//19 167//19 168//19
f 145//28 150//28 164//28 161//28
f 154//29 147//29 162//29 166//29
f 149//13 153//13 165//13 163//13
f 157//23 163//23 173//23 167//23
f 165//24 158//24 168//24 174//24
f 163//27 165//27 174//27 173//27
usemtl Black
f 64//2 62//2 30//2 29//2
f 89//6 92//6 68//6 67//6
f 96//8 90//8 86//8 85//8
f 107//13 108//13 95//13 94//13
f 112//2 110//2 102//2 101//2
f 125//6 128//6 116//6 115//6
f 130//8 126//8 120//8 119//8
f 143//13 144//13 132//13 131//13
f 148//2 146//2 138//2 137//2
f 161//6 164//6 152//6 151//6
f 166//8 162//8 156//8 155//8
f 173//13 174//13 168//13 167//13
usemtl Celing
f 159//30 160//30 133//30 135//30
f 169//31 159//31 135//31 153//31
f 160//2 159//2 170//2 171//2
f 160//32 172//32 149//32 133//32
f 172//33 169//33 153//33 149//33
f 159//8 169//8 175//8 170//8
f 172//6 160//6 171//6 176//6
f 171//9 170//9 177//9 178//9
f 169//13 172//13 176//13 175//13
f 170//9 175//9 179//9 177//9
f 176//9 171//9 178//9 180//9
f 178//2 177//2 181//2 182//2
f 175//9 176//9 180//9 179//9
f 177//8 179//8 183//8 181//8
f 180//6 178//6 182//6 184//6
f 182//34 181//34 185//34
f 179//13 180//13 184//13 183//13
f 181//35 183//35 185//35
f 184//36 182//36 185//36
f 183//37 184//37 185//37
usemtl DarkRock
f 55//38 186//38 187//38 52//38
f 54//39 188//39 186//39 55//39
f 186//40 188//40 189//40 187//40
f 52//9 187//9 189//9 53//9
f 53//41 189//41 188//41 54//41
f 56//38 190//38 191//38 49//38
f 51//39 192//39 190//39 56//39
f 190//40 192//40 193//40 191//40
f 49//9 191//9 193//9 50//9
f 50//41 193//41 192//41 51//41
f 58//42 194//42 195//42 47//42
f 57//39 196//39 194//39 58//39
f 194//40 196//40 197//40 195//40
f 47//9 195//9 197//9 48//9
f 48//41 197//41 196//41 57//41
f 34//38 198//38 199//38 35//38
f 45//9 200//9 198//9 34//9
f 198//43 200//43 201//43 199//43
f 35//39 199//39 201//39 36//39
f 36//41 201//41 200//41 45//41
f 37//42 202//42 203//42 38//42
f 40//9 204//9 202//9 37//9
f 202//43 204//43 205//43 203//43
f 38//39 203//39 205//39 39//39
f 39//44 205//44 204//44 40//44
f 41//38 206//38 207//38 42//38
f 44//9 208//9 206//9 41//9
f 206//43 208//43 209//43 207//43
f 42//39 207//39 209//39 43//39
f 43//44 209//44 208//44 44//44
f 10//45 210//45 211//45 21//45
f 9//9 212//9 210//9 10//9
f 210//46 212//46 213//46 211//46
f 21//39 211//39 213//39 22//39
f 22//40 213//40 212//40 9//40
f 12//45 214//45 215//45 19//45
f 11//9 216//9 214//9 12//9
f 214//46 216//46 217//46 215//46
f 19//39 215//39 217//39 20//39
f 20//40 217//40 216//40 11//40
f 14//45 218//45 219//45 17//45
f 13//9 220//9 218//9 14//9
f 218//46 220//46 221//46 219//46
f 17//39 219//39 221//39 18//39
f 18//40 221//40 220//40 13//40
f 80//45 222//45 223//45 81//45
f 79//39 224//39 222//39 80//39
f 222//38 224//38 225//38 223//38
f 81//9 223//9 225//9 78//9
f 78//40 225//40 224//40 79//40
f 76//45 226//45 227//45 77//45
f 75//39 228//39 226//39 76//39
f 226//38 228//38 229//38 227//38
f 77//9 227//9 229//9 74//9
f 74//47 229//47 228//47 75//47
f 73//45 230//45 231//45 82//45
f 72//39 232//39 230//39 73//39
f 230//38 232//38 233//38 231//38
f 82//9 231//9 233//9 71//9
f 71//40 233//40 232//40 72//40
