# Blender v2.76 (sub 0) OBJ File: 'SimpleTowerBricks.blend'
# www.blender.org
mtllib SimpleTowerBricks.mtl
o SimpleTowerBricks_Cube.043
v 0.240757 0.433721 0.258505
v -0.241364 0.433721 0.258505
v 0.240757 0.433721 -0.264782
v -0.241364 0.433721 -0.264782
v -0.295885 0.364031 0.321729
v 0.299952 0.364031 0.321729
v 0.299952 0.364031 -0.324983
v -0.295885 0.364031 -0.324983
v -0.052694 0.066242 0.321729
v -0.206011 0.066242 0.321729
v -0.295885 -0.008200 0.321729
v 0.299952 -0.008200 0.321729
v 0.184898 0.244332 0.321729
v 0.184898 0.158156 0.321729
v 0.031581 0.158156 0.321729
v -0.052694 0.152418 0.321729
v -0.206011 0.152418 0.321729
v 0.031581 0.244332 0.321729
v 0.299952 0.082982 -0.048227
v 0.299952 0.108679 0.066007
v 0.299952 0.108678 0.219324
v 0.299952 -0.008200 -0.324983
v 0.299952 0.169158 -0.201544
v 0.299952 0.082982 -0.201544
v 0.299952 0.169158 -0.048227
v 0.299952 0.194854 0.219324
v 0.299952 0.194855 0.066007
v -0.295885 0.272480 0.219329
v -0.295885 0.186304 0.219329
v -0.295885 -0.008200 -0.324983
v -0.295885 0.082982 -0.201539
v -0.295885 0.169158 -0.201539
v -0.295885 0.169158 -0.048222
v -0.295885 0.082982 -0.048222
v -0.295885 0.186304 0.066012
v -0.295885 0.272480 0.066012
v -0.050642 0.164916 -0.324983
v 0.063591 0.044302 -0.324983
v 0.216908 0.044301 -0.324983
v 0.216908 0.130478 -0.324983
v -0.203959 0.164916 -0.324983
v -0.050642 0.251092 -0.324983
v -0.203959 0.251092 -0.324983
v 0.063591 0.130478 -0.324983
v -0.308971 0.169158 -0.048416
v -0.308971 0.082982 -0.048416
v -0.306695 0.169158 -0.201699
v -0.306695 0.082982 -0.201699
v -0.314045 0.272480 0.219060
v -0.314045 0.186304 0.219060
v -0.311770 0.272480 0.065776
v -0.311770 0.186304 0.065776
v 0.313212 0.108678 0.219521
v 0.313212 0.194854 0.219521
v 0.311473 0.108679 0.066177
v 0.311473 0.194855 0.066177
v 0.318287 0.082982 -0.047955
v 0.318287 0.169158 -0.047955
v 0.316549 0.082982 -0.201298
v 0.316549 0.169158 -0.201298
v -0.050354 0.164916 -0.344351
v -0.050354 0.251092 -0.344351
v -0.203697 0.164916 -0.342614
v -0.203697 0.251092 -0.342614
v 0.217120 0.044301 -0.339277
v 0.217120 0.130478 -0.339277
v 0.063778 0.044302 -0.337538
v 0.063778 0.130478 -0.337538
v 0.184635 0.244332 0.339425
v 0.184635 0.158156 0.339425
v 0.031352 0.244332 0.337149
v 0.031352 0.158156 0.337149
v -0.052882 0.152418 0.334350
v -0.052882 0.066242 0.334350
v -0.206165 0.152418 0.332074
v -0.206165 0.066242 0.332074
v -0.300079 1.819557 -0.328511
v -0.300079 1.819557 0.322233
v 0.299472 1.819557 -0.328510
v -0.300079 1.819557 -0.328511
v 0.299472 1.819557 0.322233
v 0.299472 1.819557 -0.328510
v -0.300079 1.819557 0.322233
v 0.299472 1.819557 0.322233
v -0.224662 1.819820 -0.246653
v -0.224661 1.819820 0.240376
v 0.224055 1.819819 -0.246653
v 0.224055 1.819819 0.240376
v -0.224662 0.510071 -0.246653
v -0.224661 0.510071 0.240376
v 0.224055 0.510071 -0.246653
v 0.224055 0.510071 0.240376
v 0.299472 1.999965 0.322233
v -0.300079 1.999965 0.322233
v 0.299472 1.999965 -0.328510
v -0.300079 1.999965 -0.328511
v 0.319532 2.007268 0.344006
v 0.319532 2.007268 -0.350283
v -0.320139 2.007268 0.344006
v -0.320139 2.007268 -0.350283
v -0.000303 2.655052 -0.003139
v -0.320139 2.163218 -0.350283
v 0.319532 2.163218 -0.350283
v 0.319532 2.163218 0.344006
v -0.320139 2.163218 0.344006
v -0.045175 1.547414 0.240376
v 0.044568 1.547414 0.240376
v -0.045175 1.285464 0.240376
v 0.044568 1.285464 0.240376
v -0.224661 1.547414 -0.051841
v -0.224661 1.547414 0.045564
v -0.224661 1.285464 -0.051841
v -0.224661 1.285464 0.045564
v 0.224055 1.547414 0.045565
v 0.224055 1.547414 -0.051841
v 0.224055 1.285464 -0.051841
v 0.224055 1.285464 0.045565
v 0.044568 1.547414 -0.246653
v -0.045175 1.547414 -0.246653
v -0.045175 1.285464 -0.246653
v 0.044568 1.285464 -0.246653
v -0.037794 1.525870 0.200320
v 0.037187 1.525870 0.200320
v -0.037794 1.307009 0.200320
v 0.037187 1.307009 0.200320
v -0.187757 1.525870 -0.043830
v -0.187756 1.525870 0.037553
v -0.187757 1.307009 -0.043830
v -0.187756 1.307009 0.037553
v 0.187150 1.525870 0.037553
v 0.187150 1.525870 -0.043830
v 0.187150 1.307008 -0.043830
v 0.187150 1.307008 0.037553
v 0.037187 1.525870 -0.206597
v -0.037794 1.525870 -0.206597
v -0.037794 1.307009 -0.206597
v 0.037187 1.307009 -0.206597
vn -0.000000 0.671900 0.740600
vn 0.762200 0.647400 0.000000
vn -0.787600 0.616200 0.000000
vn 0.000000 0.000000 1.000000
vn 0.000000 0.653700 -0.756700
vn 1.000000 -0.000000 0.000000
vn -1.000000 0.000000 0.000000
vn 0.000000 -1.000000 0.000000
vn 0.000000 0.000000 -1.000000
vn 0.003500 -1.000000 -0.000000
vn -0.000000 -1.000000 0.003200
vn -0.003500 -1.000000 0.000000
vn -0.000000 -1.000000 -0.003200
vn 0.000000 0.231000 -0.972900
vn -0.000000 0.231000 0.972900
vn -0.342100 -0.939700 0.000000
vn -0.000000 -0.948100 0.318000
vn -0.000000 -0.948100 -0.318000
vn 0.342100 -0.939700 0.000000
vn 0.212100 0.000000 -0.977200
vn 0.000000 0.880700 0.473700
vn 0.983400 0.000000 -0.181200
vn -0.504200 0.863600 0.000000
vn -0.212100 0.000000 -0.977200
vn -0.983400 0.000000 -0.181200
vn 0.504200 0.863600 0.000000
vn 0.000000 0.880700 -0.473700
vn -0.000000 -0.880700 0.473700
vn -0.504200 -0.863600 0.000000
vn 0.983400 0.000000 0.181200
vn 0.504200 -0.863600 0.000000
vn -0.212100 0.000000 0.977200
vn -0.000000 -0.880700 -0.473700
vn -0.983400 0.000000 0.181200
vn 0.212100 0.000000 0.977200
vn 0.976900 0.213700 0.000000
vn -0.976900 0.213700 0.000000
vn -0.014900 0.000000 0.999900
vn 0.000000 1.000000 0.000000
vn -0.999900 0.000000 -0.014800
vn 0.014800 0.000000 -0.999900
vn -0.014800 0.000000 0.999900
vn 0.999900 0.000000 -0.011300
vn 0.999900 0.000000 0.014900
vn -0.011300 0.000000 -0.999900
vn 0.999900 0.000000 0.014800
vn 0.000000 0.576600 -0.817000
vn 0.838300 0.545200 0.000000
vn -0.838300 0.545200 0.000000
vn 0.000000 0.576600 0.817000
usemtl LightRock.002
s off
f 2//1 5//1 6//1 1//1
f 1//2 6//2 7//2 3//2
f 4//3 8//3 5//3 2//3
f 9//4 10//4 11//4 12//4 6//4 13//4 14//4 15//4 16//4
f 10//4 17//4 16//4 15//4 18//4 13//4 6//4 5//4 11//4
f 3//5 7//5 8//5 4//5
f 19//6 20//6 21//6 12//6 22//6 7//6 23//6 24//6
f 19//6 25//6 23//6 7//6 6//6 12//6 21//6 26//6 27//6 20//6
f 28//7 29//7 5//7 8//7 30//7 31//7 32//7 33//7 34//7 35//7 36//7
f 29//7 35//7 34//7 31//7 30//7 11//7 5//7
f 11//8 30//8 22//8 12//8
f 37//9 38//9 39//9 40//9 7//9 22//9 30//9 41//9
f 37//9 42//9 43//9 41//9 30//9 8//9 7//9 40//9 44//9 38//9
f 77//4 80//4 83//4 78//4
f 80//4 77//4 79//4 82//4
f 78//4 83//4 84//4 81//4
f 81//4 84//4 82//4 79//4
f 83//10 80//10 85//10 86//10
f 80//11 82//11 87//11 85//11
f 82//12 84//12 88//12 87//12
f 84//13 83//13 86//13 88//13
f 89//7 90//7 113//7 112//7
f 85//9 87//9 118//9 119//9
f 88//6 92//6 117//6 114//6
f 90//4 92//4 109//4 108//4
f 91//14 3//14 4//14 89//14
f 90//15 2//15 1//15 92//15
f 96//16 94//16 99//16 100//16
f 82//9 80//9 96//9 95//9
f 84//6 82//6 95//6 93//6
f 83//4 84//4 93//4 94//4
f 80//7 83//7 94//7 96//7
f 94//17 93//17 97//17 99//17
f 95//18 96//18 100//18 98//18
f 93//19 95//19 98//19 97//19
f 114//20 117//20 133//20 130//20
f 92//4 88//4 107//4 109//4
f 88//4 86//4 106//4 107//4
f 86//4 90//4 108//4 106//4
f 108//21 109//21 125//21 124//21
f 86//7 85//7 110//7 111//7
f 90//7 86//7 111//7 113//7
f 85//7 89//7 112//7 110//7
f 120//22 119//22 135//22 136//22
f 91//6 87//6 115//6 116//6
f 92//6 91//6 116//6 117//6
f 87//6 88//6 114//6 115//6
f 112//23 113//23 129//23 128//23
f 87//9 91//9 121//9 118//9
f 91//9 89//9 120//9 121//9
f 89//9 85//9 119//9 120//9
f 113//24 111//24 127//24 129//24
f 118//25 121//25 137//25 134//25
f 117//26 116//26 132//26 133//26
f 121//27 120//27 136//27 137//27
f 107//28 106//28 122//28 123//28
f 111//29 110//29 126//29 127//29
f 106//30 108//30 124//30 122//30
f 115//31 114//31 130//31 131//31
f 110//32 112//32 128//32 126//32
f 119//33 118//33 134//33 135//33
f 109//34 107//34 123//34 125//34
f 116//35 115//35 131//35 132//35
f 92//36 1//36 3//36 91//36
f 89//37 4//37 2//37 90//37
usemtl Black.002
f 123//4 122//4 124//4 125//4
f 127//7 126//7 128//7 129//7
f 131//6 130//6 133//6 132//6
f 135//9 134//9 137//9 136//9
usemtl DarkRock.001
f 33//38 45//38 46//38 34//38
f 32//39 47//39 45//39 33//39
f 45//40 47//40 48//40 46//40
f 34//8 46//8 48//8 31//8
f 31//41 48//41 47//41 32//41
f 28//42 49//42 50//42 29//42
f 36//39 51//39 49//39 28//39
f 49//40 51//40 52//40 50//40
f 29//8 50//8 52//8 35//8
f 35//41 52//41 51//41 36//41
f 21//42 53//42 54//42 26//42
f 20//8 55//8 53//8 21//8
f 53//43 55//43 56//43 54//43
f 26//39 54//39 56//39 27//39
f 27//41 56//41 55//41 20//41
f 19//42 57//42 58//42 25//42
f 24//8 59//8 57//8 19//8
f 57//43 59//43 60//43 58//43
f 25//39 58//39 60//39 23//39
f 23//41 60//41 59//41 24//41
f 37//44 61//44 62//44 42//44
f 41//8 63//8 61//8 37//8
f 61//45 63//45 64//45 62//45
f 42//39 62//39 64//39 43//39
f 43//40 64//40 63//40 41//40
f 39//46 65//46 66//46 40//46
f 38//8 67//8 65//8 39//8
f 65//45 67//45 68//45 66//45
f 40//39 66//39 68//39 44//39
f 44//40 68//40 67//40 38//40
f 13//46 69//46 70//46 14//46
f 18//39 71//39 69//39 13//39
f 69//42 71//42 72//42 70//42
f 14//8 70//8 72//8 15//8
f 15//40 72//40 71//40 18//40
f 16//44 73//44 74//44 9//44
f 17//39 75//39 73//39 16//39
f 73//42 75//42 76//42 74//42
f 9//8 74//8 76//8 10//8
f 10//40 76//40 75//40 17//40
usemtl Celing
f 99//4 97//4 104//4 105//4
f 100//7 99//7 105//7 102//7
f 97//6 98//6 103//6 104//6
f 98//9 100//9 102//9 103//9
f 103//47 102//47 101//47
f 104//48 103//48 101//48
f 102//49 105//49 101//49
f 105//50 104//50 101//50
