# Blender v2.76 (sub 0) OBJ File: 'Simpletower.blend'
# www.blender.org
mtllib Simpletower.mtl
o SimpleTower_Cube.044
v 0.240757 0.440905 0.258505
v -0.241364 0.440905 0.258505
v 0.240757 0.440905 -0.264782
v -0.241364 0.440905 -0.264782
v -0.295885 0.371215 0.321729
v 0.299952 0.371215 0.321729
v 0.299952 0.371215 -0.324983
v -0.295885 0.371215 -0.324983
v -0.295885 0.012601 -0.324983
v 0.299952 0.012601 -0.324983
v 0.299952 0.012601 0.321729
v -0.295885 0.012601 0.321729
v -0.300079 1.826741 -0.328511
v -0.300079 1.826741 0.322233
v 0.299472 1.826741 -0.328510
v -0.300079 1.826741 -0.328511
v 0.299472 1.826741 0.322233
v 0.299472 1.826741 -0.328510
v -0.300079 1.826741 0.322233
v 0.299472 1.826741 0.322233
v -0.224662 1.827004 -0.246653
v -0.224661 1.827004 0.240376
v 0.224055 1.827004 -0.246653
v 0.224055 1.827004 0.240376
v -0.224662 0.517255 -0.246653
v -0.224661 0.517255 0.240376
v 0.224055 0.517255 -0.246653
v 0.224055 0.517255 0.240376
v 0.299472 2.007149 0.322233
v -0.300079 2.007149 0.322233
v 0.299472 2.007149 -0.328510
v -0.300079 2.007149 -0.328511
v 0.319532 2.014452 0.344006
v 0.319532 2.014452 -0.350283
v -0.320139 2.014452 0.344006
v -0.320139 2.014452 -0.350283
v -0.000303 2.662236 -0.003139
v -0.320139 2.170403 -0.350283
v 0.319532 2.170402 -0.350283
v 0.319532 2.170402 0.344006
v -0.320139 2.170403 0.344006
v -0.045175 1.554598 0.240376
v 0.044568 1.554598 0.240376
v -0.045175 1.292648 0.240376
v 0.044568 1.292648 0.240376
v -0.224661 1.554598 -0.051841
v -0.224661 1.554598 0.045564
v -0.224661 1.292649 -0.051841
v -0.224661 1.292649 0.045564
v 0.224055 1.554598 0.045565
v 0.224055 1.554598 -0.051841
v 0.224055 1.292648 -0.051841
v 0.224055 1.292648 0.045565
v 0.044568 1.554598 -0.246653
v -0.045175 1.554598 -0.246653
v -0.045175 1.292648 -0.246653
v 0.044568 1.292648 -0.246653
v -0.037794 1.533054 0.200320
v 0.037187 1.533054 0.200320
v -0.037794 1.314193 0.200320
v 0.037187 1.314193 0.200320
v -0.187757 1.533054 -0.043830
v -0.187756 1.533054 0.037553
v -0.187757 1.314193 -0.043830
v -0.187756 1.314193 0.037553
v 0.187150 1.533054 0.037553
v 0.187150 1.533054 -0.043830
v 0.187150 1.314193 -0.043830
v 0.187150 1.314193 0.037553
v 0.037187 1.533054 -0.206597
v -0.037794 1.533054 -0.206597
v -0.037794 1.314193 -0.206597
v 0.037187 1.314193 -0.206597
vn -0.000000 0.671900 0.740600
vn 0.762200 0.647400 0.000000
vn -0.787600 0.616200 0.000000
vn 0.000000 0.653700 -0.756700
vn 0.000000 0.000000 -1.000000
vn 0.000000 0.000000 1.000000
vn -1.000000 0.000000 0.000000
vn 1.000000 0.000000 0.000000
vn 0.003500 -1.000000 0.000000
vn -0.000000 -1.000000 0.003200
vn -0.003500 -1.000000 0.000000
vn -0.000000 -1.000000 -0.003200
vn 0.000000 0.231000 -0.972900
vn -0.000000 0.231000 0.972900
vn -0.342100 -0.939700 0.000000
vn -0.000000 -0.948100 0.318000
vn -0.000000 -0.948100 -0.318000
vn 0.342100 -0.939700 0.000000
vn 0.212100 0.000000 -0.977200
vn 0.000000 0.880700 0.473700
vn 0.983400 0.000000 -0.181200
vn -0.504200 0.863600 0.000000
vn -0.212100 0.000000 -0.977200
vn -0.983400 0.000000 -0.181200
vn 0.504200 0.863600 0.000000
vn 0.000000 0.880700 -0.473700
vn -0.000000 -0.880700 0.473700
vn -0.504200 -0.863600 0.000000
vn 0.983400 0.000000 0.181200
vn 0.504200 -0.863600 0.000000
vn -0.212100 0.000000 0.977200
vn -0.000000 -0.880700 -0.473700
vn -0.983400 0.000000 0.181200
vn 0.212100 0.000000 0.977200
vn 0.976900 0.213700 0.000000
vn -0.976900 0.213700 0.000000
vn 0.000000 -1.000000 0.000000
vn 0.000000 0.576600 -0.817000
vn 0.838300 0.545200 0.000000
vn -0.838300 0.545200 0.000000
vn 0.000000 0.576600 0.817000
usemtl LightRock
s off
f 2//1 5//1 6//1 1//1
f 1//2 6//2 7//2 3//2
f 4//3 8//3 5//3 2//3
f 3//4 7//4 8//4 4//4
f 8//5 7//5 10//5 9//5
f 6//6 5//6 12//6 11//6
f 5//7 8//7 9//7 12//7
f 7//8 6//8 11//8 10//8
f 13//6 16//6 19//6 14//6
f 16//6 13//6 15//6 18//6
f 14//6 19//6 20//6 17//6
f 17//6 20//6 18//6 15//6
f 19//9 16//9 21//9 22//9
f 16//10 18//10 23//10 21//10
f 18//11 20//11 24//11 23//11
f 20//12 19//12 22//12 24//12
f 25//7 26//7 49//7 48//7
f 21//5 23//5 54//5 55//5
f 24//8 28//8 53//8 50//8
f 26//6 28//6 45//6 44//6
f 27//13 3//13 4//13 25//13
f 26//14 2//14 1//14 28//14
f 32//15 30//15 35//15 36//15
f 18//5 16//5 32//5 31//5
f 20//8 18//8 31//8 29//8
f 19//6 20//6 29//6 30//6
f 16//7 19//7 30//7 32//7
f 30//16 29//16 33//16 35//16
f 31//17 32//17 36//17 34//17
f 29//18 31//18 34//18 33//18
f 50//19 53//19 69//19 66//19
f 28//6 24//6 43//6 45//6
f 24//6 22//6 42//6 43//6
f 22//6 26//6 44//6 42//6
f 44//20 45//20 61//20 60//20
f 22//7 21//7 46//7 47//7
f 26//7 22//7 47//7 49//7
f 21//7 25//7 48//7 46//7
f 56//21 55//21 71//21 72//21
f 27//8 23//8 51//8 52//8
f 28//8 27//8 52//8 53//8
f 23//8 24//8 50//8 51//8
f 48//22 49//22 65//22 64//22
f 23//5 27//5 57//5 54//5
f 27//5 25//5 56//5 57//5
f 25//5 21//5 55//5 56//5
f 49//23 47//23 63//23 65//23
f 54//24 57//24 73//24 70//24
f 53//25 52//25 68//25 69//25
f 57//26 56//26 72//26 73//26
f 43//27 42//27 58//27 59//27
f 47//28 46//28 62//28 63//28
f 42//29 44//29 60//29 58//29
f 51//30 50//30 66//30 67//30
f 46//31 48//31 64//31 62//31
f 55//32 54//32 70//32 71//32
f 45//33 43//33 59//33 61//33
f 52//34 51//34 67//34 68//34
f 28//35 1//35 3//35 27//35
f 25//36 4//36 2//36 26//36
usemtl Black
f 59//6 58//6 60//6 61//6
f 63//7 62//7 64//7 65//7
f 67//8 66//8 69//8 68//8
f 71//5 70//5 73//5 72//5
usemtl DarkRock
f 10//37 11//37 12//37 9//37
usemtl Celing
f 35//6 33//6 40//6 41//6
f 36//7 35//7 41//7 38//7
f 33//8 34//8 39//8 40//8
f 34//5 36//5 38//5 39//5
f 39//38 38//38 37//38
f 40//39 39//39 37//39
f 38//40 41//40 37//40
f 41//41 40//41 37//41
