# Blender v2.76 (sub 0) OBJ File: 'SmallSquareTowerBricks.blend'
# www.blender.org
mtllib SmallSquareTowerBricks.mtl
o SmallSquareTowerBricks_Cube.025
v -0.348392 1.910248 0.319982
v -0.348392 1.962949 0.319982
v -0.348392 1.962949 0.253881
v -0.348392 1.910248 0.253881
v -0.416420 2.029711 0.319982
v -0.296958 2.029711 0.319982
v -0.296958 1.962949 0.319982
v -0.416420 1.910248 0.319982
v -0.296958 1.962949 0.253881
v -0.348392 1.910248 0.379229
v -0.296958 2.029711 0.253881
v -0.416420 2.029711 0.253881
v -0.416420 1.910248 0.253881
v -0.416420 2.029711 0.439444
v -0.416420 1.910248 0.439444
v -0.296958 2.029711 0.439444
v -0.296958 1.910248 0.439444
v -0.296958 1.910248 0.379229
v -0.296958 1.962949 0.379229
v -0.296958 1.962949 0.323403
v -0.348392 1.766357 0.379229
v -0.296958 1.962949 0.134420
v -0.296958 2.029711 0.134420
v -0.416420 2.029711 0.134420
v -0.416420 1.910248 0.134420
v -0.348392 1.910248 0.134420
v 0.292675 1.962949 0.379229
v 0.251876 1.962949 0.379229
v 0.251876 1.910248 0.379229
v 0.132415 1.910248 0.379229
v 0.132415 1.962949 0.379229
v 0.060125 1.962949 0.379229
v 0.060125 1.910248 0.379229
v -0.059337 1.910248 0.379229
v -0.059337 1.962949 0.379229
v -0.131626 1.962949 0.379229
v -0.131626 1.910248 0.379229
v -0.251088 1.910248 0.379229
v -0.251088 1.962949 0.379229
v 0.351591 1.766357 0.379229
v 0.351591 1.910248 0.379229
v 0.292675 1.910248 0.379229
v -0.221313 1.962949 0.241299
v -0.348392 1.962949 0.134420
v 0.292675 2.029711 0.439444
v 0.292675 2.029711 0.319982
v 0.292675 1.962949 0.319982
v 0.292675 1.910248 0.439444
v 0.251876 2.029711 0.319811
v 0.251876 2.029711 0.439273
v 0.251876 1.910248 0.439273
v 0.251876 1.962949 0.319811
v 0.132415 1.910248 0.439273
v 0.132415 2.029711 0.439273
v 0.132415 2.029711 0.319811
v 0.132415 1.962949 0.319811
v 0.060125 2.029711 0.319811
v 0.060125 2.029711 0.439273
v 0.060125 1.910248 0.439273
v 0.060125 1.962949 0.319811
v -0.059337 1.910248 0.439273
v -0.059337 2.029711 0.439273
v -0.059337 2.029711 0.319811
v -0.059337 1.962949 0.319811
v -0.131626 2.029711 0.319811
v -0.131626 2.029711 0.439273
v -0.131626 1.910248 0.439273
v -0.131626 1.962949 0.319811
v -0.251088 1.910248 0.439273
v -0.251088 2.029711 0.439273
v -0.251088 2.029711 0.319811
v -0.251088 1.962949 0.319811
v 0.351591 1.766357 0.379229
v 0.351591 1.962949 -0.321374
v 0.351591 1.962949 -0.249085
v 0.351591 1.910248 -0.249085
v 0.351591 1.910248 -0.129623
v 0.351591 1.962949 -0.129623
v 0.351591 1.962949 -0.057333
v 0.351591 1.910248 -0.057333
v 0.351591 1.910248 0.062129
v 0.351591 1.962949 0.062129
v 0.351591 1.962949 0.134420
v 0.351591 1.910248 0.134420
v 0.351591 1.910248 0.253881
v 0.351591 1.962949 0.253881
v 0.351591 1.962949 0.319982
v 0.351591 1.910248 0.319982
v 0.351591 1.766357 -0.380523
v 0.351591 1.910248 -0.380523
v 0.351591 1.910248 -0.321374
v -0.348392 1.910248 -0.057332
v -0.296958 1.962949 -0.057333
v -0.296958 1.962949 0.062129
v -0.348392 1.910248 0.062130
v 0.412137 2.029711 0.439444
v 0.412137 1.910248 0.439444
v 0.412137 2.029711 0.319982
v 0.412137 1.910248 0.319982
v 0.297005 1.962949 0.319982
v -0.348392 1.766357 0.379229
v 0.351591 1.766357 -0.380523
v 0.412137 2.029711 -0.321374
v 0.292675 2.029711 -0.321374
v 0.292675 1.962949 -0.321374
v 0.297096 1.962949 -0.321374
v 0.412137 1.910248 -0.321374
v 0.292675 1.962949 0.253881
v 0.292675 1.962949 0.134420
v 0.292675 1.962949 0.062129
v 0.292675 1.962949 -0.057333
v 0.292675 1.962949 -0.129623
v 0.292675 1.962949 -0.249085
v 0.224512 1.962949 -0.242592
v 0.224512 1.962949 0.241299
v 0.292675 2.029711 -0.249085
v 0.412137 2.029711 -0.249085
v 0.412137 1.910248 -0.249085
v 0.412137 1.910248 -0.129623
v 0.412137 2.029711 -0.129623
v 0.292675 2.029711 -0.129623
v 0.292675 2.029711 -0.057333
v 0.412137 2.029711 -0.057333
v 0.412137 1.910248 -0.057333
v 0.412137 1.910248 0.062129
v 0.412137 2.029711 0.062129
v 0.292675 2.029711 0.062129
v 0.292675 2.029711 0.134420
v 0.412137 2.029711 0.134420
v 0.412137 1.910248 0.134420
v 0.412137 1.910248 0.253881
v 0.412137 2.029711 0.253881
v 0.292675 2.029711 0.253881
v -0.296958 1.962949 -0.380523
v -0.251089 1.962949 -0.380523
v -0.251089 1.910248 -0.380523
v -0.131627 1.910248 -0.380523
v -0.131627 1.962949 -0.380523
v -0.059337 1.962949 -0.380523
v -0.059337 1.910248 -0.380523
v 0.060125 1.910248 -0.380523
v 0.060125 1.962949 -0.380523
v 0.132415 1.962949 -0.380523
v 0.132415 1.910248 -0.380523
v 0.251876 1.910248 -0.380523
v 0.251876 1.962949 -0.380523
v 0.292675 1.962949 -0.380523
v 0.292675 1.910248 -0.380523
v -0.348392 1.766357 -0.380522
v -0.348392 1.910248 -0.380522
v -0.296958 1.910248 -0.380523
v 0.292675 1.910248 -0.440838
v 0.412137 1.910248 -0.440838
v -0.221313 1.962949 -0.242592
v -0.348392 1.962949 0.062130
v -0.260341 1.766620 0.283660
v 0.263540 1.766620 0.283660
v 0.263540 1.766620 -0.284953
v 0.412137 2.029711 -0.440838
v 0.292675 2.029711 -0.440838
v 0.224512 1.889278 -0.242592
v 0.224512 1.889278 0.241299
v -0.348392 1.766357 -0.380522
v -0.296958 2.029711 -0.440838
v -0.296958 2.029711 -0.321374
v -0.296958 1.962949 -0.321374
v -0.296958 1.962949 -0.324696
v -0.296958 1.910248 -0.440838
v -0.251089 2.029711 -0.323039
v -0.251089 2.029711 -0.442501
v -0.251089 1.910248 -0.442501
v -0.251089 1.962949 -0.323039
v -0.131627 1.910248 -0.442501
v -0.131627 2.029711 -0.442501
v -0.131627 2.029711 -0.323039
v -0.131627 1.962949 -0.323039
v -0.059337 2.029711 -0.323039
v -0.059337 2.029711 -0.442501
v -0.059337 1.910248 -0.442501
v -0.059337 1.962949 -0.323039
v 0.060125 1.910248 -0.442501
v 0.060125 2.029711 -0.442501
v 0.060125 2.029711 -0.323039
v 0.060125 1.962949 -0.323039
v 0.132415 1.962949 -0.323039
v 0.132415 2.029711 -0.323039
v 0.132415 2.029711 -0.442501
v 0.132415 1.910248 -0.442501
v 0.251876 1.910248 -0.442501
v 0.251876 2.029711 -0.442501
v 0.251876 2.029711 -0.323039
v 0.251876 1.962949 -0.323039
v -0.348392 1.910248 -0.249084
v -0.416420 1.910248 -0.321374
v -0.416420 1.910248 -0.440837
v -0.348392 1.910248 -0.321374
v -0.416420 1.910248 0.062130
v -0.416420 1.910248 -0.057332
v -0.296958 1.962949 -0.129623
v -0.221313 1.889278 0.241299
v -0.221313 1.889279 -0.242592
v -0.296958 2.029711 -0.057333
v -0.296958 2.029711 0.062129
v -0.416420 2.029711 0.062130
v -0.260341 1.766620 -0.284953
v -0.050789 1.460163 0.283660
v 0.053988 1.460163 0.283660
v 0.263540 1.460163 0.056214
v 0.263540 1.460163 -0.057508
v -0.416420 2.029711 -0.440837
v -0.416420 2.029711 -0.321374
v -0.348392 1.962949 -0.321374
v -0.416420 2.029711 -0.057332
v -0.348392 1.962949 -0.057332
v -0.348392 1.910248 -0.129622
v -0.296958 1.962949 -0.249085
v -0.260341 1.460163 -0.057508
v -0.260341 1.460163 0.056214
v 0.263540 0.456184 0.283660
v 0.053988 1.198076 0.283660
v -0.260341 0.456184 0.283660
v -0.050789 1.198076 0.283660
v -0.041828 1.437748 0.235029
v 0.045027 1.437748 0.235029
v 0.053988 1.460163 -0.284953
v -0.050789 1.460163 -0.284953
v 0.263540 0.456184 -0.284953
v 0.263540 1.198076 -0.057508
v 0.263540 1.198076 0.056214
v 0.218735 1.437748 0.046488
v 0.218735 1.437748 -0.047782
v -0.416420 1.910248 -0.129622
v -0.416420 1.910248 -0.249084
v -0.296958 2.029711 -0.249085
v -0.296958 2.029711 -0.129623
v -0.348392 1.962949 -0.129622
v -0.260341 1.198076 0.056214
v -0.260341 0.456184 -0.284953
v -0.260341 1.198076 -0.057508
v -0.215536 1.437748 -0.047782
v -0.215536 1.437748 0.046488
v 0.045027 1.220491 0.235029
v -0.041828 1.220491 0.235029
v -0.050789 1.198076 -0.284953
v 0.053988 1.198076 -0.284953
v 0.045027 1.437748 -0.236322
v -0.041828 1.437748 -0.236322
v 0.218735 1.220491 -0.047782
v 0.218735 1.220491 0.046488
v -0.348392 1.962949 -0.249084
v -0.416420 2.029711 -0.129622
v -0.416420 2.029711 -0.249084
v -0.215536 1.220491 0.046488
v -0.215536 1.220491 -0.047782
v -0.296319 0.378441 0.322710
v 0.299518 0.378441 0.322710
v -0.041828 1.220491 -0.236322
v 0.045027 1.220491 -0.236322
v 0.299518 0.378441 -0.324003
v -0.296319 0.378441 -0.324003
v -0.053128 0.080653 0.322710
v -0.206445 0.080653 0.322710
v -0.296319 0.006210 0.322710
v 0.299518 0.006210 0.322710
v 0.184464 0.258742 0.322710
v 0.184464 0.172567 0.322710
v 0.031147 0.172567 0.322710
v -0.053128 0.166829 0.322710
v -0.206445 0.166829 0.322710
v 0.031147 0.258743 0.322710
v 0.299518 0.097392 -0.047247
v 0.299518 0.123089 0.066987
v 0.299518 0.123089 0.220304
v 0.299518 0.006210 -0.324003
v 0.299518 0.183568 -0.200564
v 0.299518 0.097392 -0.200564
v 0.299518 0.183568 -0.047247
v 0.299518 0.209265 0.220304
v 0.299518 0.209265 0.066987
v -0.296319 0.286890 0.220310
v -0.296319 0.200714 0.220310
v -0.296319 0.006210 -0.324003
v -0.296319 0.097392 -0.200558
v -0.296319 0.183568 -0.200558
v -0.296319 0.183568 -0.047241
v -0.296319 0.097392 -0.047241
v -0.296319 0.200714 0.066993
v -0.296319 0.286890 0.066993
v -0.051076 0.179327 -0.324003
v 0.063157 0.058712 -0.324003
v 0.216474 0.058712 -0.324003
v 0.216474 0.144888 -0.324003
v -0.204393 0.179327 -0.324003
v -0.051076 0.265503 -0.324003
v -0.204393 0.265503 -0.324003
v 0.063157 0.144888 -0.324003
v -0.309405 0.183568 -0.047436
v -0.309405 0.097392 -0.047436
v -0.307129 0.183568 -0.200719
v -0.307129 0.097392 -0.200719
v -0.314479 0.286890 0.220041
v -0.314479 0.200714 0.220041
v -0.312204 0.286890 0.066757
v -0.312204 0.200714 0.066757
v 0.312778 0.123089 0.220501
v 0.312778 0.209265 0.220501
v 0.311040 0.123089 0.067158
v 0.311040 0.209265 0.067158
v 0.317853 0.097392 -0.046975
v 0.317853 0.183568 -0.046975
v 0.316115 0.097392 -0.200318
v 0.316115 0.183568 -0.200318
v -0.050789 0.179327 -0.343371
v -0.050789 0.265503 -0.343371
v -0.204131 0.179327 -0.341633
v -0.204131 0.265503 -0.341633
v 0.216687 0.058712 -0.338296
v 0.216687 0.144888 -0.338296
v 0.063344 0.058712 -0.336558
v 0.063344 0.144888 -0.336558
v 0.184201 0.258742 0.340405
v 0.184201 0.172567 0.340405
v 0.030918 0.258743 0.338130
v 0.030918 0.172567 0.338130
v -0.053316 0.166829 0.335330
v -0.053316 0.080653 0.335330
v -0.206599 0.166829 0.333054
v -0.206599 0.080653 0.333054
vn -1.000000 -0.000000 0.000000
vn -0.000000 0.000000 -1.000000
vn 0.000000 1.000000 0.000000
vn -0.000000 0.000000 1.000000
vn 1.000000 -0.000000 0.000000
vn -0.000000 -1.000000 0.000000
vn -0.000000 -1.000000 -0.002800
vn -0.003000 -1.000000 0.000000
vn 0.003000 -1.000000 0.000000
vn -0.000000 -1.000000 0.002800
vn 0.000000 -0.908200 0.418600
vn 0.447400 -0.894300 0.000000
vn -0.447400 -0.894300 0.000000
vn -0.983400 0.000000 0.181200
vn 0.983400 0.000000 0.181200
vn 0.000000 -0.908200 -0.418600
vn 0.212100 0.000000 0.977200
vn 0.212100 0.000000 -0.977200
vn -0.212100 0.000000 -0.977200
vn -0.212100 0.000000 0.977200
vn 0.000000 0.448900 0.893600
vn 0.000000 0.908200 0.418600
vn 0.983400 0.000000 -0.181200
vn -0.983400 0.000000 -0.181200
vn 0.907500 0.420000 0.000000
vn 0.447400 0.894300 0.000000
vn -0.907500 0.420000 0.000000
vn -0.447400 0.894300 0.000000
vn 0.000000 0.448900 -0.893600
vn 0.000000 0.908200 -0.418600
vn -0.014900 0.000000 0.999900
vn -0.999900 0.000000 -0.014800
vn 0.014800 0.000000 -0.999900
vn -0.014800 0.000000 0.999900
vn 0.999900 0.000000 -0.011300
vn 0.999900 0.000000 0.014800
vn -0.011300 0.000000 -0.999900
vn -0.999900 0.000000 -0.014900
vn 0.999900 0.000000 0.014900
usemtl LightRock
s off
f 2//1 3//1 4//1 26//1 44//1 155//1 95//1 92//1 214//1 236//1 215//1 193//1 250//1 212//1 196//1 150//1 149//1 21//1 10//1 1//1
f 5//2 6//2 7//2 2//2 1//2 8//2
f 2//3 7//3 20//3 43//3 154//3 167//3 166//3 212//3 250//3 216//3 199//3 236//3 214//3 93//3 94//3 155//3 44//3 22//3 9//3 3//3
f 11//4 12//4 13//4 4//4 3//4 9//4
f 14//1 5//1 8//1 15//1
f 16//3 6//3 5//3 14//3
f 6//5 16//5 17//5 18//5 19//5 20//5 7//5
f 1//6 10//6 18//6 17//6 15//6 8//6
f 22//5 23//5 11//5 9//5
f 11//3 23//3 24//3 12//3
f 12//1 24//1 25//1 13//1
f 4//6 13//6 25//6 26//6
f 16//4 14//4 15//4 17//4
f 27//4 28//4 29//4 30//4 31//4 32//4 33//4 34//4 35//4 36//4 37//4 38//4 39//4 19//4 18//4 10//4 21//4 40//4 41//4 42//4
f 24//2 23//2 22//2 44//2 26//2 25//2
f 45//1 46//1 47//1 27//1 42//1 48//1
f 49//5 50//5 51//5 29//5 28//5 52//5
f 29//6 51//6 53//6 30//6
f 54//1 55//1 56//1 31//1 30//1 53//1
f 57//5 58//5 59//5 33//5 32//5 60//5
f 33//6 59//6 61//6 34//6
f 62//1 63//1 64//1 35//1 34//1 61//1
f 65//5 66//5 67//5 37//5 36//5 68//5
f 37//6 67//6 69//6 38//6
f 70//1 71//1 72//1 39//1 38//1 69//1
f 74//5 75//5 76//5 77//5 78//5 79//5 80//5 81//5 82//5 83//5 84//5 85//5 86//5 87//5 88//5 41//5 40//5 89//5 90//5 91//5
f 96//4 45//4 48//4 97//4
f 96//3 98//3 46//3 45//3
f 46//2 98//2 99//2 88//2 87//2 100//2 47//2
f 115//3 43//3 20//3 19//3 39//3 72//3 68//3 36//3 35//3 64//3 60//3 32//3 31//3 56//3 52//3 28//3 27//3 47//3 100//3
f 56//2 55//2 49//2 52//2
f 54//3 50//3 49//3 55//3
f 50//4 54//4 53//4 51//4
f 64//2 63//2 57//2 60//2
f 62//3 58//3 57//3 63//3
f 58//4 62//4 61//4 59//4
f 72//2 71//2 65//2 68//2
f 70//3 66//3 65//3 71//3
f 66//4 70//4 69//4 67//4
f 101//4 73//4 40//4 21//4
f 73//4 102//4 89//4 40//4
f 103//4 104//4 105//4 106//4 74//4 91//4 107//4
f 87//3 86//3 108//3 109//3 83//3 82//3 110//3 111//3 79//3 78//3 112//3 113//3 75//3 74//3 106//3 114//3 115//3 100//3
f 116//2 117//2 118//2 76//2 75//2 113//2
f 76//6 118//6 119//6 77//6
f 120//4 121//4 112//4 78//4 77//4 119//4
f 122//2 123//2 124//2 80//2 79//2 111//2
f 80//6 124//6 125//6 81//6
f 126//4 127//4 110//4 82//4 81//4 125//4
f 128//2 129//2 130//2 84//2 83//2 109//2
f 84//6 130//6 131//6 85//6
f 132//4 133//4 108//4 86//4 85//4 131//4
f 134//2 135//2 136//2 137//2 138//2 139//2 140//2 141//2 142//2 143//2 144//2 145//2 146//2 147//2 148//2 90//2 89//2 149//2 150//2 151//2
f 148//6 152//6 153//6 107//6 91//6 90//6
f 98//5 96//5 97//5 99//5
f 21//4 149//4 163//4 101//4
f 73//7 101//7 156//7 157//7
f 102//8 73//8 157//8 158//8
f 159//5 103//5 107//5 153//5
f 103//3 159//3 160//3 104//3
f 104//1 160//1 152//1 148//1 147//1 105//1
f 108//1 133//1 128//1 109//1
f 110//1 127//1 122//1 111//1
f 112//1 121//1 116//1 113//1
f 115//1 114//1 161//1 162//1
f 120//3 117//3 116//3 121//3
f 117//5 120//5 119//5 118//5
f 126//3 123//3 122//3 127//3
f 123//5 126//5 125//5 124//5
f 132//3 129//3 128//3 133//3
f 129//5 132//5 131//5 130//5
f 99//6 97//6 48//6 42//6 41//6 88//6
f 102//4 163//4 149//4 89//4
f 164//5 165//5 166//5 167//5 134//5 151//5 168//5
f 167//3 154//3 114//3 106//3 105//3 147//3 146//3 192//3 185//3 143//3 142//3 184//3 180//3 139//3 138//3 176//3 172//3 135//3 134//3
f 169//1 170//1 171//1 136//1 135//1 172//1
f 136//6 171//6 173//6 137//6
f 174//5 175//5 176//5 138//5 137//5 173//5
f 177//1 178//1 179//1 140//1 139//1 180//1
f 140//6 179//6 181//6 141//6
f 182//5 183//5 184//5 142//5 141//5 181//5
f 186//1 187//1 188//1 144//1 143//1 185//1
f 144//6 188//6 189//6 145//6
f 190//5 191//5 192//5 146//5 145//5 189//5
f 194//6 195//6 168//6 151//6 150//6 196//6
f 160//2 159//2 153//2 152//2
f 95//6 197//6 198//6 92//6
f 154//5 43//5 200//5 201//5
f 93//5 202//5 203//5 94//5
f 203//4 204//4 197//4 95//4 155//4 94//4
f 101//9 163//9 205//9 156//9
f 157//4 156//4 206//4 207//4
f 163//10 102//10 158//10 205//10
f 158//5 157//5 208//5 209//5
f 43//2 115//2 162//2 200//2
f 114//4 154//4 201//4 161//4
f 162//3 161//3 201//3 200//3
f 210//2 164//2 168//2 195//2
f 165//3 164//3 210//3 211//3
f 165//4 211//4 194//4 196//4 212//4 166//4
f 176//4 175//4 169//4 172//4
f 169//3 175//3 174//3 170//3
f 170//2 174//2 173//2 171//2
f 184//4 183//4 177//4 180//4
f 177//3 183//3 182//3 178//3
f 178//2 182//2 181//2 179//2
f 192//4 191//4 186//4 185//4
f 186//3 191//3 190//3 187//3
f 187//2 190//2 189//2 188//2
f 211//1 210//1 195//1 194//1
f 204//1 213//1 198//1 197//1
f 213//2 202//2 93//2 214//2 92//2 198//2
f 203//3 202//3 213//3 204//3
f 156//1 205//1 217//1 218//1
f 219//4 157//4 207//4 220//4
f 156//4 221//4 222//4 206//4
f 207//11 206//11 223//11 224//11
f 205//2 158//2 225//2 226//2
f 227//5 158//5 209//5 228//5
f 157//5 219//5 229//5 208//5
f 209//12 208//12 230//12 231//12
f 215//6 232//6 233//6 193//6
f 216//5 234//5 235//5 199//5
f 221//1 156//1 218//1 237//1
f 205//1 238//1 239//1 217//1
f 218//13 217//13 240//13 241//13
f 221//4 219//4 220//4 222//4
f 220//14 207//14 224//14 242//14
f 206//15 222//15 243//15 223//15
f 238//2 205//2 226//2 244//2
f 158//2 227//2 245//2 225//2
f 226//16 225//16 246//16 247//16
f 219//5 227//5 228//5 229//5
f 228//17 209//17 231//17 248//17
f 208//18 229//18 249//18 230//18
f 235//4 251//4 232//4 215//4 236//4 199//4
f 251//1 252//1 233//1 232//1
f 252//2 234//2 216//2 250//2 193//2 233//2
f 235//3 234//3 252//3 251//3
f 238//1 221//1 237//1 239//1
f 237//19 218//19 241//19 253//19
f 217//20 239//20 254//20 240//20
f 221//21 255//21 256//21 219//21
f 222//22 220//22 242//22 243//22
f 227//2 238//2 244//2 245//2
f 244//23 226//23 247//23 257//23
f 225//24 245//24 258//24 246//24
f 219//25 256//25 259//25 227//25
f 229//26 228//26 248//26 249//26
f 238//27 260//27 255//27 221//27
f 239//28 237//28 253//28 254//28
f 261//4 262//4 263//4 264//4 256//4 265//4 266//4 267//4 268//4
f 262//4 269//4 268//4 267//4 270//4 265//4 256//4 255//4 263//4
f 227//29 259//29 260//29 238//29
f 245//30 244//30 257//30 258//30
f 271//5 272//5 273//5 264//5 274//5 259//5 275//5 276//5
f 271//5 277//5 275//5 259//5 256//5 264//5 273//5 278//5 279//5 272//5
f 280//1 281//1 255//1 260//1 282//1 283//1 284//1 285//1 286//1 287//1 288//1
f 281//1 287//1 286//1 283//1 282//1 263//1 255//1
f 263//6 282//6 274//6 264//6
f 289//2 290//2 291//2 292//2 259//2 274//2 282//2 293//2
f 289//2 294//2 295//2 293//2 282//2 260//2 259//2 292//2 296//2 290//2
usemtl Black
f 224//4 223//4 243//4 242//4
f 231//5 230//5 249//5 248//5
f 241//1 240//1 254//1 253//1
f 247//2 246//2 258//2 257//2
usemtl DarkRock
f 285//31 297//31 298//31 286//31
f 284//3 299//3 297//3 285//3
f 297//32 299//32 300//32 298//32
f 286//6 298//6 300//6 283//6
f 283//33 300//33 299//33 284//33
f 280//34 301//34 302//34 281//34
f 288//3 303//3 301//3 280//3
f 301//32 303//32 304//32 302//32
f 281//6 302//6 304//6 287//6
f 287//33 304//33 303//33 288//33
f 273//34 305//34 306//34 278//34
f 272//6 307//6 305//6 273//6
f 305//35 307//35 308//35 306//35
f 278//3 306//3 308//3 279//3
f 279//33 308//33 307//33 272//33
f 271//34 309//34 310//34 277//34
f 276//6 311//6 309//6 271//6
f 309//35 311//35 312//35 310//35
f 277//3 310//3 312//3 275//3
f 275//33 312//33 311//33 276//33
f 289//36 313//36 314//36 294//36
f 293//6 315//6 313//6 289//6
f 313//37 315//37 316//37 314//37
f 294//3 314//3 316//3 295//3
f 295//32 316//32 315//32 293//32
f 291//36 317//36 318//36 292//36
f 290//6 319//6 317//6 291//6
f 317//37 319//37 320//37 318//37
f 292//3 318//3 320//3 296//3
f 296//32 320//32 319//32 290//32
f 265//36 321//36 322//36 266//36
f 270//3 323//3 321//3 265//3
f 321//34 323//34 324//34 322//34
f 266//6 322//6 324//6 267//6
f 267//38 324//38 323//38 270//38
f 268//39 325//39 326//39 261//39
f 269//3 327//3 325//3 268//3
f 325//34 327//34 328//34 326//34
f 261//6 326//6 328//6 262//6
f 262//32 328//32 327//32 269//32
