# Blender v2.76 (sub 0) OBJ File: 'TallWallBricks.blend'
# www.blender.org
mtllib TallWallBricks.mtl
o TallWallBricks_Cube.040
v -0.760180 1.918175 0.066979
v -0.760180 1.918175 -0.184350
v -0.760180 0.003358 -0.184350
v -0.760180 0.003358 0.066979
v -0.760180 1.918175 0.184348
v -0.760180 0.003358 0.184348
v -0.760180 2.185797 0.066979
v -0.760180 2.185797 -0.184350
v 0.761332 1.918175 -0.184349
v 0.761332 0.003358 -0.184349
v 0.761332 0.003358 0.066980
v 0.763671 0.003358 0.184349
v 0.761332 1.918175 0.184349
v 0.604315 0.264958 0.184349
v 0.604315 0.164111 0.184349
v 0.424896 0.164111 0.184349
v 0.034262 0.158234 0.184349
v -0.145157 0.158234 0.184349
v -0.477024 0.199372 0.184349
v -0.656444 0.199372 0.184349
v -0.656444 0.300219 0.184349
v -0.477024 0.300219 0.184349
v -0.456630 0.626638 0.184349
v -0.456630 0.727486 0.184349
v -0.277211 0.727485 0.184349
v -0.277211 0.626638 0.184349
v -0.145157 0.259082 0.184349
v 0.034262 0.259081 0.184349
v 0.125177 0.597254 0.184349
v 0.125177 0.698101 0.184349
v 0.304596 0.698101 0.184349
v 0.304596 0.597254 0.184349
v 0.424896 0.264958 0.184349
v -0.760180 2.185797 0.240341
v -0.760180 1.918175 0.240341
v -0.665031 2.185797 0.066979
v -0.475022 2.185797 0.066979
v -0.285013 2.185797 0.066979
v -0.095005 2.185797 0.066979
v 0.095004 2.185797 0.066979
v 0.285013 2.185797 0.066979
v 0.475022 2.185797 0.066980
v 0.665031 2.185797 0.066980
v 0.761332 2.185797 0.066980
v 0.761332 2.185797 -0.184349
v 0.761332 1.918175 0.066980
v 0.761332 1.918175 0.240342
v 0.761332 2.185797 0.240342
v 0.665031 2.185797 0.240342
v 0.475022 2.185797 0.240342
v 0.285013 2.185797 0.240342
v 0.095004 2.185797 0.240342
v -0.095005 2.185797 0.240342
v -0.285013 2.185797 0.240342
v -0.475022 2.185797 0.240342
v -0.665031 2.185797 0.240342
v -0.760036 2.351814 0.240341
v -0.760036 2.351814 0.066979
v -0.665031 2.351814 0.066979
v -0.475022 2.351814 0.066979
v -0.285013 2.351814 0.066979
v -0.095005 2.351814 0.066979
v 0.095004 2.351814 0.066979
v 0.285013 2.351814 0.066979
v 0.475022 2.351814 0.066980
v 0.665031 2.351814 0.066980
v 0.760036 2.351814 0.066980
v 0.760036 2.351814 0.240342
v 0.665031 2.351814 0.240342
v 0.475022 2.351814 0.240342
v 0.285013 2.351814 0.240342
v 0.095004 2.351814 0.240342
v -0.095005 2.351814 0.240342
v -0.285013 2.351814 0.240342
v -0.475022 2.351814 0.240342
v -0.665031 2.351814 0.240342
v -0.477273 0.300219 0.201105
v -0.477273 0.199372 0.201105
v -0.656653 0.300219 0.198442
v -0.656653 0.199372 0.198442
v 0.034013 0.259081 0.201105
v 0.034013 0.158234 0.201105
v -0.145367 0.259082 0.198442
v -0.145367 0.158234 0.198442
v 0.604067 0.264958 0.201104
v 0.604067 0.164111 0.201104
v 0.424687 0.264958 0.198442
v 0.424687 0.164111 0.198442
v 0.304348 0.698101 0.201105
v 0.304348 0.597254 0.201105
v 0.124968 0.698101 0.198442
v 0.124968 0.597254 0.198442
v -0.277460 0.727485 0.201105
v -0.277460 0.626638 0.201105
v -0.456840 0.727486 0.198442
v -0.456840 0.626638 0.198442
vn -1.000000 0.000000 0.000000
vn 0.000000 0.000000 -1.000000
vn 0.000000 -1.000000 0.000000
vn -0.000000 -0.000000 1.000000
vn 0.000000 1.000000 0.000000
vn 1.000000 0.000000 0.000000
vn 1.000000 0.000600 -0.010000
vn -1.000000 0.000900 0.000000
vn 1.000000 0.007800 0.000000
vn 0.999900 0.000000 0.014800
vn -0.014800 0.000000 0.999900
vn -0.999900 0.000000 -0.014900
vn -0.999900 0.000000 -0.014800
usemtl LightRock
s off
f 1//1 2//1 3//1 4//1
f 5//1 1//1 4//1 6//1
f 7//1 8//1 2//1 1//1
f 9//2 10//2 3//2 2//2
f 10//3 11//3 4//3 3//3
f 6//4 12//4 13//4 14//4 15//4 16//4 17//4 18//4 19//4 20//4
f 6//4 20//4 21//4 22//4 23//4 24//4 25//4 13//4 5//4
f 13//4 25//4 26//4 23//4 22//4 19//4 18//4 27//4 28//4 29//4 30//4 31//4
f 13//4 31//4 32//4 29//4 28//4 17//4 16//4 33//4 14//4
f 34//1 7//1 1//1 5//1 35//1
f 11//3 12//3 6//3 4//3
f 8//5 7//5 36//5 37//5 38//5 39//5 40//5 41//5 42//5 43//5 44//5 45//5
f 8//2 45//2 9//2 2//2
f 9//6 46//6 11//6 10//6
f 5//3 13//3 47//3 35//3
f 13//7 12//7 11//7 46//7
f 48//4 49//4 50//4 51//4 52//4 53//4 54//4 55//4 56//4 34//4 35//4 47//4
f 7//8 34//8 57//8 58//8
f 36//2 7//2 58//2 59//2
f 37//5 36//5 56//5 55//5
f 38//2 37//2 60//2 61//2
f 39//5 38//5 54//5 53//5
f 40//2 39//2 62//2 63//2
f 41//5 40//5 52//5 51//5
f 42//2 41//2 64//2 65//2
f 43//5 42//5 50//5 49//5
f 44//2 43//2 66//2 67//2
f 45//6 44//6 46//6 9//6
f 44//6 48//6 47//6 13//6 46//6
f 49//4 48//4 68//4 69//4
f 51//4 50//4 70//4 71//4
f 53//4 52//4 72//4 73//4
f 55//4 54//4 74//4 75//4
f 34//4 56//4 76//4 57//4
f 58//5 57//5 76//5 59//5
f 36//6 59//6 76//6 56//6
f 37//1 55//1 75//1 60//1
f 38//6 61//6 74//6 54//6
f 61//5 60//5 75//5 74//5
f 39//1 53//1 73//1 62//1
f 40//6 63//6 72//6 52//6
f 63//5 62//5 73//5 72//5
f 41//1 51//1 71//1 64//1
f 50//6 42//6 65//6 70//6
f 65//5 64//5 71//5 70//5
f 43//1 49//1 69//1 66//1
f 48//9 44//9 67//9 68//9
f 67//5 66//5 69//5 68//5
usemtl DarkRock
f 22//10 77//10 78//10 19//10
f 21//5 79//5 77//5 22//5
f 77//11 79//11 80//11 78//11
f 19//3 78//3 80//3 20//3
f 20//12 80//12 79//12 21//12
f 28//10 81//10 82//10 17//10
f 27//5 83//5 81//5 28//5
f 81//11 83//11 84//11 82//11
f 17//3 82//3 84//3 18//3
f 18//12 84//12 83//12 27//12
f 14//10 85//10 86//10 15//10
f 33//5 87//5 85//5 14//5
f 85//11 87//11 88//11 86//11
f 15//3 86//3 88//3 16//3
f 16//13 88//13 87//13 33//13
f 31//10 89//10 90//10 32//10
f 30//5 91//5 89//5 31//5
f 89//11 91//11 92//11 90//11
f 32//3 90//3 92//3 29//3
f 29//13 92//13 91//13 30//13
f 25//10 93//10 94//10 26//10
f 24//5 95//5 93//5 25//5
f 93//11 95//11 96//11 94//11
f 26//3 94//3 96//3 23//3
f 23//12 96//12 95//12 24//12
