# Blender v2.76 (sub 0) OBJ File: 'TallWallEntrance.blend'
# www.blender.org
mtllib TallWallEntrance.mtl
o TallWallEntrance_Cube.037
v -0.760181 1.912984 0.066980
v -0.760181 1.912984 -0.184348
v -0.760181 -0.001832 -0.184348
v -0.760181 -0.001832 0.066980
v -0.760181 1.912984 0.184350
v -0.760181 -0.001832 0.184350
v -0.760181 2.180607 0.066980
v -0.760181 2.180607 -0.184348
v 0.761331 1.912984 -0.184348
v 0.761331 -0.001832 -0.184348
v 0.445363 -0.001832 -0.184348
v 0.444877 0.207991 -0.184348
v 0.420847 0.486797 -0.184348
v 0.350274 0.764378 -0.184348
v 0.178030 0.918897 -0.184348
v 0.000000 0.981736 -0.184348
v -0.178030 0.918897 -0.184348
v -0.350274 0.764378 -0.184348
v -0.420847 0.486797 -0.184348
v -0.444879 0.207991 -0.184348
v -0.445363 -0.001832 -0.184348
v -0.445363 -0.001832 0.066980
v -0.445363 -0.001832 0.184350
v -0.444879 0.207991 0.184350
v -0.420847 0.486797 0.184350
v -0.697491 0.224428 0.184350
v -0.561277 0.224428 0.184350
v -0.561277 0.147865 0.184350
v -0.697491 0.147865 0.184350
v -0.350274 0.764378 0.184350
v -0.178030 0.918897 0.184350
v -0.430933 1.158986 0.184350
v -0.567148 1.158986 0.184350
v -0.567148 1.235549 0.184350
v -0.430933 1.235549 0.184350
v -0.327002 1.669069 0.184350
v -0.327002 1.745632 0.184350
v 0.761331 1.912984 0.184350
v 0.000000 0.981736 0.184350
v 0.178030 0.918897 0.184350
v 0.350274 0.764378 0.184350
v 0.575631 1.158986 0.184350
v 0.439416 1.158986 0.184350
v 0.439416 1.235549 0.184350
v -0.190788 1.745632 0.184350
v -0.190788 1.669069 0.184350
v 0.420847 0.486797 0.184350
v 0.444877 0.207991 0.184350
v 0.718167 0.308183 0.184350
v 0.581954 0.308183 0.184350
v 0.581954 0.384745 0.184350
v 0.575631 1.235549 0.184350
v 0.445363 -0.001832 0.184350
v 0.763671 -0.001832 0.184350
v 0.718167 0.384745 0.184350
v -0.760181 2.180607 0.240342
v -0.760181 1.912984 0.240342
v -0.665032 2.180607 0.066980
v -0.475024 2.180607 0.066980
v -0.285014 2.180607 0.066980
v -0.095004 2.180607 0.066980
v 0.095004 2.180607 0.066980
v 0.285012 2.180607 0.066980
v 0.475022 2.180607 0.066980
v 0.665030 2.180607 0.066980
v 0.761331 2.180607 0.066980
v 0.761331 2.180607 -0.184348
v 0.761331 1.912984 0.066980
v 0.761331 -0.001832 0.066980
v 0.445363 -0.001832 0.066980
v 0.761331 1.912984 0.240342
v 0.761331 2.180607 0.240342
v 0.665030 2.180607 0.240342
v 0.475022 2.180607 0.240342
v 0.285012 2.180607 0.240342
v 0.095004 2.180607 0.240342
v -0.095004 2.180607 0.240342
v -0.285014 2.180607 0.240342
v -0.475024 2.180607 0.240342
v -0.665032 2.180607 0.240342
v -0.760036 2.346623 0.240342
v -0.760036 2.346623 0.066980
v -0.665032 2.346623 0.066980
v -0.475024 2.346623 0.066980
v -0.285014 2.346623 0.066980
v -0.095004 2.346623 0.066980
v 0.095004 2.346623 0.066980
v 0.285012 2.346623 0.066980
v 0.475022 2.346623 0.066980
v 0.665030 2.346623 0.066980
v 0.760036 2.346623 0.066980
v 0.760036 2.346623 0.240342
v 0.665030 2.346623 0.240342
v 0.475022 2.346623 0.240342
v 0.285012 2.346623 0.240342
v 0.095004 2.346623 0.240342
v -0.095004 2.346623 0.240342
v -0.285014 2.346623 0.240342
v -0.475024 2.346623 0.240342
v -0.665032 2.346623 0.240342
v -0.431176 1.235549 0.200745
v -0.431176 1.158986 0.200745
v -0.567361 1.235549 0.198723
v -0.567361 1.158986 0.198723
v -0.191032 1.745632 0.200744
v -0.191032 1.669069 0.200744
v -0.327216 1.745632 0.198723
v -0.327216 1.669069 0.198723
v 0.575387 1.235549 0.200744
v 0.575387 1.158986 0.200744
v 0.439202 1.235549 0.198723
v 0.439202 1.158986 0.198723
v 0.717924 0.384745 0.200745
v 0.717924 0.308183 0.200745
v 0.581741 0.384745 0.198723
v 0.581741 0.308183 0.198723
v -0.561521 0.224428 0.200745
v -0.561521 0.147865 0.200745
v -0.697705 0.224428 0.198723
v -0.697705 0.147865 0.198723
vn -1.000000 0.000000 0.000000
vn 0.000000 0.000000 -1.000000
vn 0.000000 -1.000000 0.000000
vn 0.000000 0.000000 1.000000
vn 0.000000 1.000000 -0.000000
vn 1.000000 0.000000 0.000000
vn -1.000000 -0.002300 0.000000
vn -0.996300 -0.085900 0.000000
vn -0.969200 -0.246400 0.000000
vn -0.667800 -0.744400 0.000000
vn -0.332800 -0.943000 0.000000
vn 0.332800 -0.943000 0.000000
vn 0.667800 -0.744400 0.000000
vn 0.969200 -0.246400 0.000000
vn 0.996300 -0.085900 0.000000
vn 1.000000 -0.002300 0.000000
vn -1.000000 0.000900 0.000000
vn 1.000000 0.000600 -0.010000
vn 1.000000 0.007800 0.000000
vn 0.999900 0.000000 0.014800
vn -0.014800 0.000000 0.999900
vn -0.999900 0.000000 -0.014900
vn 0.999900 0.000000 0.014900
usemtl LightRock
s off
f 1//1 2//1 3//1 4//1
f 5//1 1//1 4//1 6//1
f 7//1 8//1 2//1 1//1
f 9//2 10//2 11//2 12//2 13//2 14//2 15//2 16//2 17//2 18//2 19//2 20//2 21//2 3//2 2//2
f 22//3 4//3 3//3 21//3
f 23//4 24//4 25//4 26//4 27//4 28//4
f 5//4 6//4 23//4 28//4 29//4 26//4 25//4 30//4 31//4 32//4 33//4 34//4 35//4 36//4 37//4 38//4
f 31//4 39//4 40//4 41//4 42//4 43//4 44//4 38//4 37//4 45//4 46//4 36//4 35//4 32//4
f 41//4 47//4 48//4 49//4 50//4 51//4 52//4 42//4
f 48//4 53//4 54//4 38//4 44//4 52//4 51//4 55//4 49//4
f 56//1 7//1 1//1 5//1 57//1
f 23//3 6//3 4//3 22//3
f 8//5 7//5 58//5 59//5 60//5 61//5 62//5 63//5 64//5 65//5 66//5 67//5
f 8//2 67//2 9//2 2//2
f 9//6 68//6 69//6 10//6
f 10//3 69//3 70//3 11//3
f 12//7 11//7 70//7 53//7 48//7
f 48//8 47//8 13//8 12//8
f 47//9 41//9 14//9 13//9
f 41//10 40//10 15//10 14//10
f 40//11 39//11 16//11 15//11
f 39//12 31//12 17//12 16//12
f 31//13 30//13 18//13 17//13
f 30//14 25//14 19//14 18//14
f 25//15 24//15 20//15 19//15
f 24//16 23//16 22//16 21//16 20//16
f 5//3 38//3 71//3 57//3
f 69//3 54//3 53//3 70//3
f 72//4 73//4 74//4 75//4 76//4 77//4 78//4 79//4 80//4 56//4 57//4 71//4
f 7//17 56//17 81//17 82//17
f 58//2 7//2 82//2 83//2
f 59//5 58//5 80//5 79//5
f 60//2 59//2 84//2 85//2
f 61//5 60//5 78//5 77//5
f 62//2 61//2 86//2 87//2
f 63//5 62//5 76//5 75//5
f 64//2 63//2 88//2 89//2
f 65//5 64//5 74//5 73//5
f 66//2 65//2 90//2 91//2
f 67//6 66//6 68//6 9//6
f 68//18 38//18 54//18 69//18
f 66//6 72//6 71//6 38//6 68//6
f 73//4 72//4 92//4 93//4
f 75//4 74//4 94//4 95//4
f 77//4 76//4 96//4 97//4
f 79//4 78//4 98//4 99//4
f 56//4 80//4 100//4 81//4
f 82//5 81//5 100//5 83//5
f 58//6 83//6 100//6 80//6
f 59//1 79//1 99//1 84//1
f 60//6 85//6 98//6 78//6
f 85//5 84//5 99//5 98//5
f 61//1 77//1 97//1 86//1
f 62//6 87//6 96//6 76//6
f 87//5 86//5 97//5 96//5
f 63//1 75//1 95//1 88//1
f 74//6 64//6 89//6 94//6
f 89//5 88//5 95//5 94//5
f 65//1 73//1 93//1 90//1
f 72//19 66//19 91//19 92//19
f 91//5 90//5 93//5 92//5
usemtl DarkRock
f 35//20 101//20 102//20 32//20
f 34//5 103//5 101//5 35//5
f 101//21 103//21 104//21 102//21
f 32//3 102//3 104//3 33//3
f 33//22 104//22 103//22 34//22
f 45//23 105//23 106//23 46//23
f 37//5 107//5 105//5 45//5
f 105//21 107//21 108//21 106//21
f 46//3 106//3 108//3 36//3
f 36//22 108//22 107//22 37//22
f 52//23 109//23 110//23 42//23
f 44//5 111//5 109//5 52//5
f 109//21 111//21 112//21 110//21
f 42//3 110//3 112//3 43//3
f 43//22 112//22 111//22 44//22
f 55//20 113//20 114//20 49//20
f 51//5 115//5 113//5 55//5
f 113//21 115//21 116//21 114//21
f 49//3 114//3 116//3 50//3
f 50//22 116//22 115//22 51//22
f 27//23 117//23 118//23 28//23
f 26//5 119//5 117//5 27//5
f 117//21 119//21 120//21 118//21
f 28//3 118//3 120//3 29//3
f 29//22 120//22 119//22 26//22
