# Blender v2.76 (sub 0) OBJ File: 'TargetWithArrows.blend'
# www.blender.org
mtllib TargetWithArrows.mtl
o Target_Cylinder.077
v 0.263191 0.454376 -0.039623
v 0.263191 0.454376 0.068338
v 0.179702 0.270924 0.068338
v 0.179702 0.270924 -0.039623
v -0.009055 0.200239 -0.039623
v 0.192506 0.643132 -0.039623
v 0.192506 0.643132 0.068337
v 0.213634 0.456081 0.068338
v 0.145865 0.307171 0.068338
v 0.075483 0.231897 0.020822
v -0.192507 0.283729 -0.039623
v 0.075483 0.231897 -0.035990
v 0.009054 0.726621 -0.039623
v 0.009054 0.726622 0.068338
v 0.156259 0.609296 0.068338
v -0.009055 0.200239 0.068338
v -0.007350 0.249796 0.068338
v 0.160184 0.457920 0.068338
v 0.109371 0.346266 0.068338
v 0.075483 0.231897 0.060547
v -0.179702 0.655937 -0.039623
v -0.065347 0.225858 -0.035990
v 0.032582 0.215831 -0.035990
v -0.179702 0.655937 0.068338
v 0.007349 0.677064 0.068338
v 0.117164 0.572801 0.068338
v -0.192507 0.283729 0.068338
v -0.156260 0.317566 0.068338
v -0.005511 0.303246 0.068338
v 0.104036 0.459851 0.068337
v 0.071034 0.387335 0.068338
v 0.107342 0.013441 0.107322
v 0.107342 0.013441 0.067597
v 0.075483 0.231896 0.009255
v -0.263192 0.472485 -0.039623
v -0.022919 0.206549 -0.035990
v -0.065347 0.225858 0.061840
v 0.032582 0.215831 0.024262
v 0.107342 0.013441 -0.035990
v 0.062098 0.013441 -0.035990
v -0.263192 0.472485 0.068338
v -0.145865 0.619690 0.068338
v 0.005511 0.623615 0.068337
v 0.076095 0.534465 0.068338
v -0.213634 0.470780 0.068338
v -0.117165 0.354060 0.068338
v 0.032582 0.215831 0.063987
v -0.003579 0.359394 0.068338
v 0.055060 0.461536 0.068338
v 0.037594 0.423157 0.068337
v 0.067693 0.417404 0.068338
v 0.063114 0.417872 0.068338
v 0.059972 0.421350 0.068338
v 0.060108 0.425800 0.068338
v 0.063441 0.428616 0.068338
v 0.068019 0.428149 0.068338
v 0.071161 0.424671 0.068338
v 0.071026 0.420220 0.068338
v 0.062098 0.013441 0.107322
v 0.062098 0.013441 0.067597
v 0.032582 0.215831 0.009255
v 0.107342 0.013441 0.009255
v -0.022919 0.206549 0.009255
v -0.051083 0.013441 -0.035990
v -0.096327 0.013441 -0.035990
v -0.065347 0.225858 0.009255
v 0.062098 0.013441 0.009255
v -0.109371 0.580595 0.068338
v 0.003579 0.567467 0.068338
v 0.040273 0.501025 0.068338
v -0.160185 0.468941 0.068337
v -0.022919 0.206549 0.065975
v -0.076096 0.392397 0.068338
v -0.001894 0.408370 0.068338
v 0.005675 0.463235 0.068338
v 0.003875 0.459279 0.068338
v -0.051083 0.013441 0.009255
v -0.096327 0.013441 0.009255
v -0.065347 0.225858 0.022115
v -0.071034 0.539526 0.068338
v 0.001894 0.518491 0.068338
v 0.004151 0.467306 0.068338
v -0.104037 0.467010 0.068338
v -0.096327 0.013441 0.107322
v -0.051083 0.013441 0.107322
v -0.022919 0.206549 0.026250
v -0.040274 0.425836 0.068338
v -0.000196 0.457755 0.068338
v 0.005675 0.463235 0.286780
v 0.003875 0.459279 0.286780
v -0.096327 0.013441 0.067597
v -0.037595 0.503704 0.068338
v 0.000195 0.469106 0.068338
v 0.004151 0.467305 0.286780
v -0.055061 0.465325 0.068337
v -0.065836 0.465695 0.068338
v -0.064875 0.463235 0.068338
v -0.066753 0.459279 0.068338
v -0.070999 0.457755 0.068338
v -0.075126 0.459555 0.068338
v -0.076716 0.463626 0.068338
v -0.075574 0.466030 0.068338
v -0.051083 0.013441 0.067597
v -0.004152 0.459555 0.068338
v -0.000196 0.457755 0.286780
v 0.007901 0.463159 0.286780
v -0.074838 0.467582 0.068338
v -0.070592 0.469106 0.068338
v -0.066465 0.467305 0.068338
v -0.003875 0.467582 0.068338
v 0.000195 0.469106 0.286780
v 0.005779 0.468825 0.286780
v -0.005676 0.463626 0.068338
v -0.004152 0.459555 0.286780
v 0.005395 0.457651 0.286780
v -0.000272 0.455529 0.286780
v -0.003875 0.467582 0.286780
v 0.000271 0.471332 0.286780
v -0.005676 0.463626 0.286780
v -0.005780 0.458035 0.286780
v 0.005395 0.457651 0.376786
v -0.000272 0.455529 0.376786
v 0.007901 0.463159 0.376786
v 0.005779 0.468826 0.376786
v -0.005395 0.469210 0.286780
v 0.000271 0.471332 0.376786
v -0.007902 0.463702 0.286780
v -0.005780 0.458035 0.376786
v -0.005395 0.469210 0.376786
v -0.007902 0.463702 0.376786
v 0.123557 0.381540 0.226194
v 0.120343 0.378636 0.226552
v 0.123989 0.385771 0.227087
v 0.125420 0.380651 0.225356
v 0.120945 0.376608 0.225855
v 0.116230 0.378761 0.227951
v 0.121386 0.388852 0.228708
v 0.126021 0.386542 0.226600
v 0.115218 0.376782 0.227803
v 0.153101 0.360268 0.308539
v 0.148626 0.356225 0.309037
v 0.113627 0.381842 0.229572
v 0.117274 0.388977 0.230107
v 0.122398 0.390831 0.228856
v 0.142899 0.356399 0.310986
v 0.153702 0.366160 0.309782
v 0.114059 0.386073 0.230465
v 0.116672 0.391005 0.230805
v 0.150079 0.370449 0.312039
v 0.111595 0.381071 0.230060
v 0.139276 0.360688 0.313242
v 0.144353 0.370623 0.313987
v 0.112197 0.386962 0.231303
v 0.139878 0.366580 0.314486
v -0.118783 0.463235 0.249793
v -0.120509 0.459279 0.249281
v -0.120244 0.467305 0.249359
v -0.116649 0.463158 0.250427
v -0.124411 0.457755 0.248121
v -0.124036 0.469106 0.248233
v -0.118683 0.468825 0.249823
v -0.119052 0.457651 0.249713
v -0.128203 0.459555 0.246995
v -0.127938 0.467581 0.247073
v -0.123963 0.471332 0.248254
v -0.142281 0.463159 0.336706
v -0.144684 0.457651 0.335992
v -0.144315 0.468826 0.336102
v -0.124484 0.455529 0.248100
v -0.129664 0.463626 0.246561
v -0.129395 0.469210 0.246641
v -0.149595 0.471332 0.334533
v -0.150116 0.455529 0.334378
v -0.129764 0.458035 0.246531
v -0.131798 0.463702 0.245927
v -0.155027 0.469210 0.332919
v -0.155396 0.458035 0.332810
v -0.157430 0.463702 0.332205
vn 0.910200 -0.414200 0.000000
vn -0.000000 -0.000000 -1.000000
vn 0.936500 0.350700 -0.000000
vn -0.000000 0.000000 1.000000
vn 0.414200 0.910200 -0.000000
vn 0.350700 -0.936500 0.000000
vn -0.414200 -0.910200 -0.000000
vn -0.350700 0.936500 -0.000000
vn -0.910200 0.414200 -0.000000
vn -0.936500 -0.350700 0.000000
vn 0.989500 0.144300 0.000000
vn 0.000000 0.209400 0.977800
vn 0.000000 -1.000000 0.000000
vn 0.000000 -0.209400 -0.977800
vn -0.989500 -0.144300 0.000000
vn 0.989500 -0.144300 0.000000
vn -0.989500 0.144300 0.000000
vn 0.598800 -0.708800 -0.372900
vn 0.946300 -0.028800 -0.322000
vn -0.307500 0.226500 -0.924200
vn -0.099500 -0.973600 -0.205500
vn 0.739500 0.668100 -0.082400
vn -0.307600 0.226500 -0.924200
vn -0.739500 -0.668100 0.082400
vn 0.099500 0.973600 0.205500
vn 0.946300 -0.028700 -0.322000
vn 0.307500 -0.226500 0.924200
vn -0.946300 0.028800 0.322000
vn -0.598800 0.708800 0.372900
vn 0.872500 -0.414200 0.259200
vn 0.897700 0.350700 0.266700
vn 0.284800 0.000000 -0.958600
vn 0.336200 -0.936500 0.099900
vn 0.397100 0.910200 0.118000
vn -0.397100 -0.910200 -0.118000
vn -0.336200 0.936500 -0.099900
vn -0.897700 -0.350700 -0.266700
vn -0.872500 0.414200 -0.259200
vn -0.284800 -0.000000 0.958600
usemtl White
s off
f 1//1 2//1 3//1 4//1
f 4//2 5//2 11//2 35//2 21//2 13//2 6//2 1//2
f 6//3 7//3 2//3 1//3
f 3//4 2//4 8//4 9//4
f 13//5 14//5 7//5 6//5
f 2//4 7//4 15//4 8//4
f 16//4 3//4 9//4 17//4
f 12//6 4//6 3//6 16//6 47//6 20//6 10//6 38//6 61//6 34//6
f 11//7 5//7 16//7 72//7 86//7 79//7 66//7 63//7 36//7 22//7
f 12//6 23//6 61//6 38//6 47//6 16//6 5//6 4//6
f 21//8 24//8 14//8 13//8
f 7//4 14//4 25//4 15//4
f 27//4 16//4 17//4 28//4
f 19//4 18//4 30//4 31//4
f 11//7 22//7 66//7 79//7 37//7 72//7 16//7 27//7
f 35//9 41//9 24//9 21//9
f 14//4 24//4 42//4 25//4
f 18//4 26//4 44//4 30//4
f 41//4 27//4 28//4 45//4
f 29//4 19//4 31//4 48//4
f 11//10 27//10 41//10 35//10
f 24//4 41//4 45//4 42//4
f 26//4 43//4 69//4 44//4
f 46//4 29//4 48//4 73//4
f 43//4 68//4 80//4 69//4
f 71//4 46//4 73//4 83//4
f 68//4 71//4 83//4 80//4
usemtl Red
f 9//4 8//4 18//4 19//4
f 8//4 15//4 26//4 18//4
f 17//4 9//4 19//4 29//4
f 15//4 25//4 43//4 26//4
f 28//4 17//4 29//4 46//4
f 30//4 49//4 50//4 31//4 51//4 52//4 53//4 54//4 55//4
f 30//4 55//4 56//4 57//4 58//4 51//4 31//4
f 25//4 42//4 68//4 43//4
f 30//4 44//4 70//4 49//4
f 45//4 28//4 46//4 71//4
f 48//4 31//4 50//4 74//4
f 50//4 49//4 75//4 76//4
f 42//4 45//4 71//4 68//4
f 44//4 69//4 81//4 70//4
f 49//4 70//4 82//4 75//4
f 73//4 48//4 74//4 87//4
f 74//4 50//4 76//4 88//4
f 69//4 80//4 92//4 81//4
f 70//4 81//4 93//4 82//4
f 83//4 73//4 87//4 95//4 96//4 97//4 98//4 99//4 100//4 101//4 102//4
f 87//4 74//4 88//4 104//4
f 80//4 83//4 102//4 107//4 108//4 109//4 96//4 95//4 92//4
f 81//4 92//4 110//4 93//4
f 95//4 87//4 104//4 113//4
f 92//4 95//4 113//4 110//4
usemtl DarkWood
f 20//11 32//11 33//11 10//11
f 12//2 39//2 40//2 23//2
f 47//12 59//12 32//12 20//12
f 32//13 59//13 60//13 33//13
f 10//14 33//14 60//14 38//14
f 34//11 62//11 39//11 12//11
f 36//2 64//2 65//2 22//2
f 62//13 67//13 40//13 39//13
f 23//15 40//15 67//15 61//15
f 38//15 60//15 59//15 47//15
f 61//4 67//4 62//4 34//4
f 63//16 77//16 64//16 36//16
f 78//13 65//13 64//13 77//13
f 22//17 65//17 78//17 66//17
f 37//12 84//12 85//12 72//12
f 76//1 75//1 89//1 90//1
f 66//4 78//4 77//4 63//4
f 79//17 91//17 84//17 37//17
f 75//3 82//3 94//3 89//3
f 84//13 91//13 103//13 85//13
f 72//16 85//16 103//16 86//16
f 88//6 76//6 90//6 105//6
f 89//2 106//2 115//2 90//2
f 86//14 103//14 91//14 79//14
f 82//5 93//5 111//5 94//5
f 94//2 112//2 106//2 89//2
f 104//7 88//7 105//7 114//7
f 105//2 90//2 115//2 116//2
f 93//8 110//8 117//8 111//8
f 94//2 111//2 118//2 112//2
f 113//10 104//10 114//10 119//10
f 114//2 105//2 116//2 120//2
f 116//6 115//6 121//6 122//6
f 115//1 106//1 123//1 121//1
f 106//3 112//3 124//3 123//3
f 110//9 113//9 119//9 117//9
f 117//2 125//2 118//2 111//2
f 112//5 118//5 126//5 124//5
f 119//2 114//2 120//2 127//2
f 120//7 116//7 122//7 128//7
f 122//4 121//4 123//4 124//4 126//4 129//4 130//4 128//4
f 119//2 127//2 125//2 117//2
f 118//8 125//8 129//8 126//8
f 127//10 120//10 128//10 130//10
f 125//9 127//9 130//9 129//9
f 58//18 131//18 132//18 51//18
f 57//19 133//19 131//19 58//19
f 132//20 131//20 134//20 135//20
f 51//21 132//21 136//21 52//21
f 56//22 137//22 133//22 57//22
f 133//20 138//20 134//20 131//20
f 136//23 132//23 135//23 139//23
f 135//18 134//18 140//18 141//18
f 52//24 136//24 142//24 53//24
f 55//25 143//25 137//25 56//25
f 137//20 144//20 138//20 133//20
f 136//20 139//20 150//20 142//20
f 139//21 135//21 141//21 145//21
f 134//26 138//26 146//26 140//26
f 140//27 146//27 149//27 152//27 154//27 151//27 145//27 141//27
f 53//28 142//28 147//28 54//28
f 54//29 147//29 143//29 55//29
f 137//23 143//23 148//23 144//23
f 138//22 144//22 149//22 146//22
f 150//24 139//24 145//24 151//24
f 147//20 142//20 150//20 153//20
f 143//20 147//20 153//20 148//20
f 144//25 148//25 152//25 149//25
f 153//28 150//28 151//28 154//28
f 148//29 153//29 154//29 152//29
f 97//30 155//30 156//30 98//30
f 109//31 157//31 155//31 97//31 96//31
f 155//32 158//32 162//32 156//32
f 98//33 156//33 159//33 99//33
f 108//34 160//34 157//34 109//34
f 157//32 161//32 158//32 155//32
f 156//32 162//32 169//32 159//32
f 99//35 159//35 163//35 100//35
f 107//36 164//36 160//36 108//36
f 160//32 165//32 161//32 157//32
f 162//30 158//30 166//30 167//30
f 158//31 161//31 168//31 166//31
f 159//32 169//32 174//32 163//32
f 100//37 163//37 170//37 101//37
f 101//38 170//38 164//38 107//38 102//38
f 165//32 160//32 164//32 171//32
f 161//34 165//34 172//34 168//34
f 169//33 162//33 167//33 173//33
f 163//32 174//32 175//32 170//32
f 170//32 175//32 171//32 164//32
f 165//36 171//36 176//36 172//36
f 174//35 169//35 173//35 177//35
f 173//39 167//39 166//39 168//39 172//39 176//39 178//39 177//39
f 171//38 175//38 178//38 176//38
f 175//37 174//37 177//37 178//37
