# Blender v2.76 (sub 0) OBJ File: 'Tunnel.blend'
# www.blender.org
mtllib Tunnel.mtl
o Tunnel_Cube.036
v -0.445658 0.005297 0.423205
v -0.361395 0.005297 0.423205
v -0.445142 0.228165 0.410756
v -0.361911 0.215020 0.410756
v -0.421096 0.506971 0.410756
v -0.337865 0.493826 0.410756
v -0.350482 0.784552 0.410756
v -0.282060 0.735400 0.410756
v -0.178134 0.939071 0.410756
v -0.119429 0.878657 0.410756
v -0.445658 0.005297 -0.551832
v -0.361395 0.005297 -0.551832
v -0.445142 0.228165 -0.551832
v -0.361911 0.215020 -0.551832
v -0.421096 0.506971 -0.551832
v -0.337865 0.493826 -0.551832
v -0.350482 0.784552 -0.551832
v -0.282060 0.735400 -0.551832
v -0.178134 0.939071 -0.551832
v -0.119429 0.878657 -0.551832
v 0.445658 0.005297 0.423205
v 0.361395 0.005297 0.423205
v 0.445142 0.228165 0.410756
v 0.361911 0.215020 0.410756
v 0.421096 0.506971 0.410756
v 0.337865 0.493826 0.410756
v 0.350482 0.784552 0.410756
v 0.282060 0.735400 0.410756
v 0.178134 0.939071 0.410756
v 0.119429 0.878657 0.410756
v 0.445658 0.005297 -0.551832
v 0.361395 0.005297 -0.551832
v 0.445142 0.228165 -0.551832
v 0.361911 0.215020 -0.551832
v 0.421096 0.506971 -0.551832
v 0.337865 0.493826 -0.551832
v 0.350482 0.784552 -0.551832
v 0.282060 0.735400 -0.551832
v 0.178134 0.939071 -0.551832
v 0.119429 0.878657 -0.551832
v 0.000000 1.001910 0.410756
v 0.000000 0.920371 0.410756
v 0.000000 1.001910 -0.551832
v 0.000000 0.920371 -0.551832
vn -0.996300 0.085900 0.000000
vn -0.667500 0.744600 0.000000
vn -0.332700 0.943000 0.000000
vn -0.969100 0.246500 0.000000
vn -1.000000 0.002300 0.000000
vn -0.000000 0.000000 -1.000000
vn -0.000000 0.000000 1.000000
vn 0.000000 -1.000000 0.000000
vn 0.996300 0.085900 0.000000
vn 0.667500 0.744600 0.000000
vn -0.329700 -0.944100 0.000000
vn 0.332700 0.943000 0.000000
vn 0.969100 0.246500 0.000000
vn 1.000000 0.002300 0.000000
vn -0.974300 -0.225100 0.000000
vn -0.004500 0.057500 0.998300
vn -0.996300 -0.085900 0.000000
vn 0.329700 -0.944100 0.000000
vn -1.000000 0.002500 0.000000
vn -0.661000 -0.750400 0.000000
vn 0.004500 0.057500 0.998300
vn 0.661000 -0.750400 0.000000
vn 0.974300 -0.225100 0.000000
vn 0.996300 -0.085900 0.000000
vn 1.000000 0.002500 0.000000
usemtl LightRock.001
s off
f 5//1 15//1 13//1 3//1
f 9//2 19//2 17//2 7//2
f 9//3 41//3 43//3 19//3
f 7//4 17//4 15//4 5//4
f 3//5 13//5 11//5 1//5
f 19//6 43//6 44//6 20//6
f 12//6 11//6 13//6 14//6
f 5//7 6//7 8//7 7//7
f 22//8 32//8 31//8 21//8
f 18//6 17//6 19//6 20//6
f 14//6 13//6 15//6 16//6
f 16//6 15//6 17//6 18//6
f 23//9 33//9 35//9 25//9
f 27//10 37//10 39//10 29//10
f 40//11 30//11 42//11 44//11
f 29//12 39//12 43//12 41//12
f 25//13 35//13 37//13 27//13
f 21//14 31//14 33//14 23//14
f 39//6 40//6 44//6 43//6
f 28//15 38//15 36//15 26//15
f 21//16 23//16 24//16 22//16
f 32//6 34//6 33//6 31//6
f 23//7 25//7 26//7 24//7
f 38//6 40//6 39//6 37//6
f 34//6 36//6 35//6 33//6
f 36//6 38//6 37//6 35//6
f 1//8 11//8 12//8 2//8
f 26//17 36//17 34//17 24//17
f 25//7 27//7 28//7 26//7
f 44//18 42//18 10//18 20//18
f 34//19 32//19 22//19 24//19
f 7//7 8//7 10//7 9//7
f 3//7 4//7 6//7 5//7
f 10//7 42//7 41//7 9//7
f 30//20 40//20 38//20 28//20
f 27//7 29//7 30//7 28//7
f 1//21 2//21 4//21 3//21
f 30//7 29//7 41//7 42//7
f 8//22 18//22 20//22 10//22
f 6//23 16//23 18//23 8//23
f 6//24 4//24 14//24 16//24
f 4//25 2//25 12//25 14//25
