# Blender v2.76 (sub 0) OBJ File: 'WallEntranceBricks.blend'
# www.blender.org
mtllib WallEntranceBricks.mtl
o WallEntranceBricks_Cube.035
v -0.766525 1.144094 -0.065261
v -0.766525 1.144094 -0.396199
v -0.766525 -0.001898 -0.396199
v -0.766525 -0.001898 -0.065261
v -0.766525 1.144094 0.089286
v -0.766525 -0.001898 0.089286
v -0.766525 1.393091 -0.065261
v -0.766525 1.393091 -0.396199
v 0.767188 1.144094 -0.396199
v 0.767188 -0.001898 -0.396199
v 0.445379 -0.001898 -0.396199
v 0.444879 0.213791 -0.396199
v 0.420846 0.492597 -0.396199
v 0.350274 0.770178 -0.396199
v 0.178029 0.924697 -0.396199
v 0.000000 0.987536 -0.396199
v -0.178028 0.924697 -0.396199
v -0.350274 0.770178 -0.396199
v -0.420845 0.492597 -0.396199
v -0.444877 0.213791 -0.396199
v -0.445377 -0.001898 -0.396199
v -0.445377 -0.001898 -0.065261
v -0.722554 0.145453 0.089286
v -0.722554 0.222016 0.089286
v -0.586340 0.222016 0.089286
v -0.420845 0.492597 0.089286
v -0.350274 0.770178 0.089286
v -0.466922 0.974111 0.089286
v -0.466922 0.897549 0.089286
v -0.603137 0.897549 0.089286
v -0.445377 -0.001898 0.089286
v -0.444877 0.213791 0.089286
v -0.586340 0.145453 0.089286
v -0.603137 0.974112 0.089286
v -0.178028 0.924697 0.089286
v 0.000000 0.987536 0.089286
v 0.178029 0.924697 0.089286
v 0.350274 0.770178 0.089286
v 0.389577 0.949884 0.089286
v 0.389577 1.026447 0.089286
v 0.525791 1.026447 0.089286
v 0.767188 1.144094 0.089286
v 0.420846 0.492597 0.089286
v 0.444879 0.213791 0.089286
v 0.556889 0.305771 0.089286
v 0.556889 0.382333 0.089286
v 0.525791 0.949884 0.089286
v 0.445379 -0.001898 0.089286
v 0.769545 -0.001898 0.089286
v 0.693103 0.382333 0.089286
v 0.693103 0.305771 0.089286
v -0.766525 1.393091 0.163014
v -0.766525 1.144094 0.163014
v -0.670613 1.393091 -0.065261
v -0.479081 1.393091 -0.065261
v -0.287548 1.393091 -0.065261
v -0.096016 1.393091 -0.065261
v 0.095518 1.393091 -0.065261
v 0.287050 1.393091 -0.065261
v 0.478584 1.393091 -0.065261
v 0.670115 1.393091 -0.065261
v 0.767188 1.393091 -0.065261
v 0.767188 1.393091 -0.396199
v 0.767188 1.144094 -0.065261
v 0.767188 -0.001898 -0.065261
v 0.445379 -0.001898 -0.065261
v 0.767188 1.144094 0.163014
v 0.767188 1.393091 0.163014
v 0.670115 1.393091 0.163014
v 0.478584 1.393091 0.163014
v 0.287050 1.393091 0.163014
v 0.095518 1.393091 0.163014
v -0.096016 1.393091 0.163014
v -0.287548 1.393091 0.163014
v -0.479081 1.393091 0.163014
v -0.670613 1.393091 0.163014
v -0.766378 1.547553 0.163014
v -0.766378 1.547553 -0.065261
v -0.670613 1.547553 -0.065261
v -0.479081 1.547553 -0.065261
v -0.287548 1.547553 -0.065261
v -0.096016 1.547553 -0.065261
v 0.095518 1.547553 -0.065261
v 0.287050 1.547553 -0.065261
v 0.478584 1.547553 -0.065261
v 0.670115 1.547553 -0.065261
v 0.765881 1.547553 -0.065261
v 0.765881 1.547553 0.163014
v 0.670115 1.547553 0.163014
v 0.478584 1.547553 0.163014
v 0.287050 1.547553 0.163014
v 0.095518 1.547553 0.163014
v -0.096016 1.547553 0.163014
v -0.287548 1.547553 0.163014
v -0.479081 1.547553 0.163014
v -0.670613 1.547553 0.163014
v -0.586718 0.222016 0.114658
v -0.586718 0.145453 0.114658
v -0.722902 0.222016 0.112637
v -0.722902 0.145453 0.112637
v 0.692726 0.382333 0.114657
v 0.692726 0.305771 0.114657
v 0.556543 0.382333 0.112636
v 0.556543 0.305771 0.112636
v 0.525414 1.026447 0.114657
v 0.525414 0.949884 0.114657
v 0.389230 1.026447 0.112636
v 0.389230 0.949884 0.112636
v -0.467301 0.974111 0.114657
v -0.467301 0.897549 0.114657
v -0.603484 0.974112 0.112636
v -0.603484 0.897549 0.112636
vn -1.000000 0.000000 0.000000
vn -0.000000 0.000000 -1.000000
vn 0.000000 -1.000000 0.000000
vn -0.000000 0.000000 1.000000
vn 0.000000 1.000000 -0.000000
vn 1.000000 0.000000 0.000000
vn -1.000000 -0.002300 0.000000
vn -0.996300 -0.085900 0.000000
vn -0.969200 -0.246400 0.000000
vn -0.667800 -0.744400 0.000000
vn -0.332800 -0.943000 0.000000
vn 0.332800 -0.943000 0.000000
vn 0.667800 -0.744400 0.000000
vn 0.969200 -0.246400 0.000000
vn 0.996300 -0.085900 0.000000
vn 1.000000 -0.002300 0.000000
vn -1.000000 0.001000 0.000000
vn 1.000000 0.001000 -0.007600
vn 1.000000 0.008500 0.000000
vn 0.999900 0.000000 0.014900
vn -0.014800 0.000000 0.999900
vn -0.999900 0.000000 -0.014900
vn 0.999900 0.000000 0.014800
vn -0.999900 0.000000 -0.014800
usemtl LightRock
s off
f 1//1 2//1 3//1 4//1
f 5//1 1//1 4//1 6//1
f 7//1 8//1 2//1 1//1
f 9//2 10//2 11//2 12//2 13//2 14//2 15//2 16//2 17//2 18//2 19//2 20//2 21//2 3//2 2//2
f 22//3 4//3 3//3 21//3
f 5//4 6//4 23//4 24//4 25//4 26//4 27//4 28//4 29//4 30//4
f 6//4 31//4 32//4 26//4 25//4 33//4 23//4
f 5//4 30//4 34//4 28//4 27//4 35//4 36//4 37//4 38//4 39//4 40//4 41//4 42//4
f 38//4 43//4 44//4 45//4 46//4 42//4 41//4 47//4 39//4
f 44//4 48//4 49//4 42//4 46//4 50//4 51//4 45//4
f 52//1 7//1 1//1 5//1 53//1
f 31//3 6//3 4//3 22//3
f 8//5 7//5 54//5 55//5 56//5 57//5 58//5 59//5 60//5 61//5 62//5 63//5
f 8//2 63//2 9//2 2//2
f 9//6 64//6 65//6 10//6
f 10//3 65//3 66//3 11//3
f 12//7 11//7 66//7 48//7 44//7
f 44//8 43//8 13//8 12//8
f 43//9 38//9 14//9 13//9
f 38//10 37//10 15//10 14//10
f 37//11 36//11 16//11 15//11
f 36//12 35//12 17//12 16//12
f 35//13 27//13 18//13 17//13
f 27//14 26//14 19//14 18//14
f 26//15 32//15 20//15 19//15
f 32//16 31//16 22//16 21//16 20//16
f 5//3 42//3 67//3 53//3
f 65//3 49//3 48//3 66//3
f 68//4 69//4 70//4 71//4 72//4 73//4 74//4 75//4 76//4 52//4 53//4 67//4
f 7//17 52//17 77//17 78//17
f 54//2 7//2 78//2 79//2
f 55//5 54//5 76//5 75//5
f 56//2 55//2 80//2 81//2
f 57//5 56//5 74//5 73//5
f 58//2 57//2 82//2 83//2
f 59//5 58//5 72//5 71//5
f 60//2 59//2 84//2 85//2
f 61//5 60//5 70//5 69//5
f 62//2 61//2 86//2 87//2
f 63//6 62//6 64//6 9//6
f 64//18 42//18 49//18 65//18
f 62//6 68//6 67//6 42//6 64//6
f 69//4 68//4 88//4 89//4
f 71//4 70//4 90//4 91//4
f 73//4 72//4 92//4 93//4
f 75//4 74//4 94//4 95//4
f 52//4 76//4 96//4 77//4
f 78//5 77//5 96//5 79//5
f 54//6 79//6 96//6 76//6
f 55//1 75//1 95//1 80//1
f 56//6 81//6 94//6 74//6
f 81//5 80//5 95//5 94//5
f 57//1 73//1 93//1 82//1
f 58//6 83//6 92//6 72//6
f 83//5 82//5 93//5 92//5
f 59//1 71//1 91//1 84//1
f 70//6 60//6 85//6 90//6
f 85//5 84//5 91//5 90//5
f 61//1 69//1 89//1 86//1
f 68//19 62//19 87//19 88//19
f 87//5 86//5 89//5 88//5
usemtl DarkRock
f 25//20 97//20 98//20 33//20
f 24//5 99//5 97//5 25//5
f 97//21 99//21 100//21 98//21
f 33//3 98//3 100//3 23//3
f 23//22 100//22 99//22 24//22
f 50//23 101//23 102//23 51//23
f 46//5 103//5 101//5 50//5
f 101//21 103//21 104//21 102//21
f 51//3 102//3 104//3 45//3
f 45//24 104//24 103//24 46//24
f 41//20 105//20 106//20 47//20
f 40//5 107//5 105//5 41//5
f 105//21 107//21 108//21 106//21
f 47//3 106//3 108//3 39//3
f 39//22 108//22 107//22 40//22
f 28//20 109//20 110//20 29//20
f 34//5 111//5 109//5 28//5
f 109//21 111//21 112//21 110//21
f 29//3 110//3 112//3 30//3
f 30//22 112//22 111//22 34//22
