# Blender v2.76 (sub 0) OBJ File: 'WallEntrance.blend'
# www.blender.org
mtllib WallEntrance.mtl
o WallEntrance_Cube.045
v -0.766525 1.159043 -0.065261
v -0.766525 1.159043 -0.396199
v -0.766525 0.013052 -0.396199
v -0.766525 0.013052 -0.065261
v -0.766525 1.159043 0.089286
v -0.766525 0.013052 0.089286
v -0.766525 1.408040 -0.065261
v -0.766525 1.408040 -0.396199
v 0.767188 1.159043 -0.396199
v 0.767188 0.013052 -0.396199
v 0.445378 0.013052 -0.396199
v 0.444878 0.228741 -0.396199
v 0.420846 0.507547 -0.396199
v 0.350274 0.785127 -0.396199
v 0.178029 0.939646 -0.396199
v 0.000000 1.002486 -0.396199
v -0.178029 0.939646 -0.396199
v -0.350274 0.785127 -0.396199
v -0.420845 0.507547 -0.396199
v -0.444877 0.228741 -0.396199
v -0.445377 0.013052 -0.396199
v -0.445377 0.013052 -0.065261
v -0.445377 0.013052 0.089286
v -0.444877 0.228741 0.089286
v -0.420845 0.507547 0.089286
v -0.350274 0.785127 0.089286
v -0.178029 0.939646 0.089286
v 0.000000 1.002486 0.089286
v 0.178029 0.939646 0.089286
v 0.350274 0.785127 0.089286
v 0.420846 0.507547 0.089286
v 0.444878 0.228741 0.089286
v 0.445378 0.013052 0.089286
v 0.769546 0.013052 0.089286
v 0.767188 1.159043 0.089286
v -0.766525 1.408040 0.163014
v -0.766525 1.159043 0.163014
v -0.670613 1.408040 -0.065261
v -0.479081 1.408040 -0.065261
v -0.287548 1.408040 -0.065261
v -0.096016 1.408040 -0.065261
v 0.095518 1.408040 -0.065261
v 0.287050 1.408040 -0.065261
v 0.478583 1.408040 -0.065261
v 0.670115 1.408040 -0.065261
v 0.767188 1.408040 -0.065261
v 0.767188 1.408040 -0.396199
v 0.767188 1.159043 -0.065261
v 0.767188 0.013052 -0.065261
v 0.445378 0.013052 -0.065261
v 0.767188 1.159043 0.163014
v 0.767188 1.408040 0.163014
v 0.670115 1.408040 0.163014
v 0.478583 1.408040 0.163014
v 0.287050 1.408040 0.163014
v 0.095518 1.408040 0.163014
v -0.096016 1.408040 0.163014
v -0.287548 1.408040 0.163014
v -0.479081 1.408040 0.163014
v -0.670613 1.408040 0.163014
v -0.766379 1.562502 0.163014
v -0.766379 1.562502 -0.065261
v -0.670613 1.562502 -0.065261
v -0.479081 1.562502 -0.065261
v -0.287548 1.562502 -0.065261
v -0.096016 1.562502 -0.065261
v 0.095518 1.562502 -0.065261
v 0.287050 1.562502 -0.065261
v 0.478583 1.562502 -0.065261
v 0.670115 1.562502 -0.065261
v 0.765881 1.562502 -0.065261
v 0.765881 1.562502 0.163014
v 0.670115 1.562502 0.163014
v 0.478583 1.562502 0.163014
v 0.287050 1.562502 0.163014
v 0.095518 1.562502 0.163014
v -0.096016 1.562502 0.163014
v -0.287548 1.562502 0.163014
v -0.479081 1.562502 0.163014
v -0.670613 1.562502 0.163014
vn -1.000000 0.000000 0.000000
vn -0.000000 0.000000 -1.000000
vn 0.000000 -1.000000 0.000000
vn 0.000000 0.000000 1.000000
vn 0.000000 1.000000 -0.000000
vn 1.000000 0.000000 0.000000
vn 1.000000 0.001000 -0.007600
vn -1.000000 0.000900 0.000000
vn 1.000000 0.008500 0.000000
vn 0.996300 -0.085900 0.000000
vn 0.969200 -0.246400 0.000000
vn 1.000000 -0.002300 0.000000
vn 0.667800 -0.744400 0.000000
vn 0.332800 -0.943000 0.000000
vn -0.332800 -0.943000 0.000000
vn -0.667800 -0.744400 0.000000
vn -0.969200 -0.246400 0.000000
vn -0.996300 -0.085900 0.000000
vn -1.000000 -0.002300 0.000000
usemtl LightRock
s off
f 1//1 2//1 3//1 4//1
f 5//1 1//1 4//1 6//1
f 7//1 8//1 2//1 1//1
f 9//2 10//2 11//2 12//2 13//2 14//2 15//2 16//2 17//2 18//2 19//2 20//2 21//2 3//2 2//2
f 22//3 4//3 3//3 21//3
f 5//4 6//4 23//4 24//4 25//4 26//4 27//4 28//4 29//4 30//4 31//4 32//4 33//4 34//4 35//4
f 36//1 7//1 1//1 5//1 37//1
f 23//3 6//3 4//3 22//3
f 8//5 7//5 38//5 39//5 40//5 41//5 42//5 43//5 44//5 45//5 46//5 47//5
f 8//2 47//2 9//2 2//2
f 9//6 48//6 49//6 10//6
f 10//3 49//3 50//3 11//3
f 5//3 35//3 51//3 37//3
f 49//3 34//3 33//3 50//3
f 35//7 34//7 49//7 48//7
f 52//4 53//4 54//4 55//4 56//4 57//4 58//4 59//4 60//4 36//4 37//4 51//4
f 7//8 36//8 61//8 62//8
f 38//2 7//2 62//2 63//2
f 39//5 38//5 60//5 59//5
f 40//2 39//2 64//2 65//2
f 41//5 40//5 58//5 57//5
f 42//2 41//2 66//2 67//2
f 43//5 42//5 56//5 55//5
f 44//2 43//2 68//2 69//2
f 45//5 44//5 54//5 53//5
f 46//2 45//2 70//2 71//2
f 47//6 46//6 48//6 9//6
f 46//6 52//6 51//6 35//6 48//6
f 53//4 52//4 72//4 73//4
f 55//4 54//4 74//4 75//4
f 57//4 56//4 76//4 77//4
f 59//4 58//4 78//4 79//4
f 36//4 60//4 80//4 61//4
f 62//5 61//5 80//5 63//5
f 38//6 63//6 80//6 60//6
f 39//1 59//1 79//1 64//1
f 40//6 65//6 78//6 58//6
f 65//5 64//5 79//5 78//5
f 41//1 57//1 77//1 66//1
f 42//6 67//6 76//6 56//6
f 67//5 66//5 77//5 76//5
f 43//1 55//1 75//1 68//1
f 54//6 44//6 69//6 74//6
f 69//5 68//5 75//5 74//5
f 45//1 53//1 73//1 70//1
f 52//9 46//9 71//9 72//9
f 71//5 70//5 73//5 72//5
f 25//10 24//10 20//10 19//10
f 26//11 25//11 19//11 18//11
f 24//12 23//12 22//12 21//12 20//12
f 27//13 26//13 18//13 17//13
f 28//14 27//14 17//14 16//14
f 29//15 28//15 16//15 15//15
f 30//16 29//16 15//16 14//16
f 31//17 30//17 14//17 13//17
f 32//18 31//18 13//18 12//18
f 12//19 11//19 50//19 33//19 32//19
