# Blender v2.76 (sub 0) OBJ File: 'Watchtower.blend'
# www.blender.org
mtllib Watchtower.mtl
o Watchtower_Cube.018
v -0.597891 2.027028 0.597891
v -0.597891 2.149746 0.597891
v -0.597891 2.027028 -0.597891
v -0.597891 2.149746 -0.597891
v 0.597891 2.027028 0.597891
v 0.597891 2.149746 0.597891
v 0.597891 2.027028 -0.597891
v 0.597891 2.149746 -0.597891
v -0.597891 2.149746 0.448419
v -0.597891 2.149746 -0.448419
v -0.597891 2.027028 -0.448419
v -0.597891 2.027028 0.448419
v 0.597891 2.149746 -0.448419
v 0.597891 2.149746 0.448419
v 0.597891 2.027028 0.448419
v 0.597891 2.027028 -0.448419
v -0.448419 2.149746 -0.597891
v 0.448419 2.149746 -0.597891
v 0.448419 2.027028 -0.597891
v -0.448419 2.027028 -0.597891
v 0.448419 2.149746 0.597891
v -0.448419 2.149746 0.597891
v -0.448419 2.027028 0.597891
v 0.448419 2.027028 0.597891
v 0.448419 2.149746 0.448419
v -0.448419 2.149746 0.448419
v 0.448419 2.149746 -0.448419
v -0.448419 2.149746 -0.448419
v -0.448419 2.027028 0.448419
v 0.448419 2.027028 0.448419
v -0.448419 2.027028 -0.448419
v 0.438494 2.493739 -0.438494
v 0.584658 2.493739 -0.438494
v 0.438494 2.493739 0.438494
v 0.438494 2.493739 0.584658
v 0.448419 2.027028 -0.448419
v -0.746772 2.027028 0.597891
v -0.746772 2.149746 0.597891
v -0.746772 2.027028 0.448419
v -0.746772 2.149746 0.448419
v -0.597891 2.027028 0.746772
v -0.597891 2.149746 0.746772
v -0.448419 2.149746 0.746772
v -0.448419 2.027028 0.746772
v 0.597891 2.149746 0.746772
v 0.597891 2.027028 0.746772
v 0.448419 2.027028 0.746772
v 0.448419 2.149746 0.746772
v 0.746772 2.149746 0.448419
v 0.746772 2.149746 0.597891
v 0.746772 2.027028 0.597891
v 0.746772 2.027028 0.448419
v 0.746772 2.149746 -0.597891
v 0.746772 2.027028 -0.597891
v 0.746772 2.027028 -0.448419
v 0.746772 2.149746 -0.448419
v 0.448419 2.149746 -0.746772
v 0.597891 2.149746 -0.746772
v 0.597891 2.027028 -0.746772
v 0.448419 2.027028 -0.746772
v -0.597891 2.149746 -0.746772
v -0.597891 2.027028 -0.746772
v -0.448419 2.027028 -0.746772
v -0.448419 2.149746 -0.746772
v -0.746772 2.149746 -0.448419
v -0.746772 2.149746 -0.597891
v -0.746772 2.027028 -0.597891
v -0.746772 2.027028 -0.448419
v -0.438494 2.493739 -0.584658
v -0.584658 2.493739 -0.584658
v -0.584658 2.493739 -0.438494
v -0.438494 2.493739 -0.438494
v -0.438494 2.493739 0.438494
v -0.584658 2.493739 0.438494
v -0.584658 2.493739 0.584658
v -0.438494 2.493739 0.584658
v 0.584658 2.493739 0.584658
v 0.584658 2.493739 0.438494
v 0.584658 2.493739 -0.584658
v 0.438494 2.493739 -0.584658
v 0.538293 3.069997 0.403719
v 0.411375 3.069997 0.411375
v 0.538293 3.069997 0.538293
v 0.403719 3.069997 0.538293
v -0.538293 3.069997 -0.538293
v -0.403719 3.069997 -0.538293
v -0.411375 3.069997 -0.411375
v -0.538293 3.069997 -0.403719
v -0.411375 3.069997 0.411375
v -0.538293 3.069997 0.403719
v -0.538293 3.069997 0.538293
v -0.403719 3.069997 0.538293
v 0.403719 3.069997 -0.538293
v 0.538293 3.069997 -0.538293
v 0.411375 3.069997 -0.411375
v 0.538293 3.069997 -0.403719
v -0.670544 -0.008562 0.502908
v -0.670544 -0.008562 0.670544
v -0.502908 -0.008562 -0.670544
v -0.670544 -0.008562 -0.670544
v 0.502908 -0.008562 0.670544
v 0.670544 -0.008562 0.670544
v 0.670544 -0.008562 0.502908
v 0.502908 -0.008562 0.502908
v 0.502908 -0.008562 -0.502908
v 0.670544 -0.008562 -0.502908
v 0.670544 -0.008562 -0.670544
v 0.502908 -0.008562 -0.670544
v -0.502908 -0.008562 0.670544
v -0.502908 -0.008562 0.502908
v -0.670544 -0.008562 -0.502908
v -0.502908 -0.008562 -0.502908
v -0.470701 1.079746 0.470701
v -0.627601 1.079746 0.470701
v -0.470701 1.079746 0.627601
v -0.627601 1.079746 0.627601
v 0.627601 1.079746 0.470701
v 0.470701 1.079746 0.470701
v 0.627601 1.079746 0.627601
v 0.470701 1.079746 0.627601
v 0.470701 1.079746 -0.627601
v 0.470701 1.079746 -0.470701
v 0.627601 1.079746 -0.627601
v 0.627601 1.079746 -0.470701
v -0.470701 1.079746 -0.470701
v -0.470701 1.079746 -0.627601
v -0.627601 1.079746 -0.627601
v -0.627601 1.079746 -0.470701
v 0.466486 1.222156 -0.466486
v 0.621982 1.222156 -0.466486
v 0.466486 1.222156 -0.621982
v 0.621982 1.222156 -0.621982
v 0.466521 1.220982 0.466521
v 0.622028 1.220982 0.466521
v -0.466514 1.221236 -0.622018
v -0.466514 1.221236 -0.466514
v -0.622021 1.221152 0.466516
v -0.466516 1.221152 0.466516
v -0.466516 1.221152 0.622021
v -0.622021 1.221152 0.622021
v 0.466521 1.220982 0.622028
v 0.622028 1.220982 0.622028
v -0.622018 1.221236 -0.622018
v -0.622018 1.221236 -0.466514
v -0.548500 2.941576 0.411375
v -0.411375 2.941576 0.411375
v -0.411375 2.941576 0.548500
v -0.548500 2.941576 0.548500
v -0.548500 2.941564 -0.411375
v 0.411375 2.942066 0.411375
v 0.411375 2.942066 0.548500
v 0.411375 2.940636 -0.411375
v 0.411375 2.940636 -0.548500
v 0.548500 2.940636 -0.548500
v 0.548500 2.940636 -0.411375
v -0.548500 2.941564 -0.548500
v -0.411375 2.941564 -0.411375
v -0.411375 2.941564 -0.548500
v 0.548500 2.942066 0.411375
v 0.548500 2.942066 0.548500
vn 0.000000 1.000000 0.000000
vn 1.000000 0.000000 0.000000
vn 0.000000 0.000000 -1.000000
vn 0.000000 -1.000000 0.000000
vn 0.000000 0.039400 -0.999200
vn -0.999300 0.038400 0.000000
vn -0.999600 -0.029600 0.000000
vn -1.000000 0.000000 0.000000
vn 0.000000 0.038400 -0.999300
vn 0.000000 -0.028800 0.999600
vn 0.000000 -0.029600 -0.999600
vn 0.000000 0.038400 0.999300
vn 0.999300 0.038400 0.000000
vn 0.999600 -0.029600 0.000000
vn 0.000000 0.000000 1.000000
vn 0.999600 -0.028800 0.000000
vn 0.000000 -0.028800 -0.999600
vn -0.999600 -0.028800 0.000000
vn -0.001100 -1.000000 0.000000
vn -0.996900 0.079200 0.000000
vn 0.000000 0.078900 -0.996900
vn 0.000000 -1.000000 0.001700
vn 0.000000 0.079200 0.996900
vn 0.996900 0.078700 0.000000
vn 0.996800 0.080400 0.000000
vn 0.000000 0.078700 -0.996900
vn 0.000000 -0.029600 0.999600
vn 0.999200 0.039400 0.000000
vn -0.999200 0.039400 0.000000
vn 0.000000 0.039400 0.999200
vn 0.000000 -0.022500 -0.999700
vn -0.000000 1.000000 0.001300
vn -0.001000 1.000000 0.000000
vn 0.000000 0.029900 -0.999600
vn -0.999700 -0.022400 0.000000
vn 0.000000 -0.022400 0.999700
vn 0.999600 0.029900 0.000000
vn -0.999700 -0.022500 0.000000
vn 0.999700 -0.022500 0.000000
vn -0.000000 0.029900 0.999600
vn -0.999600 0.029900 0.000000
vn 0.000200 1.000000 0.000000
vn 0.000000 1.000000 0.000100
vn 0.000000 -0.022500 0.999700
vn 0.000000 0.080500 0.996800
vn -0.996800 0.080500 0.000000
vn 0.998200 -0.060400 0.000000
vn 0.000000 -0.060400 -0.998200
vn -0.000000 0.079400 0.996800
vn 0.000600 -1.000000 0.000000
vn 0.000000 0.080600 -0.996700
vn 0.000000 -0.060600 0.998200
vn 0.996700 0.080600 0.000000
vn -0.998200 -0.060600 0.000000
vn 0.000000 0.080500 -0.996800
vn 0.000000 0.079200 -0.996900
vn 0.996800 0.079500 0.000000
vn 0.000000 -0.060400 0.998200
vn 0.000000 0.080400 0.996800
vn -0.998200 -0.060400 0.000000
vn 0.000000 0.079500 0.996800
vn 0.996900 0.079100 -0.000100
usemtl LightWood
s off
f 90//1 89//1 87//1 88//1
f 8//2 7//2 59//2 58//2
f 15//3 14//3 49//3 52//3
f 1//4 23//4 44//4 41//4
f 10//1 4//1 66//1 65//1
f 121//5 123//5 107//5 108//5
f 9//6 2//6 75//6 74//6
f 14//2 15//2 16//2 13//2
f 122//7 121//7 108//7 105//7
f 9//8 10//8 11//8 12//8
f 7//3 8//3 53//3 54//3
f 12//4 1//4 37//4 39//4
f 26//1 25//1 27//1 28//1
f 8//9 18//9 80//9 79//9
f 28//10 27//10 32//10 72//10
f 118//11 117//11 103//11 104//11
f 29//4 30//4 24//4 23//4
f 30//4 36//4 16//4 15//4
f 3//4 11//4 68//4 67//4
f 4//6 10//6 71//6 70//6
f 17//9 4//9 70//9 69//9
f 2//12 22//12 76//12 75//12
f 13//13 8//13 79//13 33//13
f 22//12 21//12 35//12 76//12
f 14//13 13//13 33//13 78//13
f 126//14 125//14 112//14 99//14
f 6//1 21//1 48//1 45//1
f 21//15 22//15 23//15 24//15
f 12//4 11//4 31//4 29//4
f 17//2 20//2 63//2 64//2
f 30//4 29//4 31//4 36//4
f 6//13 14//13 78//13 77//13
f 17//3 18//3 19//3 20//3
f 38//8 40//8 39//8 37//8
f 2//1 9//1 40//1 38//1
f 9//3 12//3 39//3 40//3
f 1//15 2//15 38//15 37//15
f 43//15 42//15 41//15 44//15
f 22//1 2//1 42//1 43//1
f 23//2 22//2 43//2 44//2
f 2//8 1//8 41//8 42//8
f 45//15 48//15 47//15 46//15
f 5//2 6//2 45//2 46//2
f 24//4 5//4 46//4 47//4
f 21//8 24//8 47//8 48//8
f 49//2 50//2 51//2 52//2
f 6//15 5//15 51//15 50//15
f 5//4 15//4 52//4 51//4
f 14//1 6//1 50//1 49//1
f 19//4 36//4 31//4 20//4
f 13//15 16//15 55//15 56//15
f 53//2 56//2 55//2 54//2
f 8//1 13//1 56//1 53//1
f 57//3 58//3 59//3 60//3
f 18//1 8//1 58//1 57//1
f 19//8 18//8 57//8 60//8
f 7//4 19//4 60//4 59//4
f 61//3 64//3 63//3 62//3
f 20//4 3//4 62//4 63//4
f 3//8 4//8 61//8 62//8
f 4//1 17//1 64//1 61//1
f 16//4 7//4 54//4 55//4
f 11//15 10//15 65//15 68//15
f 65//8 66//8 67//8 68//8
f 4//3 3//3 67//3 66//3
f 10//6 9//6 74//6 71//6
f 26//16 28//16 72//16 73//16
f 25//17 26//17 73//17 34//17
f 27//18 25//18 34//18 32//18
f 18//9 17//9 69//9 80//9
f 73//1 72//1 71//1 74//1
f 69//1 72//1 32//1 80//1
f 34//1 73//1 76//1 35//1
f 78//1 33//1 32//1 34//1
f 21//12 6//12 77//12 35//12
f 92//1 89//1 90//1 91//1
f 96//1 94//1 93//1 95//1
f 87//1 86//1 85//1 88//1
f 83//1 81//1 82//1 84//1
f 153//19 152//19 157//19 158//19
f 95//8 152//8 150//8 82//8
f 145//20 148//20 91//20 90//20
f 93//21 153//21 158//21 86//21
f 146//4 145//4 149//4 157//4
f 152//22 155//22 159//22 150//22
f 148//23 147//23 92//23 91//23
f 155//24 154//24 94//24 96//24
f 156//20 149//20 88//20 85//20
f 77//25 78//25 159//25 160//25
f 154//26 153//26 93//26 94//26
f 95//1 93//1 86//1 87//1
f 105//4 108//4 107//4 106//4
f 101//4 104//4 103//4 102//4
f 98//4 97//4 110//4 109//4
f 111//4 100//4 99//4 112//4
f 127//5 126//5 99//5 100//5
f 124//27 122//27 105//27 106//27
f 123//28 124//28 106//28 107//28
f 128//29 127//29 100//29 111//29
f 114//11 113//11 110//11 97//11
f 113//14 115//14 109//14 110//14
f 117//28 119//28 102//28 103//28
f 115//30 116//30 98//30 109//30
f 120//7 118//7 104//7 101//7
f 116//29 114//29 97//29 98//29
f 125//27 128//27 111//27 112//27
f 119//30 120//30 101//30 102//30
f 140//29 137//29 114//29 116//29
f 139//30 140//30 116//30 115//30
f 142//30 141//30 120//30 119//30
f 30//31 15//31 134//31 133//31
f 124//28 130//28 134//28 117//28
f 132//28 130//28 124//28 123//28
f 130//32 129//32 133//32 134//32
f 131//5 132//5 123//5 121//5
f 144//29 143//29 127//29 128//29
f 129//33 131//33 135//33 136//33
f 19//34 7//34 132//34 131//34
f 36//35 19//35 131//35 129//35
f 16//36 36//36 129//36 130//36
f 7//37 16//37 130//37 132//37
f 24//38 30//38 133//38 141//38
f 121//4 122//4 125//4 126//4
f 131//5 121//5 126//5 135//5
f 12//31 29//31 138//31 137//31
f 29//39 23//39 139//39 138//39
f 23//40 1//40 140//40 139//40
f 1//41 12//41 137//41 140//41
f 5//40 24//40 141//40 142//40
f 134//28 142//28 119//28 117//28
f 122//4 124//4 117//4 118//4
f 129//7 122//7 118//7 133//7
f 15//37 5//37 142//37 134//37
f 3//34 20//34 135//34 143//34
f 20//39 31//39 136//39 135//39
f 11//41 3//41 143//41 144//41
f 143//5 135//5 126//5 127//5
f 114//29 137//29 144//29 128//29
f 113//11 138//11 133//11 118//11
f 138//42 139//42 141//42 133//42
f 137//43 138//43 136//43 144//43
f 113//4 114//4 128//4 125//4
f 138//14 113//14 125//14 136//14
f 122//27 129//27 136//27 125//27
f 31//44 11//44 144//44 136//44
f 139//30 115//30 120//30 141//30
f 115//4 113//4 118//4 120//4
f 75//45 76//45 147//45 148//45
f 74//46 75//46 148//46 145//46
f 76//47 73//47 146//47 147//47
f 73//48 74//48 145//48 146//48
f 89//1 92//1 84//1 82//1
f 92//49 147//49 151//49 84//49
f 147//50 146//50 150//50 151//50
f 79//51 80//51 153//51 154//51
f 32//52 33//52 155//52 152//52
f 33//53 79//53 154//53 155//53
f 80//54 32//54 152//54 153//54
f 70//46 71//46 149//46 156//46
f 72//47 69//47 158//47 157//47
f 152//15 95//15 87//15 157//15
f 69//55 70//55 156//55 158//55
f 158//56 156//56 85//56 86//56
f 160//57 159//57 81//57 83//57
f 145//20 90//20 88//20 149//20
f 71//58 72//58 157//58 149//58
f 89//2 146//2 157//2 87//2
f 96//1 95//1 82//1 81//1
f 146//3 89//3 82//3 150//3
f 35//59 77//59 160//59 151//59
f 34//60 35//60 151//60 150//60
f 151//61 160//61 83//61 84//61
f 155//62 96//62 81//62 159//62
f 78//48 34//48 150//48 159//48
