# Blender v2.76 (sub 0) OBJ File: 'Well.blend'
# www.blender.org
mtllib Well.mtl
o Well_Cylinder.076
v 0.000000 0.000269 -0.322651
v 0.000000 0.353976 -0.322651
v 0.279424 0.353976 -0.161326
v 0.279424 0.000269 -0.161326
v 0.279424 0.000269 -0.080663
v 0.279424 0.000269 0.000000
v 0.279424 0.000269 0.080663
v 0.279424 0.000269 0.161326
v 0.000000 0.000269 0.322651
v -0.279425 0.000269 0.161326
v -0.279425 0.000269 0.080663
v -0.279425 0.000269 0.000000
v -0.279425 0.000269 -0.080663
v -0.279425 0.000269 -0.161326
v -0.279425 0.353976 -0.161326
v 0.000000 0.353976 -0.239852
v 0.207718 0.353976 -0.119926
v 0.279424 0.353976 -0.038934
v 0.279424 0.353976 0.000000
v 0.279424 0.353976 0.038934
v 0.279424 0.353976 0.161326
v 0.000000 0.353976 0.322651
v -0.279425 0.353976 0.161326
v -0.279425 0.353976 0.038934
v -0.279425 0.353976 0.000000
v -0.279425 0.353976 -0.038934
v -0.207718 0.353976 -0.119926
v 0.207718 0.353976 -0.028943
v 0.000000 0.036433 -0.239852
v 0.207718 0.036433 -0.119926
v 0.279424 0.636408 0.000000
v 0.279424 0.618519 -0.038934
v 0.279424 0.637454 0.002277
v 0.279424 0.620611 0.038934
v 0.207718 0.353976 0.028943
v 0.207718 0.353976 0.119926
v 0.000000 0.353976 0.239853
v -0.207718 0.353976 0.119926
v -0.207718 0.353976 0.028943
v -0.279425 0.620611 0.038934
v -0.279425 0.637454 0.002277
v -0.279425 0.636408 0.000000
v -0.279425 0.618519 -0.038934
v -0.207718 0.353976 -0.028943
v -0.207718 0.036433 -0.119926
v 0.207718 0.623109 -0.028943
v 0.207718 0.036433 -0.059963
v -0.207718 0.036433 -0.059963
v -0.207718 0.036433 0.000000
v -0.207718 0.036433 0.059963
v -0.207718 0.036433 0.119926
v 0.000000 0.036433 0.239853
v 0.207718 0.036433 0.119926
v 0.207718 0.036433 0.059963
v 0.207718 0.036433 0.000000
v 0.207718 0.625202 0.028943
v -0.207718 0.625202 0.028943
v -0.207718 0.623109 -0.028943
v 0.207718 0.353976 0.000000
v 0.207718 0.636408 0.000000
v -0.207718 0.353976 0.000000
v 0.207718 0.637454 0.002277
v -0.207718 0.636408 0.000000
v -0.207718 0.637454 0.002277
v -0.301569 0.740639 0.002277
v -0.301569 0.623654 -0.252331
v -0.301569 0.520469 -0.252331
v -0.301569 0.637454 0.002277
v -0.301569 0.623654 0.256885
v -0.301569 0.520469 0.256885
v 0.291679 0.740639 0.002277
v 0.291679 0.623654 -0.252331
v 0.291679 0.520469 -0.252331
v 0.291679 0.637454 0.002277
v 0.291679 0.623654 0.256885
v 0.291679 0.520469 0.256885
vn 0.500000 0.000000 -0.866000
vn 0.000000 -1.000000 -0.000000
vn -0.500000 0.000000 -0.866000
vn 0.000000 1.000000 0.000000
vn 1.000000 0.000000 0.000000
vn 0.500000 0.000000 0.866000
vn -0.500000 0.000000 0.866000
vn -1.000000 0.000000 0.000000
vn -0.138000 0.000000 -0.990400
vn -0.138000 0.000000 0.990400
vn 0.138000 0.000000 0.990400
vn 0.138000 0.000000 -0.990400
vn 0.000000 0.908700 -0.417500
vn 0.000000 0.000000 -1.000000
vn -0.000000 -0.908700 0.417500
vn 0.000000 0.000000 1.000000
vn 0.000000 0.908700 0.417500
vn 0.000000 -0.908700 -0.417500
usemtl LightRock
s off
f 1//1 2//1 3//1 4//1
f 1//2 4//2 5//2 6//2 7//2 8//2 9//2 10//2 11//2 12//2 13//2 14//2
f 14//3 15//3 2//3 1//3
f 3//4 2//4 16//4 17//4
f 4//5 3//5 18//5 5//5
f 5//5 18//5 19//5 6//5
f 6//5 19//5 20//5 7//5
f 7//5 20//5 21//5 8//5
f 8//6 21//6 22//6 9//6
f 9//7 22//7 23//7 10//7
f 10//8 23//8 24//8 11//8
f 11//8 24//8 25//8 12//8
f 12//8 25//8 26//8 13//8
f 13//8 26//8 15//8 14//8
f 2//4 15//4 27//4 16//4
f 18//4 3//4 17//4 28//4
f 17//7 16//7 29//7 30//7
f 21//4 20//4 35//4 36//4
f 22//4 21//4 36//4 37//4
f 23//4 22//4 37//4 38//4
f 24//4 23//4 38//4 39//4
f 15//4 26//4 44//4 27//4
f 16//6 27//6 45//6 29//6
f 28//8 17//8 30//8 47//8
f 30//4 29//4 45//4 48//4 49//4 50//4 51//4 52//4 53//4 54//4 55//4 47//4
f 36//8 35//8 54//8 53//8
f 37//3 36//3 53//3 52//3
f 38//1 37//1 52//1 51//1
f 39//5 38//5 51//5 50//5
f 27//5 44//5 48//5 45//5
f 59//8 28//8 47//8 55//8
f 44//5 61//5 49//5 48//5
f 61//5 39//5 50//5 49//5
f 35//8 59//8 55//8 54//8
usemtl LightWood
f 31//5 19//5 18//5 32//5
f 20//5 19//5 31//5 33//5 34//5
f 25//8 24//8 40//8 41//8 42//8
f 43//8 26//8 25//8 42//8
f 32//9 18//9 28//9 46//9
f 56//10 35//10 20//10 34//10
f 40//11 24//11 39//11 57//11
f 58//12 44//12 26//12 43//12
f 46//8 28//8 59//8 60//8
f 59//8 35//8 56//8 62//8 60//8
f 39//5 61//5 63//5 64//5 57//5
f 63//5 61//5 44//5 58//5
usemtl Celing
f 65//8 66//8 67//8 68//8
f 69//8 65//8 68//8 70//8
f 71//13 72//13 66//13 65//13
f 66//14 72//14 73//14 67//14
f 68//15 67//15 73//15 74//15 33//15 31//15 32//15 46//15 60//15 62//15 64//15 63//15 58//15 43//15 42//15 41//15
f 75//16 69//16 70//16 76//16
f 75//17 71//17 65//17 69//17
f 70//18 68//18 41//18 40//18 57//18 64//18 62//18 56//18 34//18 33//18 74//18 76//18
f 72//5 71//5 74//5 73//5
f 71//5 75//5 76//5 74//5
